<svg id="Layer_1" data-name="Layer 1" xmlns="http://www.w3.org/2000/svg" viewBox="0 0 767 884"><defs><style>.cls-1{opacity:0.14;}.cls-2{fill:#e2e2e0;}</style></defs><title>background-shield-blue</title><g class="cls-1"><path class="cls-2" d="M4864.37,4129.38a7.92,7.92,0,0,0-7.8,8v6.5a8,8,0,0,0,7.8,8.1h9.1v12.9h93.2l0.2,0.2c3.1,2.8,5.1,4.7,9.2,4.7,3.8,0,5.5-1.6,8-4a9,9,0,0,1,1-.9h93.7V4152h9.1a7.94,7.94,0,0,0,7.8-8.1v-6.5a7.92,7.92,0,0,0-7.8-8h-9.1v-53.9h9.1a7.94,7.94,0,0,0,7.8-8.1v-6.5a8,8,0,0,0-7.8-8.1h-9.1v-12.9h-8.7v-8.4l-6.1,2.9v-3.3l-1.3.5c-0.6.3-1.2,0.5-1.8,0.8-2.4,1.2-4.5,2.2-12.7,1.8-1.6-.1-5.1-1.2-9.4-2.6-9.2-3-23.2-7.6-36.6-7.6a44.62,44.62,0,0,0-13.1,1.8,50.88,50.88,0,0,0-8.2,3.4c-1.4.7-2.9,1.5-4.8,2.3-1.9-.8-3.3-1.5-4.8-2.3a50.35,50.35,0,0,0-8.2-3.5,44.62,44.62,0,0,0-13.1-1.8c-13.3,0-27.3,4.6-36.6,7.6-4.4,1.4-7.8,2.6-9.4,2.6-6.7.4-8.3-.3-10.4-1.2a31.18,31.18,0,0,0-4.1-1.4l-1.2-.1v3.1l-6.1-2.9v8.4h-8.7v12.9h-9.1a7.94,7.94,0,0,0-7.8,8.1v6.5a8,8,0,0,0,7.8,8.1h9.1v53.9h-9.1v-0.1Zm0,20.7a6.09,6.09,0,0,1-5.9-6.1v-6.6a6,6,0,0,1,5.9-6.1h9.1v18.8h-9.1Zm223.4-18.8a6.09,6.09,0,0,1,5.9,6.1v6.5a6,6,0,0,1-5.9,6.1h-9.1v-18.8h9.1v0.1Zm0-76.5a6.09,6.09,0,0,1,5.9,6.1v6.5a6,6,0,0,1-5.9,6.1h-9.1v-18.8h9.1v0.1Zm-19.6-20.2v119.5l-4.2-7.2v-110.3Zm-90.6,113.1c2.5-3.1,7.2-5.6,13.5-7.1,15.3-3.6,29.3,1,40.5,4.8,5,1.7,9.3,3.1,12.8,3.5a58,58,0,0,0,14.3-.3c1.3-.2,2.5-0.3,3.8-0.4l5,8.5c-7.9,1.9-16,1.3-22,.9-1.2-.1-2.3-0.2-3.3-0.2a50,50,0,0,1-8.4-1.9c-9-2.5-22.7-6.3-36.9-3.9a41.75,41.75,0,0,0-12.3,4.2c-0.9-4.8-4.2-7.5-7-8.1h0Zm-9.7,7.9a46.06,46.06,0,0,0-12.5-4.2c-14.2-2.4-27.8,1.4-36.9,3.9a52.27,52.27,0,0,1-8.4,1.9c-1,.1-2.1.1-3.3,0.2-6.1.4-14.2,1-22.2-.9l5.1-8.4c1.2,0.1,2.5.2,3.8,0.4a63.24,63.24,0,0,0,8.5.7c1.7,0,3.6-.1,5.8-0.3,3.5-.4,7.8-1.8,12.8-3.5,11.2-3.8,25.1-8.4,40.5-4.8,6.3,1.5,11.1,4,13.5,7.2a9.62,9.62,0,0,0-6.7,7.8h0Zm8.2-6.1h0.4c2.2,0,6.2,2.7,6.2,8.2-0.1,4.5-4.1,5.5-6.6,5.7-2.4-.2-6.4-1.2-6.6-5.6,0.1-5.6,4.1-8.3,6.6-8.3h0Zm5.7-118.5a45.88,45.88,0,0,1,7.9-3.3,43.94,43.94,0,0,1,12.5-1.7c13,0,26.8,4.5,36,7.5,4.7,1.5,8,2.6,9.9,2.7,8.7,0.5,11-.7,13.6-2,0.1-.1.2-0.1,0.3-0.2v112.1c-1.2.1-2.3,0.2-3.6,0.4a50.4,50.4,0,0,1-13.9.3c-3.3-.3-7.5-1.8-12.4-3.4-10.8-3.6-25.7-8.6-41.6-4.8-6,1.4-10.7,3.8-13.6,6.7v-112.1c2-.8,3.5-1.5,4.9-2.2h0Zm-91.6,2.8a17.86,17.86,0,0,1,2.6,1c2.2,1,4.1,1.7,11.3,1.4,1.9-.1,5.3-1.2,9.9-2.7,9.1-3,22.9-7.5,36-7.5a43.94,43.94,0,0,1,12.5,1.7,42.74,42.74,0,0,1,7.9,3.3c1.4,0.7,2.9,1.4,4.7,2.2v112.2c-2.9-2.9-7.6-5.3-13.6-6.7-15.9-3.8-30.7,1.2-41.6,4.8-4.9,1.6-9.1,3.1-12.4,3.4a60,60,0,0,1-13.9-.3c-1.2-.2-2.4-0.3-3.6-0.4v-112.4h0.2Zm-6.1.8,4.2,2v110.3l-4.2,6.9v-119.2h0Zm-8.7,7.3h6.8v116l0.7,0.2a54.52,54.52,0,0,0,14.2,1.7,95.53,95.53,0,0,0,9.8-.5c1.2-.1,2.3-0.2,3.3-0.2a46.59,46.59,0,0,0,8.9-2c8.9-2.4,22.3-6.2,36-3.9a42.8,42.8,0,0,1,12.6,4.3v0.1c0.1,4.4,3.2,7.1,8.4,7.5h0.2c5.2-.4,8.3-3.1,8.4-7.5a42.14,42.14,0,0,1,12.4-4.4c13.8-2.3,27.2,1.4,36.1,3.9,3.8,1,6.8,1.9,8.9,2,1,0.1,2.1.1,3.3,0.2,2.9,0.2,6.2.5,9.8,0.5a55.77,55.77,0,0,0,14.3-1.7l0.7-.2v-116h6.8V4163h-92.5l-0.3.3a15.38,15.38,0,0,0-1.3,1.2c-2.4,2.3-3.7,3.5-6.7,3.5-3.4,0-4.9-1.4-7.9-4.2l-0.8-.7h-92.1v-121.2h0Zm-11,31.7a6.09,6.09,0,0,1-5.9-6.1V4061a6,6,0,0,1,5.9-6.1h9.1v18.8h-9.1v-0.1Zm245.2,78.4h9.1v12.9h93.2l0.2,0.2c3.1,2.9,5.1,4.7,9.2,4.7,3.8,0,5.5-1.6,8-4a9,9,0,0,1,1-.9h93.6V4152h9.1a7.94,7.94,0,0,0,7.8-8.1v-6.5a7.92,7.92,0,0,0-7.8-8h-9.1v-53.9h9.1a7.94,7.94,0,0,0,7.8-8.1v-6.5a8,8,0,0,0-7.8-8.1h-9.1V4040h-8.7v-8.4l-6.1,2.9v-3.3l-1.3.5c-0.6.3-1.2,0.5-1.8,0.8-2.4,1.2-4.5,2.2-12.7,1.8-1.6-.1-5.1-1.2-9.4-2.6-9.3-3-23.2-7.6-36.6-7.6a44.62,44.62,0,0,0-13.1,1.8,50.88,50.88,0,0,0-8.2,3.4c-1.4.7-2.9,1.5-4.8,2.3-1.9-.8-3.3-1.5-4.8-2.3a48.16,48.16,0,0,0-8.3-3.5,44.62,44.62,0,0,0-13.1-1.8c-13.3,0-27.3,4.6-36.6,7.6-4.4,1.4-7.8,2.6-9.4,2.6-6.7.4-8.3-.3-10.4-1.2a31.18,31.18,0,0,0-4.1-1.4l-1.2-.3v3.1l-6.1-2.9v8.4h-8.7v12.9h-8.9a7.94,7.94,0,0,0-7.8,8.1v6.5a8,8,0,0,0,7.8,8.1h9.1v53.9h-9.1a7.92,7.92,0,0,0-7.8,8v6.5A7.94,7.94,0,0,0,5109.57,4152Zm223.5-20.7a6.09,6.09,0,0,1,5.9,6.1v6.5a6,6,0,0,1-5.9,6.1H5324v-18.8h9.1v0.1Zm0-76.5a6.09,6.09,0,0,1,5.9,6.1v6.5a6,6,0,0,1-5.9,6.1H5324v-18.7h9.1Zm-19.7-20.2v119.5l-4.2-7.2v-110.3Zm-90.6,113.1c2.5-3.1,7.2-5.6,13.5-7.1,15.4-3.6,29.3,1,40.5,4.8,5,1.7,9.3,3.1,12.8,3.5a58,58,0,0,0,14.3-.3c1.3-.2,2.5-0.3,3.8-0.4l5,8.5c-7.9,1.9-16,1.3-22,.9-1.2-.1-2.3-0.2-3.3-0.2a52.91,52.91,0,0,1-8.5-1.9c-9-2.5-22.7-6.3-36.9-3.9a41.75,41.75,0,0,0-12.3,4.2C5228.87,4151,5225.57,4148.28,5222.77,4147.68Zm-9.7,7.9a46.06,46.06,0,0,0-12.5-4.2c-14.2-2.4-27.8,1.4-36.9,3.9a52.27,52.27,0,0,1-8.4,1.9c-1,.1-2.1.1-3.3,0.2-6.1.4-14.2,1-22.2-.9l5.1-8.4c1.2,0.1,2.5.2,3.8,0.4a63.24,63.24,0,0,0,8.5.7c1.7,0,3.6-.1,5.8-0.3,3.5-.4,7.8-1.8,12.8-3.5,11.2-3.8,25.2-8.4,40.5-4.8,6.3,1.5,11.1,4,13.5,7.2a9.62,9.62,0,0,0-6.7,7.8h0Zm8.2-6.1h0.4c2.2,0,6.2,2.7,6.2,8.2-0.1,4.5-4.1,5.5-6.6,5.7-2.9-.2-6.4-1.4-6.6-5.6,0.2-5.6,4.1-8.3,6.6-8.3h0ZM5227,4031a42.74,42.74,0,0,1,7.9-3.3,43.94,43.94,0,0,1,12.5-1.7c13,0,26.8,4.5,36,7.5,4.7,1.5,8,2.6,9.9,2.7,8.7,0.5,11-.7,13.6-2,0.1-.1.2-0.1,0.3-0.2v112.1c-1.2.1-2.4,0.2-3.6,0.4a50.4,50.4,0,0,1-13.9.3c-3.3-.3-7.5-1.8-12.4-3.4-10.8-3.6-25.7-8.6-41.6-4.8-6,1.4-10.7,3.8-13.6,6.7v-112.1c2-.8,3.5-1.5,4.9-2.2h0Zm-91.6,2.8a17.86,17.86,0,0,1,2.6,1c2.2,1,4.1,1.7,11.3,1.4,1.9-.1,5.3-1.2,9.9-2.7,9.1-3,22.9-7.5,36-7.5a43.94,43.94,0,0,1,12.5,1.7,42.74,42.74,0,0,1,7.9,3.3c1.4,0.7,2.9,1.4,4.7,2.2v112.2c-2.9-2.9-7.6-5.3-13.6-6.7-15.9-3.8-30.7,1.2-41.6,4.8-4.9,1.6-9.1,3.1-12.4,3.4a60,60,0,0,1-13.9-.3c-1.2-.2-2.4-0.3-3.6-0.4v-112.4h0.2Zm-6.1.8,4.2,2v110.3l-4.2,6.9v-119.2h0Zm-8.7,7.3h6.8v116l0.7,0.2a54.52,54.52,0,0,0,14.2,1.7,95.53,95.53,0,0,0,9.8-.5c1.2-.1,2.3-0.2,3.3-0.2a46.59,46.59,0,0,0,8.9-2c8.9-2.4,22.3-6.1,36-3.9a42.8,42.8,0,0,1,12.6,4.3v0.1c0.1,4.4,3.2,7.1,8.4,7.5h0.2c5.2-.4,8.3-3.1,8.4-7.5a42.14,42.14,0,0,1,12.4-4.4c13.8-2.3,27.2,1.4,36,3.9a45,45,0,0,0,8.9,2c1,0.1,2.1.1,3.3,0.2,2.9,0.2,6.2.5,9.8,0.5a55.77,55.77,0,0,0,14.3-1.7l0.7-.2v-116h6.8V4163h-92.5l-0.3.3a15.38,15.38,0,0,0-1.3,1.2c-2.4,2.3-3.7,3.5-6.7,3.5-3.4,0-4.9-1.4-7.9-4.2l-0.8-.7h-92v-121.2h0Zm-11,31.7a6.09,6.09,0,0,1-5.9-6.1V4061a6,6,0,0,1,5.9-6.1h9.1v18.8h-9.1v-0.1Zm-5.9,63.8a6,6,0,0,1,5.9-6.1h9.1v18.8h-9.1a6.09,6.09,0,0,1-5.9-6.1v-6.6h0Zm251.1,14.6h9.1v12.9h93.2l0.2,0.2c3.1,2.8,5.1,4.7,9.2,4.7,3.8,0,5.5-1.6,8-4l1-.9h93.6V4152h9.1a7.94,7.94,0,0,0,7.8-8.1v-6.5a7.92,7.92,0,0,0-7.8-8h-9.1v-53.9h9.1a7.94,7.94,0,0,0,7.8-8.1v-6.5a8,8,0,0,0-7.8-8.1h-9.1V4040h-8.7v-8.4l-6.1,2.9v-3.3l-1.3.5c-0.6.3-1.2,0.5-1.8,0.8-2.4,1.2-4.5,2.2-12.7,1.8-1.6-.1-5.1-1.2-9.4-2.6-9.3-3-23.2-7.6-36.6-7.6a44.62,44.62,0,0,0-13.1,1.8,42.88,42.88,0,0,0-8.2,3.5c-1.4.7-2.9,1.5-4.8,2.3-1.8-.8-3.3-1.5-4.8-2.3a48.16,48.16,0,0,0-8.3-3.5,44.62,44.62,0,0,0-13.1-1.8c-13.3,0-27.3,4.6-36.6,7.6-4.4,1.4-7.8,2.6-9.4,2.6-6.8.3-8.3-.3-10.4-1.2a31.18,31.18,0,0,0-4.1-1.4l-1.2-.3v3.1l-6.1-2.9v8.4h-8.7v12.9h-9.1a7.94,7.94,0,0,0-7.8,8.1v6.5a8,8,0,0,0,7.8,8.1h9.1v53.9h-9.1a7.92,7.92,0,0,0-7.8,8v6.5a8.22,8.22,0,0,0,8,8h0Zm223.5-20.7a6.09,6.09,0,0,1,5.9,6.1v6.5a6,6,0,0,1-5.9,6.1h-9.1v-18.8h9.1v0.1Zm0-76.5a6.09,6.09,0,0,1,5.9,6.1v6.5a6,6,0,0,1-5.9,6.1h-9.1v-18.7h9.1Zm-19.7-20.2v119.5l-4.2-7.2v-110.3Zm-90.5,113.1c2.5-3.1,7.2-5.6,13.5-7.1,15.3-3.6,29.3,1,40.5,4.8,5,1.7,9.3,3.1,12.8,3.5,2.2,0.2,4.1.3,5.8,0.3a50.17,50.17,0,0,0,8.5-.7c1.3-.2,2.5-0.3,3.8-0.4l5,8.5c-7.9,1.9-16,1.3-22,.9-1.2-.1-2.3-0.2-3.3-0.2a52.91,52.91,0,0,1-8.5-1.9c-9-2.5-22.7-6.3-36.9-3.9a41.75,41.75,0,0,0-12.3,4.2c-0.9-4.7-4.1-7.4-6.9-8h0Zm-9.7,7.9a46.06,46.06,0,0,0-12.5-4.2c-14.2-2.4-27.8,1.4-36.9,3.9a52.27,52.27,0,0,1-8.4,1.9c-1,.1-2.1.1-3.3,0.2-6.1.4-14.2,1-22.2-.9l5.1-8.4c1.2,0.1,2.5.2,3.8,0.4a53.29,53.29,0,0,0,14.3.3c3.5-.4,7.8-1.8,12.8-3.5,11.2-3.8,25.1-8.4,40.5-4.8,6.3,1.5,11.1,4,13.5,7.2a9.77,9.77,0,0,0-6.7,7.9h0Zm8.1-6.1h0.4c2.2,0,6.2,2.7,6.2,8.2-0.1,4.5-4.1,5.5-6.6,5.7-2.4-.2-6.4-1.2-6.6-5.6,0.2-5.6,4.2-8.3,6.6-8.3h0Zm5.7-118.5a45.87,45.87,0,0,1,7.9-3.3,43.94,43.94,0,0,1,12.5-1.7c13,0,26.8,4.5,36,7.5,4.7,1.5,8,2.6,9.9,2.7,8.7,0.5,11-.7,13.6-2,0.1-.1.2-0.1,0.3-0.2v112.1c-1.2.1-2.4,0.2-3.6,0.4a50.4,50.4,0,0,1-13.9.3c-3.3-.3-7.5-1.8-12.4-3.4-10.8-3.6-25.7-8.6-41.6-4.8-6,1.4-10.7,3.8-13.6,6.7V4097h8c2.1,6.2,5.1,14.5,5.1,18.3,0,4-3.4,5-6.1,5.7v1.3h23.5V4121c-6.4-1.3-7.7-3.9-9.9-10.4l-17.6-52a16.63,16.63,0,0,1-2.9,3v-28.4C5469.27,4032.38,5470.77,4031.68,5472.17,4031Zm-6.6,62h-7l7-21.4V4093Zm1.9-19.2,6.9,19.3h-6.9v-19.3Zm-86.9-40a17.86,17.86,0,0,1,2.6,1c2.2,1,4,1.7,11.3,1.4,1.9-.1,5.3-1.2,9.9-2.7,9.1-3,23-7.5,36-7.5a43.94,43.94,0,0,1,12.5,1.7,42.74,42.74,0,0,1,7.9,3.3c1.4,0.7,2.9,1.4,4.7,2.2V4063a9.29,9.29,0,0,1-1,.5c0.9,1.7-.2,3.8-0.9,6.1l-4.8,14.4-9,26.2c-2.5,6.9-3.2,8.7-10.3,10.8v1.3h21.9V4121c-3.6-.6-9.1-0.6-9.1-6,0-4.3,3.5-13.5,4.9-17.9h8.3v48.3c-2.9-2.9-7.6-5.3-13.6-6.7-15.9-3.8-30.7,1.2-41.6,4.8-4.9,1.6-9.1,3.1-12.4,3.4a60,60,0,0,1-13.9-.3c-1.2-.2-2.4-0.3-3.6-0.4v-112.4h0.2Zm-6.1.8,4.2,2v110.3l-4.2,6.9v-119.2Zm-8.7,7.3h6.8v116l0.7,0.2a54.77,54.77,0,0,0,14.3,1.7,95.53,95.53,0,0,0,9.8-.5c1.2-.1,2.3-0.2,3.3-0.2a45,45,0,0,0,8.9-2c8.9-2.4,22.3-6.1,36-3.9a43.8,43.8,0,0,1,12.6,4.3v0.1c0.1,4.4,3.2,7.1,8.4,7.5h0.2c5.2-.4,8.3-3.1,8.4-7.5a42.14,42.14,0,0,1,12.4-4.4c13.8-2.3,27.2,1.4,36,3.9a45,45,0,0,0,8.9,2c1,0.1,2.1.1,3.3,0.2,2.9,0.2,6.2.5,9.8,0.5a55.77,55.77,0,0,0,14.3-1.7l0.7-.2v-116h6.8V4163h-92.5l-1.5,1.4c-2.5,2.3-3.7,3.5-6.7,3.5-3.4,0-4.9-1.4-7.9-4.2l-0.8-.7h-92.1l-0.1-121.1h0Zm-11,31.7a6.09,6.09,0,0,1-5.9-6.1V4061a6,6,0,0,1,5.9-6.1h9.1v18.8h-9.1v-0.1Zm-5.8,63.8a6,6,0,0,1,5.9-6.1h9.1v18.8h-9.1a6.09,6.09,0,0,1-5.9-6.1v-6.6Z" transform="translate(-4836.57 -3995.38)"/><path class="cls-2" d="M4836.57,3995.38l0.3,322.8c0.1,156.1,50,436.4,381.8,560.7l1.3,0.5,1.3-.5c331.9-124.3,381.7-404.7,381.8-560.7l0.5-322.8h-767Zm759.1,223.8c-7.8,16.2-32.1,27.8-59.5,27.8-30.6,0-57-14.4-61.5-33.5H5471c-4.8,19.1-31.1,33.5-61.2,33.5-30.6,0-57-14.4-61.5-33.5h-3.7c-4.8,19.1-31.1,33.5-61.2,33.5-30.6,0-57-14.4-61.5-33.5h-3.7c-4.8,19.1-31.1,33.5-61.2,33.5-30.6,0-57-14.4-61.5-33.5h-3.7c-4.8,19.1-31.1,33.5-61.2,33.5-31.1,0-56.9-13.9-61.3-33h-3.7c-4.7,18.8-31.1,33.1-61.4,33.1-27.6,0-51.9-11.7-59.6-28.1v-22.3c10.7,20,33.8,33.6,59.6,33.6,29.6,0,55-17.2,63.2-41.8,8,24.6,33.3,41.8,63.2,41.8,29,0,54.8-17.8,63-42.4,8,24.7,33.9,42.4,63.4,42.4,29,0,54.8-17.8,63-42.4,8,24.7,33.9,42.4,63.4,42.4,29,0,54.8-17.8,63.1-42.4,8,24.7,33.9,42.4,63.4,42.4,29,0,54.8-17.8,63-42.4,8,24.7,33.9,42.4,63.4,42.4,26.1,0,48.8-13.3,59.5-33.3l-0.1,22.2h0Zm0.2-216.1-0.2,184.4c-7.8,23-31.6,39-59.5,39-30.6,0-57-20.1-61.5-46.7h-3.8c-4.8,26.7-31.1,46.8-61.2,46.8-30.6,0-57-20.1-61.5-46.7h-3.8c-4.8,26.7-31.1,46.8-61.2,46.8-30.6,0-57-20.1-61.5-46.7h-3.8c-4.8,26.7-31.1,46.8-61.2,46.8-30.6,0-57-20.1-61.5-46.7h-3.8c-4.8,26.7-31.1,46.8-61.2,46.8-31,0-56.8-19.4-61.3-46.1h-3.8c-4.8,26.7-30.6,46.2-61.4,46.2-27.7,0-51.9-16.5-59.6-39.4l0.2-184.5h751.6Zm-674.8,623.7,298.8-260.9L5519,4627a511.46,511.46,0,0,1-58.9,83.1l-240.2-215.2-240,215.1a509.62,509.62,0,0,1-58.8-83.2h0Zm299,244.5c-105.8-39.9-182.4-95.8-237.7-158.5l237.4-212.8,237.8,213.1C5402.27,4775.58,5325.67,4831.48,5220.07,4871.28Zm300.8-247.6-301-262.8-300.8,262.5c-60.8-108.8-74.4-224-74.5-305.2l-0.1-91.7c10.6,14.6,33.4,24.4,59.6,24.4,29.6,0,55-12.6,63.2-30.6,8,18,33.3,30.6,63.2,30.6,29.5,0,54.8-12.7,63-31,8,18.2,33.4,31,63.4,31,29.5,0,54.8-12.7,63-31,8,18.2,33.4,31,63.4,31,29.5,0,54.8-12.7,63.1-31,8,18.2,33.4,31,63.4,31,29.5,0,54.8-12.7,63-31,8,18.2,33.4,31,63.4,31,26,0,48.8-9.7,59.5-24.3l-0.1,91.6c-0.1,81.2-13.8,196.6-74.7,305.5h0Z" transform="translate(-4836.57 -3995.38)"/><path class="cls-2" d="M5043.47,4104.78h-1.2c-2,11.2-6.9,15.4-17,15.4-13.1,0-12-7.3-12-12.5v-14.5h8.3c6,0,10.4.1,11.4,7.9h1.2v-19.8H5033c-0.9,7.6-5.4,8.2-11.4,8.2h-8.3v-25.3h7.7c8.1,0,15.5.1,16,11.5h1.2l1-13.7h-42.9v1.4c9.6,1.4,9.7,4.1,9.9,13.2v31.2c-0.2,9.1-.3,11.8-9.9,13.2v1.3h44.4a57.29,57.29,0,0,0,2.8-17.5h0Zm-130-28.4,18,48h1.1l15.2-40.5c5-12.9,7.3-19.9,14.8-20.6V4062h-22.5v1.4c12.1,2,10.9,4.9,4,23.1l-9.4,25.1-12.7-34.3c-2.1-5.6-5.7-12.7,5.5-13.9v-1.3h-25.3v1.3C4909.27,4064.28,4911.07,4070,4913.47,4076.38Zm604.3,47.1c9.2,0,19.4-5.9,19.4-17.4,0-17.9-25.2-17.4-25.2-32.7,0-5.9,4.2-9.8,9.3-9.8,7.9,0,10,6.9,11.3,14.1h1.3l0.6-13.3a23.17,23.17,0,0,0-11.7-3.5c-8.5,0-17.8,6.6-17.8,16.9,0,17.7,24.4,16.3,24.4,32.1,0,6.9-4.6,10.8-10.5,10.8-8.8,0-14.1-8.4-16.1-17h-1.4l2.3,15.1a23.65,23.65,0,0,0,14.1,4.7h0Zm-107.8-58.8h4.8v41c0,11-.5,13.9-11.2,15.3v1.3H5433V4121c-10.7-1.4-11.2-4.4-11.2-15.3v-41h4.8c9.2,0,13.6.5,16.4,11.5l1.1-.3-1.1-16.6h-0.6l-0.8.8c-2,2-2.3,2-4.9,2h-36.6c-2.6,0-2.9.1-4.9-2l-0.8-.8h-0.8l-1.1,16.6,1.1,0.3c2.8-11,7.2-11.5,16.4-11.5h0Zm-131.1,56.4c-9.6-1.4-9.7-4.1-9.9-13.2v-31.3c0.2-9.1.3-11.8,9.9-13.2v-1.3h-26.8v1.3c9.6,1.4,9.7,4.1,9.9,13.2v31.2c-0.2,9.1-.3,11.8-9.9,13.2v1.3h26.8v-1.2Zm-98.9,0c-10.9-1.7-11.1-3.5-11.1-13.2v-14.3c5.6,1.1,8.5-1.1,11.7,6.3a78.43,78.43,0,0,0,11.1,17.7c4.6,5.3,10.8,5.1,19.3,5.5l0.2-1.3c-13.2-3-20.8-18.3-27-30.2l-0.4-.6c5.7-2.8,9.9-7.1,9.9-14.6,0-4.2-1.6-15.2-21.7-14.5l-19.5.7v1.2c8.9,0.9,9.3,2.9,9.3,16.5v27.5c-0.2,9.1-.3,11.8-9.9,13.2v1.3h28v-1.2h0.1Zm-11.1-57.3c8.4-.1,16.6,4.1,16.6,14.5,0,9.8-8.9,13.7-16.6,13.8v-28.3Zm200.2,611.7c-10.6,4.2-38.2-.5-38.6-0.6a27.09,27.09,0,0,0-20.8,7.4c-6.3,6-10,15-10,24.7a29.07,29.07,0,0,0,.6,6c-9.9-13.8-30.1-24.5-55.8-28.5-0.5-3.4-4-7.2-8.9-9.6l-0.1-5.2c7.8-2.6,12.3-7.7,12.3-14,0-6.8-5.3-13.1-13.5-16.1a8,8,0,0,0-4.6-4c-0.3-4-2.7-14-5.8-15.1l-0.3-.1-0.3.1c-3.1,1.1-5.9,11.5-6.2,15.4a9.45,9.45,0,0,0-4.5,3.9c-8,3.1-12.9,9.1-12.9,15.9s4.1,11.5,12.2,13.9l-0.3,5.3c-4.8,2.5-8.1,6.2-8.6,9.5-26.8,4-48.3,15.5-57.8,31-1.8-.3-7.6-1.4-11.6-6.3q-5.1-6.3-3.6-17.4a2,2,0,0,0,.2-1.1v-0.3c0-4.1-7.6-6.9-16.9-8a44.25,44.25,0,0,0-8.7-1.3v-2.2h0.3a14.17,14.17,0,0,0,3.8-.5c6.2-1.7,11.4-3.8,12.7-12.1,1.1-7.4-4.3-14.9-9.1-21.6-1.4-1.9-2.7-3.7-3.8-5.5-1.8-2.8-1.9-6.7-2.1-10.2-0.2-4-.3-7.9-3.6-7.9a3.92,3.92,0,0,0-1.8.4l-0.4.2-0.1.4c-0.7,2.1-1.1,3.9-1.6,5.6-1,3.8-1.7,6.9-4.7,11.5-1.1,1.8-2.4,3.6-3.8,5.5-4.8,6.7-10.3,14.2-9.1,21.6,1.3,8.4,6.5,10.4,12.7,12.1a14.17,14.17,0,0,0,3.8.5h1.1v2.3a33.72,33.72,0,0,0-7.3,1.3c-8.8,1.2-15.9,3.9-15.9,7.9,0,7.2,11.3,13.7,11.8,14l0.2,0.1c0.1,0,5.9,2,19.5,23.2,28.3,44.3,75.7,48.7,78.2,48.9a134.73,134.73,0,0,0,17,3.5c-0.3,3.8-2.8,4.7-5.6,5.7-2.4.9-5.1,1.8-5.6,4.9h-0.1v1.5l-10.5,9.3c-8.2,1.7-12.4,6.8-12.4,10.9,0,9.6,24.4,17,55.6,17s55.6-7.5,55.6-17c0-4.7-4.1-6.6-10.8-9.1l-13.2-11.9c-0.2-3.7-3-4.7-5.4-5.5-2.6-.9-4.9-1.7-5.2-5.6a113.91,113.91,0,0,0,14.3-3.2c70.9-7.6,104.3-27.7,105.3-63.2,0-.6.7-13.4-7.8-22.9,12.6-.4,16-4.4,22.4-11.9,1.4-1.7,2.9-3.8,1.9-5.2-0.7-1.3-2.7-1.9-11.8,1.7h0Zm-46,27.8,0.1,0.5,0.5,0.2c4.7,2.4,6.1,4.7,5.3,8.7a6.38,6.38,0,0,1-5.4,4.9c-5.3.3-9.1-3.1-9.5-8.7a17.71,17.71,0,0,1,4.3-13.4,15.8,15.8,0,0,1,11.9-4.8c11.9,0,19.6,8.3,19.6,21.1,0,18.9-10.2,30.2-27.3,30.2-6.4-.4-13.2-3.2-15.9-4.4a36.15,36.15,0,0,0,.5-5.4,30.12,30.12,0,0,0-1.1-7.9,8,8,0,0,0,1.3,1.3,22.78,22.78,0,0,0,16.5,6.5c8.7-.2,17.6-5.8,17.6-17.7,0-9-4.6-15.5-11-15.5-3,0-5.1.7-6.3,1.9a3.45,3.45,0,0,0-1.1,2.5h0Zm-94.1,76.5c16.2-7.3,17.7-33.2,17.9-36.6a243.49,243.49,0,0,0,35.7-5.2,39.9,39.9,0,0,1-6.8,14.2c-5.7,8-17.3,19.1-40.1,27.1C5233.47,4779.48,5231.27,4779.68,5229,4779.78Zm-25.6-1.6c-0.4-.1-0.8-0.1-1.2-0.2-33.9-10.4-36.4-33.6-36.5-39.2a225.93,225.93,0,0,0,28.9,4.2,63,63,0,0,0,4.4,17.9c3.8,9.4,9.5,15.7,16.7,18.7C5211.87,4779.28,5207.87,4778.78,5203.37,4778.18Zm19.9,1.3c-21.9-2.1-26.1-30.5-26.7-36.4,7.9,0.6,16.6,1,25.8,1,7.7,0,15.3-.3,22.6-0.8-0.2,4.2-2.5,33-21.7,36.2h0Zm-0.9-37.3c-36,0-63-5.5-74-10.9-0.2-2.6-.3-5.4-0.4-8.6,0.1-1.2.3-4.7-1-6.4,0.4-.7.9-1.4,1.4-2.1,4.9,8.6,36.9,15.2,75.6,15.2,34.6,0,71.6-4.1,76.4-13a31.54,31.54,0,0,1,4,9.5h-0.2C5304.17,4732.28,5269,4742.18,5222.37,4742.18Zm-8.4-47.9a37.21,37.21,0,0,0-16.2,32.1c-13.2-1.1-24.1-3-32.1-5.3,7.7-22.8,35.2-31.1,38.8-32.1,1.7,2.3,5.1,4.2,9.5,5.3h0Zm28.9-4.9c4.4,0.9,29.7,7.2,39.7,33.2-8.4,1.9-19.8,3.4-33.8,4.2-0.2-19.8-10.6-29.2-15.4-32.4,4.3-1.1,7.6-2.8,9.5-5h0Zm-12.2,5.5c2.5,1.3,16,9.8,16.2,32-7,.4-14.7.6-23,0.6q-13.2,0-24.3-.9a35.48,35.48,0,0,1,17-31.7,40.31,40.31,0,0,0,7.2.6,36.94,36.94,0,0,0,6.9-.6h0Zm68.4,19.5c-0.1,2.7-5.2,5.5-14.6,7.8-9.8-25.8-34.1-33-40.4-34.4a5,5,0,0,0,.5-1.3C5269.77,4690.38,5289.57,4700.88,5299.07,4714.38Zm-85.2-44.3a44.56,44.56,0,0,0,9.8,1.5,36.79,36.79,0,0,0,10.1-1.3l0.1,5.2c0,3.2-4.5,5.8-10.1,5.8s-10.1-2.5-10.1-5.7Zm9.8-47.6c1.7,1.5,4.2,10,4.2,13.8,0,2.8-1.6,4.5-4.2,4.5-2.2,0-4.6-1.1-4.6-4.3C5219.07,4632.68,5222,4624,5223.67,4622.48Zm-6.4,15.5c0.6,2.9,3,4.8,6.4,4.8a5.67,5.67,0,0,0,6-5.1,6.24,6.24,0,0,1,3,3c-0.3,4.8-3.6,7.6-9.1,7.6-5.2,0-9.2-3.9-9.3-7.4a6.82,6.82,0,0,1,3-2.9h0Zm-15.6,17.7c0-5.7,4.1-10.9,10.9-13.8,0.8,4.1,5.1,8.2,11.1,8.2s10.2-3.2,10.9-8.4c7,2.8,11.4,8.2,11.4,14s-4.4,10.3-12,12.5a37.7,37.7,0,0,1-10.3,1.4,47,47,0,0,1-10.4-1.7C5205.37,4665.88,5201.67,4661.88,5201.67,4655.68Zm10.1,21.3c1,3.6,5.8,6.2,11.8,6.2s10.8-2.6,11.8-6.2c4.3,2.3,7.2,5.8,7.2,8.4,0,4.5-8.7,8.2-18.9,8.2s-18.9-3.8-18.9-8.3c0.1-2.6,3-6,7-8.3h0Zm-8.7,9.4c0.1,0.3.2,0.7,0.3,1-5.4,1.6-31.9,10.4-39.6,33.2-8.6-2.6-13.6-5.6-14.1-8.2,10.2-12.9,29.7-22.5,53.4-26h0Zm-70.9,24a19.92,19.92,0,0,0,13.2,7c0.6,0.4.9,2.8,0.7,5.2,0.1,3.1.2,5.9,0.4,8.5-3.3.1-13.5,0-21.9-6.8-6.9-5.6-11.1-14.3-12.3-26,6.6-.9,12.4-2.5,15.7-4.6-0.6,6.9.8,12.5,4.2,16.7h0Zm-34.6-33.5a14.66,14.66,0,0,1-3.3-.4c-5.9-1.6-10.2-3.3-11.3-10.6-1-6.6,4-13.5,8.8-20.2,1.4-1.9,2.7-3.8,3.9-5.6a34.94,34.94,0,0,0,5-12c0.4-1.5.8-3.1,1.4-5a2,2,0,0,1,.7-0.1c1.3,0,1.5,2.3,1.7,6,0.2,3.5.3,7.9,2.4,11.1,1.2,1.8,2.5,3.6,3.9,5.6,4.8,6.7,9.8,13.6,8.8,20.1-1.1,7.3-5.4,9-11.3,10.6a10.51,10.51,0,0,1-3.3.4h-0.3v-6.2c0-3.7-5.9-3.7-5.9,0v6.2l-1.2.1h0Zm-10.7,8.2a2.69,2.69,0,0,0-.5,1.5c0,3.7,8.2,5.7,16.2,5.7s16.2-1.9,16.2-5.7a2.45,2.45,0,0,0-.6-1.6c6.2,1.3,9.9,3.4,10,5.3,0,0.3-.1.5-0.1,0.8l-0.3.3c-3.2,2.8-13.4,5.7-25,5.7-11,0-21.3-2.2-24.5-5.3a2.24,2.24,0,0,1-.9-1.4c0.1-2,3.6-4,9.5-5.3h0Zm21.8,41.5c-13.2-20.7-19.3-23.6-20.5-24-0.8-.5-6.5-3.9-9.3-8.1,4.7,2.7,13.9,4.4,23.9,4.4a60.07,60.07,0,0,0,7.4-.4c1.3,12.2,5.7,21.3,13,27.2,9,7.3,19.7,7.4,23.2,7.3,1.9,21.3,8.1,26.3,8.3,26.5a77,77,0,0,0,20.8,13.4c-15.4-3.5-46.2-14.2-66.8-46.3h0Zm47.5,31.5c-0.1-.1-5.7-4.8-7.6-24.6a83.88,83.88,0,0,0,15.3,4.9c0.1,4.6,1.9,25.8,28.3,37.9-2.2-.5-4.4-1-6.5-1.6a78.48,78.48,0,0,1-29.5-16.6h0Zm35.9,35.6c5,6.6,25.5,8,31.6,8,16,0,26-1.9,29.9-5.8a6.17,6.17,0,0,0,1.5-2.2l11.9,10.8c-0.6,2.3-5.5,13.8-43.3,13.8-24.2,0-34.4-5.2-38.6-9.6a9.79,9.79,0,0,1-3.1-5.9Zm85.2,18.6c0,7.3-21.6,15.1-53.7,15.1s-53.7-7.8-53.7-15.1c0-3.2,3.5-7.2,10.1-8.9a11.48,11.48,0,0,0,3.5,6.3c4.5,4.7,15.1,10.3,40.1,10.3,37.2,0,43.8-11,45-14.7,6.9,2.7,8.7,4.2,8.7,7h0Zm-23.9-20.5a3.73,3.73,0,0,1-1.2,2.7c-3.4,3.4-13.5,5.2-28.5,5.2-10.7,0-29.6-2.9-30.7-8.7,0.2-2,1.7-2.7,4.2-3.6v0.3c0,5,17.5,7.6,26.8,7.6,11.6,0,25.5-1.3,25.7-7.5v-0.2C5252,4788.58,5253.37,4789.28,5253.37,4791.78Zm-5.6-4.7v0.7c-0.1,3.5-9.3,5.7-23.8,5.7-12,0-24.9-3.4-24.9-5.7,0-.6.7-1.3,2-2v-0.1a7.17,7.17,0,0,0,3.2-5.6,135,135,0,0,0,19.5,1.6c4,0,7.9-.2,11.9-0.5v0.1c0.2-.1.3-0.1,0.5-0.2,2.3-.2,4.5-0.4,6.8-0.8C5243.17,4784.68,5245.47,4786.18,5247.77,4787.08Zm-4.1-8.7a0.6,0.6,0,0,0-.4.1c35.1-14.7,40.6-36.5,41.4-41,10.2-2.5,17.5-5.6,20.3-8.8a23.08,23.08,0,0,1,.3,3.7,31.74,31.74,0,0,1-.6,5.8c-3.1,15.6-20.7,29.7-45.9,37a133,133,0,0,1-15.1,3.2h0Zm133.9-100.8c-6.8,8-9.7,11.3-23.2,11.3H5352l1.7,1.6c9.4,9,8.8,22.9,8.8,23.1-0.9,32.9-31,52.2-94.4,60.3,20.7-7.8,34.5-20.2,38-34.3,3,1.3,9.7,4,16.2,4.4,18.4,0,29.3-12,29.3-32.1,0-13.8-8.6-23-21.5-23a17.77,17.77,0,0,0-13.3,5.4,19.44,19.44,0,0,0-4.8,14.8c0.5,6.4,4.7,10.5,10.7,10.5h0.9a8.33,8.33,0,0,0,7.2-6.4c0.9-4.7-.7-7.7-5.7-10.5a2.18,2.18,0,0,0,.3-0.5c0.6-.6,1.9-1.3,4.8-1.3,5.3,0,9.1,5.7,9.1,13.6,0,11.4-8.5,15.6-15.7,15.8a21.4,21.4,0,0,1-15.1-5.9,24.06,24.06,0,0,1-6.9-17.4c0-9.2,3.4-17.7,9.4-23.4a25.42,25.42,0,0,1,19.2-6.9c1.2,0.2,28.4,4.8,39.5.5,8.3-3.2,9.5-2.5,9.6-2.5s0.2,0.7-1.7,2.9h0Zm-294.8-372.3a25.82,25.82,0,0,0-1-5.5c-0.3-1.2-.6-2.6-0.9-4.4,1.3-2.8,5-9.2,10.8-9.3v-1c-4.7.1-8,3.7-10,6.8a13.76,13.76,0,0,0-.2-10.4l-0.9.4a13,13,0,0,1-.5,11.2l-0.9.8c-1.3,1.1-2.4,1.9-3.3,2.6a31.68,31.68,0,0,0-3.4,2.8,13.62,13.62,0,0,0-3.3-10l-0.7.6a12.55,12.55,0,0,1,3,10.5,17.41,17.41,0,0,0-1.2,1.4,6.22,6.22,0,0,0-1.1,4.3c-2.3-2-4.2-.9-4.9-0.2-2.9,2.6-4.2,10.3-3.1,13.9a7.88,7.88,0,0,0-1.6.8c-2.9,2.6-4.2,10.3-3.1,13.9a7.88,7.88,0,0,0-1.6.8c-2.9,2.6-4.1,10.1-3.1,13.7-2.1.7-3.8,3-4.6,6.3a14.53,14.53,0,0,0,4.6,14.4l-1.8,5.4c-4.7-.8-11.8-1.8-20.2-2.6l2-16.8c6.8-1.8,10.5-9,10.5-14.2a6.55,6.55,0,0,0-1.4-4.5c2.5-2.9,4.3-10.1,2.9-13.6a3.57,3.57,0,0,0-1.2-1.7c2.6-2.8,4.5-10.2,3.1-13.8a3.57,3.57,0,0,0-1.2-1.7c2.6-2.8,4.4-10.2,3.1-13.8a3.54,3.54,0,0,0-3-2.4c0.5-1.1,2-3,6.3-5.1l-0.4-.9c-4.9,2.5-6.4,4.8-6.9,6a2.35,2.35,0,0,0-.8.2,6.11,6.11,0,0,0,1-4.6c1.2-3.1,4.2-9.2,9.7-9.7l-0.1-1c-5.5.6-8.6,5.7-10.1,9.1a23.91,23.91,0,0,0-2-4.8c-0.5-1-1-2.1-1.6-3.5,0.5-3.1,2.3-10.3,7.9-12l-0.3-.9c-4.5,1.4-6.7,5.7-7.8,9.2a13.83,13.83,0,0,0-3-9.9l-0.8.6a12.49,12.49,0,0,1,2.7,10.1l-0.9,1.1c-1.1,1.4-2.1,2.4-2.9,3.3a27.16,27.16,0,0,0-3.1,3.8c-0.3-2.4-1.5-5.6-6.3-8.8l-0.6,1.2c5.4,3.6,6,7.2,5.9,9.4-0.2.4-.5,0.8-0.7,1.3a6.68,6.68,0,0,0-.2,4.8c-3-1.8-4.7,0-5.4.9-2.2,3.1-2.2,10.8-.3,14.1a4.47,4.47,0,0,0-1.6,1.3c-2.2,3.1-2.2,10.8-.3,14.1a4.47,4.47,0,0,0-1.6,1.3c-2.2,3.1-2.2,10.7-.4,14a7.93,7.93,0,0,0-3.4,6.2,13.79,13.79,0,0,0,7.2,14l-2,17.2c-8.3-.6-17.5-0.9-26.2-1v-18.9a14,14,0,0,0,9.9-13.9c-0.2-2.7-1.2-4.8-2.8-5.9,2.3-3,3.4-10.1,1.6-13.6a5.66,5.66,0,0,0-1.7-1.9c2.4-3,3.5-10.2,1.7-13.7a5.66,5.66,0,0,0-1.7-1.9c2.4-3,3.5-10.2,1.7-13.7-0.5-1.1-2.1-3.3-5.6-1.9a5.44,5.44,0,0,0,.3-4.5,25.59,25.59,0,0,0-1.6-3.3,12.57,12.57,0,0,1,6.5-8.9l-0.5-.8a13.34,13.34,0,0,0-6.8,8.6c-0.6-.9-1.2-1.7-2-2.7s-1.7-2.1-2.7-3.6l-0.1-.2h0.1a12.69,12.69,0,0,1,3.3-11.8l-0.7-.7a13.85,13.85,0,0,0-3.9,9.6c-0.8-3.6-2.6-8.1-6.9-9.9l-0.4.9c5.4,2.1,6.5,9.3,6.8,12.5-1.1,1.9-2,3.2-2.8,4.4a25,25,0,0,0-2.5,4c-1.1-3.5-3.8-9.2-9.3-10.3l-0.2.9c5.6,1.1,8,7.5,8.9,10.6a6.89,6.89,0,0,0-.3.8,5.41,5.41,0,0,0-.3,2.8c-0.6-1.4-2.2-3.4-6-5.7l-0.5.8c5.3,3.3,5.9,5.7,6,6.4a4,4,0,0,0-4.7,2.3c-1.7,3.5-.6,10.7,1.7,13.7a4.18,4.18,0,0,0-1.7,1.9c-1.7,3.5-.6,10.7,1.7,13.7a4.18,4.18,0,0,0-1.7,1.9c-1.7,3.5-.7,10.5,1.5,13.5-1.4,1.1-2.2,3-2.3,5.5-0.1,4.8,2.8,11.6,9.3,14.1v19c-8.8,0-17.4.3-25.4,0.7l-2.1-16.7a13.86,13.86,0,0,0,7.4-14.1,8.61,8.61,0,0,0-3.4-6.2c1.8-3.4,1.8-11-.4-14a3.63,3.63,0,0,0-1.6-1.3c1.9-3.3,1.9-11-.3-14.1a3.63,3.63,0,0,0-1.6-1.3c1.9-3.3,1.9-11-.3-14.1-0.6-.9-2.3-2.6-5.1-1a6.4,6.4,0,0,0-.2-4.7c-0.5-.9-0.9-1.6-1.3-2.3a12.43,12.43,0,0,1,4.6-10.2l-0.6-.7a13.87,13.87,0,0,0-4.9,9.5c-0.8-1.1-1.6-1.9-2.5-3-0.8-.9-1.8-1.9-2.9-3.3l-0.3-.4a12.63,12.63,0,0,1,.8-12l-0.8-.5a13.52,13.52,0,0,0-1.8,10.2c-1.5-3.4-4.2-7.4-8.8-8.2l-0.2.9c5.8,1,8.4,7.9,9.3,10.9-0.7,1.9-1.4,3.2-1.9,4.4a29.14,29.14,0,0,0-2,4.9c-1.8-3.2-5.5-8.1-11-8.1h-0.2v1h0.2c5.5,0,9.1,5.6,10.7,8.5v0.1a6.36,6.36,0,0,0,1,4.7c-0.1,0-.3-0.1-0.4-0.1-0.7-1.2-2.6-3.1-7.4-4.8l-0.3.9c3.7,1.3,5.5,2.7,6.4,3.7a3.69,3.69,0,0,0-3.4,2.5c-1.4,3.5.5,11,3.1,13.8a3.57,3.57,0,0,0-1.2,1.7c-1.4,3.5.5,11,3.1,13.8a3.57,3.57,0,0,0-1.2,1.7c-1.3,3.5.4,10.7,2.9,13.6-0.1.2-.3,0.3-0.4,0.5a7,7,0,0,0-1,4c0,5.1,3.6,12.2,10.2,14.1l2,16.4c-7.2.6-14,1.3-20,2.1l-1.5-4.5a14.46,14.46,0,0,0,4.5-14.4c-0.8-3.3-2.5-5.6-4.6-6.3,1-3.7-.2-11.2-3.1-13.7a3,3,0,0,0-1.6-.8c1.1-3.6-.1-11.3-3.1-13.9a3,3,0,0,0-1.6-.8c1.1-3.6-.1-11.3-3.1-13.9-0.8-.7-2.7-1.9-5.1.4a6.12,6.12,0,0,0-1.1-4.5c-0.3-.4-0.6-0.7-0.8-1a12.45,12.45,0,0,1,3.7-10.6l-0.7-.7a13.6,13.6,0,0,0-4,10.1,39,39,0,0,0-3.8-3.3c-0.9-.7-2-1.5-3.3-2.6l-1-.8a12.61,12.61,0,0,1,.5-10.7l-0.9-.4a13.29,13.29,0,0,0-.9,10.3c-1.8-3.2-4.8-7-9.5-7.4l-0.1,1c5.8,0.5,9,7,10.1,9.9-0.3,1.7-.6,3-0.9,4.1a24.35,24.35,0,0,0-.9,5.2c-3.3-5.3-7.6-7.9-12.3-7.4l0.1,0.9c0.4,0,.8-0.1,1.1-0.1,5.3,0,8.8,4.3,10.9,8.2a6.83,6.83,0,0,0,1.6,4h-0.2c-0.6-1.1-2.4-3.1-8.1-4.6l-0.2.9c4.9,1.3,6.7,2.9,7.3,3.9a3.43,3.43,0,0,0-2.6,3.1c-0.6,3.8,2.5,10.6,5.5,12.8a4,4,0,0,0-.8,2c-0.6,3.7,2.5,10.6,5.5,12.8a4,4,0,0,0-.8,2,7.67,7.67,0,0,0,.1,2.6c-4-.9-12.3-1.5-17.5,1.4a9.07,9.07,0,0,0-4.8,8.2c0,11.4,10.4,24.9,12.9,28a4.51,4.51,0,0,0-.7,2.5c0.2,3.9.5,7.7,0.8,11.3a0.6,0.6,0,0,0-.1.4,2.66,2.66,0,0,0,.3,1.2c0.6,6.4,1.5,12.3,2.5,17.7a4.25,4.25,0,0,0,.2,1.1,177.74,177.74,0,0,0,4.6,19.3,9.29,9.29,0,0,0,.4,1.3,136,136,0,0,0,8.3,21.2,0.76,0.76,0,0,0,.2.4,74.07,74.07,0,0,0,6.7,11.1c6.1,8,13.4,17.7,44.3,20.8h0.4c5.2,0.5,11,.9,17.5,1a2.2,2.2,0,0,1,.8.1h9.7c38.6-.5,50.2-6.6,60.1-14,9.1-6.8,20.1-34.1,25.5-80.6a1.7,1.7,0,0,0,.1-0.7c0.4-3.7.8-7.4,1.1-11.3a4.19,4.19,0,0,0-1.4-2.9c2.8-3.5,12.7-16.7,12.7-27.7a8.69,8.69,0,0,0-2.8-6.8c-3.6-3.4-9.7-3.8-13.6-3.6a6,6,0,0,0,0-1.9,4.45,4.45,0,0,0-.8-2c2.9-2.2,6.1-9,5.5-12.8a4.45,4.45,0,0,0-.8-2c2.9-2.1,6.1-9,5.5-12.8a3.77,3.77,0,0,0-2.4-3.1c1-.9,3-2,6.9-2.7l-0.2-.9c-4.7.9-6.9,2.4-7.9,3.4h-0.5a6.64,6.64,0,0,0,1.7-3.9c2-2.6,6.4-7.3,11.8-6.3l0.2-.9c-5.7-1.3-10,2.6-12.4,5.4h0Zm-5.8-7.3c0.6-.5,1.3-1,2.1-1.6,0.3,1.6.6,2.8,0.9,3.9a25.16,25.16,0,0,1,1,6.3c0.1,2.6-3.3,4.7-3.3,4.7a14.78,14.78,0,0,0-3.8,1.5,12.94,12.94,0,0,0-2.2-3.7h0.1c-0.4-1.1-1.3-4.3,0-6a20.73,20.73,0,0,1,5.2-5.1h0Zm-20.8,38.9c0.4-.3,1.3-1.1,2.9.8,4,4.4,3.9,6.3,3.9,6.3l1.8,0.7s0.9-1.6,6.6-2.5c2.2-.4,2.6.6,2.8,1.6,0.6,3.4-2.7,9.6-4.7,10.9a4.41,4.41,0,0,0-2.6-.7,11.44,11.44,0,0,0-6.4,1.5c-0.4-1.5-1.6-3.4-4.4-5.5a5,5,0,0,0-2.4-1c-0.9-2.4,0-9.9,2.5-12.1h0Zm0.5,41.6c15.9,3.4,17.2,6.9,17.2,7.9,0,3.1-8.2,6.3-22.3,8.9Zm0.5-1.8,1.3-4.1c7.8-.1,13-8.2,13-13.6a5.43,5.43,0,0,0-.7-2.9l0.2-.2c5.5-1.3,9.3-.2,10.8,1.4,1.8,2-4.5,13.6-11.4,23.4a66.09,66.09,0,0,0-13.2-4h0Zm-8.1-20.8c0.7-3,2.4-5.1,4.2-5.1a2.51,2.51,0,0,1,1.7.7c4.3,3.2,3.9,5.6,3.8,5.9l-0.1.3,1.9,0.4c0.1-.2,1.1-2.2,6.4-2.2,1.8,0,2.7,1,2.7,3.1,0,4.7-4.7,11.7-11.3,11.7a7.66,7.66,0,0,1-2.7-.4,12.44,12.44,0,0,1-6.6-14.4h0Zm5.8,16.1a10.46,10.46,0,0,0,1.7.4l-7.1,23.2c-1.4.2-2.8,0.4-4.2,0.7l8.2-25.1a5.77,5.77,0,0,0,1.4.8h0Zm-5.5,5.2-6.3,19.4c-5,.7-10.4,1.3-16.3,1.8l2.9-23.7c8.1,0.7,15,1.7,19.7,2.5h0Zm-13.4-98.4c0.6-.6,1.2-1.3,1.9-2.1,0.6,1.5,1.1,2.6,1.6,3.6a23.83,23.83,0,0,1,2.2,6c0.6,2.6-2.5,5.4-2.5,5.4l0.1,0.1a13.87,13.87,0,0,0-3.8,2.4,14.52,14.52,0,0,0-3.1-3.2l0.2-.1s-2.4-3.5-1.1-5.9a24.23,24.23,0,0,1,4.5-6.2h0Zm-10.1,12.1c0.5-.7,1.4-1.4,3.3-0.1,4.9,3.4,5.2,5.3,5.2,5.3l1.9,0.3s0.6-1.7,6.3-3.9c2.2-.8,2.9,0,3.2.9,1.4,3.5-1.4,11.5-3.2,12.2l0.1,0.1a6.59,6.59,0,0,0-2.6.4c-3.4,1.3-5.3,2.5-6.3,3.5-0.7-1.2-2.3-2.8-5.3-4.9a8.26,8.26,0,0,0-2.4-1.1l0.1-.1c-1.7-1.1-2.5-9.5-.3-12.6h0Zm-1.9,15.5c0.5-.7,1.4-1.4,3.3-0.1,4.9,3.4,5.2,5.3,5.2,5.3l1.9,0.3s0.6-1.8,6.3-3.9c2.2-.8,2.9,0,3.2.9,1.4,3.5-1.4,11.5-3.2,12.2l0.1,0.1a5.4,5.4,0,0,0-2.6.5c-3.4,1.3-5.3,2.5-6.3,3.5a19.91,19.91,0,0,0-5.3-4.9,6.25,6.25,0,0,0-2.4-1.1l0.1-.1c-1.7-1.2-2.5-9.7-.3-12.7h0Zm-1.9,15.4c0.5-.7,1.4-1.4,3.3-0.1,4.9,3.4,5.2,5.3,5.2,5.3l1.9,0.3s0.6-1.8,6.3-3.9c2.2-.8,2.9,0,3.2.9,1.2,3.2-1,10.1-2.7,11.8a5.19,5.19,0,0,0-2.8-.1c-3.3.7-5.2,1.8-6.3,2.9-0.7-1.4-2.3-3-5.6-4.4a4.89,4.89,0,0,0-2.6-.4c-1.3-2-1.9-9.4.1-12.3h0Zm-3.4,19.4c0.3-2.6,1.6-5.2,3.8-5.2a3.93,3.93,0,0,1,1.4.3c5,2.2,5.1,4.5,5,4.9v0.3l0.9,0.1h0.9c0-.2.6-2.4,6.1-3.6a2.77,2.77,0,0,1,.9-0.1c2.4,0,2.6,2.8,2.6,4,0,4.7-3.4,11.2-9.6,12.5h-0.2a12.31,12.31,0,0,1-2,.2h-0.6a12.23,12.23,0,0,1-9.2-13.4h0Zm9.1,15.2h0.9a4.87,4.87,0,0,0,1.2-.1l-5.1,42.1-4,.3,5-43a11.77,11.77,0,0,0,2,.7h0Zm-6,17.6-2.9,24.8c-7.2.4-14.9,0.7-23.1,0.8v-26.7c8.6,0.2,17.7.6,26,1.1h0Zm-32.5-97.7c0.7-1,1.5-2.1,2.4-3.6,0.7,1,1.3,1.8,1.9,2.5a21.65,21.65,0,0,1,4,6.7c0.8,2-1.1,4.6-2,5.6a16.43,16.43,0,0,0-3.9,3,16.78,16.78,0,0,0-3.7-2.9s-3-3.2-2-5.6A26,26,0,0,1,4989.27,4276.28Zm-4.8,9.1c0.1,0.1.1,0.3,0.2,0.4a0.2,0.2,0,0,1-.2-0.1v-0.3Zm-3.9,3.2c0.4-.9,1.3-2,3.9-0.8,5.7,2.8,6.3,4.5,6.3,4.5l1.9,0.1s0.5-1.8,6.4-4.7c2.6-1.2,3.5-.2,3.9.7,1.7,3.5-.3,11.3-2.1,12.3l0.1,0.1a5.73,5.73,0,0,0-2.8.8,20.8,20.8,0,0,0-6.5,4.4c-0.9-1.1-2.8-2.6-6.4-4.3a6.74,6.74,0,0,0-2.8-.7l0.1-.1c-1.8-1-3.7-8.9-2-12.3h0Zm-0.1,15.6c0.4-.9,1.3-2,3.9-0.8,5.7,2.8,6.3,4.5,6.3,4.5l1.9,0.1s0.5-1.8,6.4-4.7c2.6-1.3,3.4-.2,3.9.7,1.7,3.5-.3,11.3-2.1,12.2l0.1,0.1a5.73,5.73,0,0,0-2.8.8,20.8,20.8,0,0,0-6.5,4.4c-0.9-1.1-2.8-2.6-6.5-4.3a6.71,6.71,0,0,0-2.7-.7l0.1-.2c-1.8-.9-3.7-8.7-2-12.1h0Zm0,15.5c0.4-.9,1.3-2,3.9-0.8,5.7,2.8,6.3,4.5,6.3,4.5l1.9,0.1s0.5-1.8,6.4-4.7c2.5-1.2,3.5-.2,3.9.7,1.6,3.2,0,10.2-1.7,12a5.74,5.74,0,0,0-2.9.1c-3.9,1-5.8,2.5-6.7,3.8-1-1.2-2.9-2.6-6.5-3.8a5.24,5.24,0,0,0-3-.2c-1.7-1.7-3.2-8.5-1.6-11.7h0Zm-0.6,18.3c0.1-2.3.9-4.7,3.2-4.7a7.84,7.84,0,0,1,1.4.2c5.8,1.9,6.2,4.1,6.2,4.3v0.3l0.9-.1,1-.1c0-.3.3-2.8,6.2-4.4a5,5,0,0,1,1.2-.2c2.7,0,3.8,2.7,3.9,5.1,0.3,4.5-2.7,11.6-12,12.7-8.4-.5-12.1-8.1-12-13.1h0Zm12,15h0.2c0.7-.1,1.3-0.2,1.9-0.3l-0.1,47.1h-4.7l0.1-47.2A9.47,9.47,0,0,0,4991.87,4353Zm-4.6,20v26.8c-7.7,0-15.1-.2-22-0.6l-3.1-25.5c7.9-.4,16.3-0.7,25.1-0.7h0Zm-44.9-86.7a33.49,33.49,0,0,1,2.2-6c0.5-1,1-2.1,1.6-3.6,0.7,0.8,1.3,1.5,1.9,2.1a24.23,24.23,0,0,1,4.5,6.2c1.2,2.4-1.1,5.8-1.1,5.9l0.1,0.1a22.73,22.73,0,0,0-3.2,3.3,14.67,14.67,0,0,0-3.7-2.4l0.2-.2S4941.77,4288.88,4942.37,4286.28Zm-4.1,7.1c0.3-.9,1-1.7,3.2-0.9,5.6,2.1,6.3,3.8,6.3,3.8l1.9-.1s0.2-1.9,5.2-5.3c1.9-1.4,2.8-.7,3.3.1,2.2,3,1.4,11.5-.2,12.6l0.1,0.1a5,5,0,0,0-2.4,1.1,21.73,21.73,0,0,0-5.3,4.9c-1-1-2.9-2.2-6.3-3.5a5.17,5.17,0,0,0-2.6-.4l0.1-.1c-1.9-.8-4.7-8.8-3.3-12.3h0Zm1.8,15.5c0.3-.9,1-1.7,3.2-0.9,5.6,2.1,6.3,3.8,6.3,3.8l1.9-.1s0.2-1.8,5.2-5.3c1.9-1.4,2.8-.7,3.3.1,2.2,3,1.4,11.5-.2,12.6l0.1,0.1a5,5,0,0,0-2.4,1.1,19.92,19.92,0,0,0-5.3,4.9c-1-1-2.9-2.2-6.3-3.5a6.94,6.94,0,0,0-2.6-.5l0.1-.1C4941.57,4320.38,4938.77,4312.38,4940.07,4308.88Zm1.9,15.4c0.3-.9,1-1.7,3.2-0.9,5.6,2.1,6.3,3.8,6.3,3.8l1.9-.1s0.2-1.9,5.2-5.3c1.9-1.4,2.8-.7,3.3.1,2,2.8,1.5,10.3.1,12.3a4.89,4.89,0,0,0-2.6.4,11.31,11.31,0,0,0-5.6,4.4c-1.1-1.1-2.9-2.2-6.3-2.9a5.25,5.25,0,0,0-2.8.1C4942.87,4334.38,4940.77,4327.48,4942,4324.28Zm1.6,17.5a6,6,0,0,1,.7-3,2.06,2.06,0,0,1,1.9-1,2.77,2.77,0,0,1,.9.1c5.5,1.2,6.1,3.4,6.1,3.5v0.3l1.9-.5c0-.5,0-2.8,5-5a3.53,3.53,0,0,1,1.4-.3c2.2,0,3.5,2.6,3.8,5.2a12,12,0,0,1-9.2,13.3C4948.07,4355,4943.57,4347.08,4943.57,4341.78Zm11.7,14.6a4.91,4.91,0,0,0,1.1-.1,9.83,9.83,0,0,0,1.6-.5l5.3,43.2c-1.4-.1-2.8-0.2-4.2-0.2l-5.2-42.6A3.18,3.18,0,0,0,4955.27,4356.38Zm-1.2,17.8,3,24.5c-5.5-.4-10.6-0.8-15.4-1.4l-7.2-21.1C4940.37,4375.38,4947,4374.78,4954.07,4374.18Zm-14.5,22.9-4.7-.6-7.6-24.1a8.35,8.35,0,0,0,2-.5c0.5-.3,1-0.5,1.4-0.8Zm-14.3-24.6,1,3.1c-7.6,1.4-13.5,2.9-17.4,4.6-5.2-7.3-12.9-19.4-12-22.4a0.77,0.77,0,0,1,.2-0.3l0.7-.3c4.1-1.6,5.7-2.3,14.8.6a3.75,3.75,0,0,0-.1,1.1c0,5.4,5.1,13.4,12.8,13.6h0Zm1.6,5,5.9,18.7c-17.8-2.6-28.4-6.3-28.4-9.8,0-2.4,5.9-6,22.5-8.9h0Zm8-21.6a12.5,12.5,0,0,1-6.4,14.3,9.67,9.67,0,0,1-2.9.4c-6.5,0-11.3-7-11.3-11.7a3.17,3.17,0,0,1,.7-2.3,2.48,2.48,0,0,1,2-.8c5.3,0,6.3,2,6.3,2.1l0.1,0.3,1.7-.8c-0.1-.4-0.5-2.8,3.8-6C4931.37,4349.78,4934,4352,4934.87,4355.88Zm-31.1-55.7c0.3-1.1.6-2.3,0.9-3.9,0.8,0.6,1.5,1.1,2.1,1.6a21,21,0,0,1,5.3,5.1c1.3,1.7.5,4.9,0,6l0.2,0.1a13.41,13.41,0,0,0-2.1,3.7,14.35,14.35,0,0,0-4.1-1.6c-0.4-.3-3.4-2.3-3.3-4.7a25.16,25.16,0,0,1,1-6.3h0Zm-3.3,14.1c0.2-1,.6-1.9,2.8-1.6,5.6,0.9,6.5,2.4,6.5,2.4l1.8-.5s-0.2-1.9,3.9-6.4c1.7-1.9,2.6-1.1,2.9-.8,2.7,2.4,3.6,11,2.2,12.5l0.1,0.1a6.45,6.45,0,0,0-2.1,1.6,20.51,20.51,0,0,0-4,5.9,17,17,0,0,0-6.5-2,5.11,5.11,0,0,0-2.5.1v-0.1C4904,4325.18,4899.87,4318,4900.47,4314.28Zm4.7,14.7c0.2-1,.6-1.9,2.8-1.6,5.6,0.9,6.5,2.4,6.5,2.4l1.8-.5s-0.2-1.9,3.9-6.4c1.7-1.9,2.6-1.1,2.9-.8,2.7,2.3,3.6,11,2.2,12.5l0.1,0.1a6.45,6.45,0,0,0-2.1,1.6,20.51,20.51,0,0,0-4,5.9,17,17,0,0,0-6.5-2,5.11,5.11,0,0,0-2.5.1v-0.1C4908.57,4339.88,4904.47,4332.68,4905.17,4329Zm4.6,14.7c0.2-1,.6-1.9,2.8-1.6,5.6,0.9,6.5,2.4,6.5,2.4l1.8-.5s-0.2-1.9,3.9-6.4c1.7-1.9,2.6-1.1,2.9-.8,2.5,2.2,3.4,9.8,2.5,12.1a5,5,0,0,0-2.4,1c-2.8,2.1-4,4-4.4,5.5a11.44,11.44,0,0,0-6.4-1.5,4.73,4.73,0,0,0-2.6.7c-1.4-1-3.6-4.6-4.4-7.8l0.1-.1a0.1,0.1,0,0,1-.1-0.1,9.68,9.68,0,0,1-.2-2.9h0Zm161.2,95.5-0.3.3c-1.3,1.9-4.5,4.1-9.5,6.2,1.3-5.6,2.5-11.9,3.5-18.7a44.08,44.08,0,0,0,10-5.5C5073.57,4427.88,5072.27,4433.78,5071,4439.18Zm-5.5,17.9-0.2.2c-1.4,2.2-4.8,4.6-9.8,7.1a140.84,140.84,0,0,0,5.2-16.5,36.7,36.7,0,0,0,9.3-5.1A135.66,135.66,0,0,1,5065.47,4457.08Zm-31.6,30a114.1,114.1,0,0,1-15.6,2.8c7-3,11.7-7.7,15.1-16.3a118.93,118.93,0,0,0,18.5-5.5c-4.8,10-10.6,16.2-17.8,18.9C5034,4487,5033.87,4487,5033.87,4487.08Zm0.3-15.7a101.07,101.07,0,0,0,4-17.1,123.9,123.9,0,0,0,20.4-5.6,118.39,118.39,0,0,1-5.5,16.8,118.52,118.52,0,0,1-18.9,5.9h0Zm-117.5-12.4a138.68,138.68,0,0,1-7-17c2.6,2.1,6.7,4.2,11.8,6.2a133.12,133.12,0,0,0,5.6,17.5C4922,4463.48,4918.47,4461.08,4916.67,4459Zm-8.6-22.2a1.07,1.07,0,0,0-.2-0.6c-1.3-4.5-2.6-9.5-3.7-15,2.9,2.4,7.6,4.8,13,6.8,1.1,6,2.4,12,3.8,17.9-7.1-2.9-11.4-5.8-12.6-8-0.1-.3-0.2-0.7-0.3-1.1h0Zm128.3,15.9a231.84,231.84,0,0,1-28.4,3.5c0.3-5.1.5-10.8,0.6-17.4a242,242,0,0,0,30-4.1c-0.7,6.8-1.4,12.8-2.2,18h0Zm4.2-18.5a150.87,150.87,0,0,0,22.1-6.4c-1.1,6.9-2.3,13.1-3.6,18.7a117.92,117.92,0,0,1-20.6,5.7q1-7.8,2.1-18h0Zm-34.5,22.1c-5.3.3-10.8,0.5-16.5,0.5q-9.3,0-17.7-.6c-0.5-5-.9-10.8-1.3-17.4,5.9,0.4,12.2.7,19,.7q8.85,0,17.1-.6Q5006.52,4448.78,5006.07,4456.28Zm-36.1-.3a211,211,0,0,1-25.8-3.4c-0.9-5.1-1.6-11-2.3-17.6a216.24,216.24,0,0,0,26.9,3.7c0.3,6.5.7,12.3,1.2,17.3h0Zm-27.8-3.8a124.27,124.27,0,0,1-19-5.4c-1.5-5.8-2.7-11.9-3.9-17.9,2.6,0.9,5.4,1.8,8.1,2.6,3.2,0.9,7.4,2,12.5,3.1,0.7,6.6,1.5,12.4,2.3,17.6h0Zm-18.4-3.1a142.7,142.7,0,0,0,18.8,5.1,112.12,112.12,0,0,0,4.3,17.7,116.18,116.18,0,0,1-17.1-5,109.27,109.27,0,0,1-6-17.8h0Zm20.7,5.5a220.2,220.2,0,0,0,25.7,3.4c0.7,7.1,1.6,12.8,2.5,17.4a195.3,195.3,0,0,1-23.7-3A108.74,108.74,0,0,1,4944.47,4454.58Zm27.6,3.5c5.6,0.4,11.4.6,17.5,0.6,5.7,0,11.2-.2,16.4-0.5a163.67,163.67,0,0,1-1.8,17.2c-4.6.3-9.5,0.4-14.6,0.4s-10.2-.2-14.9-0.4c-0.9-4.4-1.8-10.1-2.6-17.3h0Zm35.8,0a253.72,253.72,0,0,0,28.2-3.4,94,94,0,0,1-4.2,17.2,189.83,189.83,0,0,1-25.8,3.5c0.7-4.6,1.4-10.2,1.8-17.3h0Zm67.4-39.9c-1.6,2-5.1,4.3-10.2,6.6q1.2-7.95,2.1-17.1c4.8-2,8.4-4,10.6-5.9-0.8,5.7-1.6,11.2-2.5,16.4h0Zm-12.3,7.4a133.22,133.22,0,0,1-22.2,6.6c0.5-5.2,1-11,1.4-17.2a146.72,146.72,0,0,0,22.9-6.6c-0.6,6.2-1.3,11.9-2.1,17.2h0Zm-24.2,7a226.83,226.83,0,0,1-30.2,4.2c0.1-5.2.1-10.9,0-17.2a234.46,234.46,0,0,0,31.6-4.3c-0.4,6.4-.9,12.1-1.4,17.3h0Zm-32.1-12.8c0.1,6.3.1,12,0,17.2-5.5.4-11.3,0.6-17.1,0.6-6.6,0-13-.3-19.1-0.7-0.3-5.2-.5-11-0.7-17.2,6.4,0.5,13,.7,19.8.7C4995.37,4420.38,5001.17,4420.18,5006.67,4419.78Zm-38.8-.3c0.2,6.3.4,12,.7,17.2a237.28,237.28,0,0,1-27-3.8c-0.5-5.2-1-10.9-1.5-17.2A263.37,263.37,0,0,0,4967.87,4419.48Zm-29.7-4.2c0.5,6.2,1,11.9,1.5,17.2a145.3,145.3,0,0,1-20.8-5.9c-0.7-3.6-1.3-7.2-2-10.8l-1.2-6.6a146.35,146.35,0,0,0,22.5,6.1h0Zm-24.6-6.8c0.5,2.5.9,5.1,1.4,7.7,0.6,3.2,1.1,6.4,1.7,9.6-7.8-3.1-12.5-6.1-13.3-8.3-0.9-4.8-1.7-10.1-2.3-15.6,2.5,2.1,6.8,4.4,12.5,6.6h0Zm9.7,61.5a53.65,53.65,0,0,1-4.2-6.4,50.81,50.81,0,0,0,9.1,4.7c2.7,6,5.9,11.1,9.8,14.9C4930.37,4479.38,4926.77,4474.58,4923.27,4470Zm20.5,15.7a1,1,0,0,0-.4-0.5c-5.2-3.4-9.3-8.9-12.6-15.8a119.11,119.11,0,0,0,16.7,4.6c3.1,8.2,7,12.7,11.9,15.5a96.4,96.4,0,0,1-15.6-3.8h0Zm22.9,4.5c-7.3-2.1-12.7-5.9-16.9-15.9a207.58,207.58,0,0,0,23.4,2.9c1.8,7.7,3.9,11.7,6.1,13.8C4974.67,4490.88,4970.47,4490.58,4966.67,4490.18Zm17.5,1c-3.1-.3-6.4-2.6-9.1-13.8,4.6,0.3,9.4.4,14.5,0.4s9.7-.1,14.2-0.4c-2.5,12.8-6.2,13.5-9.6,13.8h-10Zm21.5-13.9a188.16,188.16,0,0,0,25.3-3.3c-4.4,10.6-10.8,13.9-20.7,16.5-0.1,0-.1.1-0.2,0.1-3.1.2-6.5,0.4-10.1,0.5,2.2-2,4.2-5.9,5.7-13.8h0Zm47.7,0.2a57.1,57.1,0,0,1-10.8,6.5c4.5-3.9,8.4-9.5,11.8-17a42.51,42.51,0,0,0,9.3-5.3C5060.27,4469.78,5056.67,4475.08,5053.37,4477.48Zm35-127.2a6.87,6.87,0,0,1,2.2,5.4c0,12-12.8,27.2-12.9,27.4l0.1,0.1a1.06,1.06,0,0,0,.2,1.2,3,3,0,0,1,1.4,1.9c-0.4,4-.8,8-1.2,11.7-1.1,6.3-38.1,20.4-88.6,20.4-48.3,0-85.7-13.4-88.8-19.8-0.4-4-.7-8.2-1-12.6a2.35,2.35,0,0,1,.5-1.6,1.05,1.05,0,0,0,0-1.2l0.2-.2c-0.1-.2-12.9-15.4-12.9-27.4a7,7,0,0,1,3.8-6.6c5.2-3,14.3-1.9,17-1,1,3.1,2.9,6.4,4.7,7.9-9.8-3.1-11.8-2.3-16.1-.5l-0.7.3a2.17,2.17,0,0,0-1.3,1.5c-1.3,4.6,8.8,19.3,12.1,23.8-3.1,1.6-4.6,3.4-4.6,5.3,0,10,44.6,15.3,86.6,15.3,12.2,0,24.7-.5,36.2-1.3,0.1,0,.1.1,0.2,0.1h0.1c0.2,0,.3-0.1.5-0.1,27.7-2.2,49.7-6.9,49.7-13.9,0-1.7-1.2-3.3-3.7-4.7,4.1-5.8,14.6-21.6,11.1-25.6-1.5-1.7-4.9-3.1-10.2-2.5a20.44,20.44,0,0,0,2.8-6.4c3.1-.1,9.3.1,12.6,3.1h0Zm-14.8-10.1v0.1a5.11,5.11,0,0,0-2.5-.1,17,17,0,0,0-6.5,2,20.51,20.51,0,0,0-4-5.9,5.87,5.87,0,0,0-2.1-1.6l0.1-.1c-1.3-1.5-.4-10.2,2.2-12.5,0.4-.3,1.3-1.1,2.9.8,4,4.4,3.9,6.3,3.9,6.3l1.8,0.6s0.9-1.6,6.6-2.4c2.2-.3,2.6.6,2.8,1.6C5079.37,4332.68,5075.37,4339.88,5073.57,4340.18Zm4.6-14.7v0.1a5.18,5.18,0,0,0-2.5-.1c-3.4.5-5.4,1.3-6.5,2.1a20.51,20.51,0,0,0-4-5.9,5.87,5.87,0,0,0-2.1-1.6l0.1-.1c-1.3-1.5-.4-10.2,2.2-12.5,0.4-.3,1.3-1.1,2.9.8,4,4.4,3.9,6.3,3.9,6.3l1.8,0.6s0.9-1.5,6.6-2.4c2.2-.3,2.6.6,2.8,1.6C5084.07,4318,5080,4325.18,5078.17,4325.48Zm464.4-20.2a25.82,25.82,0,0,0-1-5.5c-0.3-1.2-.6-2.6-0.9-4.4,1.3-2.8,5-9.2,10.8-9.3v-1c-4.7.1-8,3.6-10,6.7a13.76,13.76,0,0,0-.2-10.4l-0.9.4a13,13,0,0,1-.5,11.2l-0.9.8c-1.3,1.1-2.4,1.9-3.3,2.6a23,23,0,0,0-3.4,2.8,13.62,13.62,0,0,0-3.3-10l-0.7.6a12.54,12.54,0,0,1,3,10.5,17.41,17.41,0,0,0-1.2,1.4,6.22,6.22,0,0,0-1.1,4.3c-2.3-2-4.2-.9-4.9-0.2-2.9,2.6-4.2,10.3-3.1,13.9a4.77,4.77,0,0,0-1.6.8c-2.9,2.6-4.2,10.3-3.1,13.9a4.77,4.77,0,0,0-1.6.8c-2.9,2.6-4.1,10.1-3.1,13.7-2.1.7-3.8,3-4.6,6.3a14.53,14.53,0,0,0,4.6,14.4l-1.8,5.4c-4.7-.8-11.8-1.8-20.2-2.6l2-16.8c6.8-1.8,10.5-9,10.5-14.2a6.11,6.11,0,0,0-1.5-4.5c2.5-2.9,4.3-10.1,2.9-13.6a3.57,3.57,0,0,0-1.2-1.7c2.6-2.8,4.5-10.2,3.1-13.8a3.57,3.57,0,0,0-1.2-1.7c2.6-2.8,4.5-10.2,3.1-13.7a3.54,3.54,0,0,0-3-2.4c0.5-1.1,2-3,6.3-5.1l-0.4-.9c-4.9,2.5-6.4,4.7-6.9,6a2.35,2.35,0,0,0-.8.2,6.11,6.11,0,0,0,1-4.6c1.2-3.1,4.2-9.2,9.7-9.7l-0.1-1c-5.5.6-8.6,5.7-10.1,9.1a23.91,23.91,0,0,0-2-4.8c-0.5-1-1-2.1-1.6-3.5,0.5-3.1,2.2-10.3,7.9-12l-0.3-.9c-4.5,1.4-6.7,5.7-7.7,9.2a13.83,13.83,0,0,0-3-9.9l-0.8.6a12.74,12.74,0,0,1,2.7,10l-0.9,1.2c-1.1,1.4-2.1,2.4-2.9,3.3a36.78,36.78,0,0,0-3.1,3.8c-0.3-2.4-1.5-5.6-6.3-8.8l-0.5.8c5.4,3.6,6,7.2,5.9,9.4-0.2.4-.5,0.8-0.7,1.3a6.17,6.17,0,0,0-.1,4.8c-3-1.8-4.8,0-5.4.9-2.2,3.1-2.2,10.8-.3,14.1a3.76,3.76,0,0,0-1.6,1.4c-2.2,3.1-2.2,10.8-.3,14.1a4.46,4.46,0,0,0-1.6,1.3c-2.2,3.1-2.2,10.7-.4,14-1.7,1-3,3.3-3.4,6.2a13.79,13.79,0,0,0,7.2,14l-2,17.2c-8.3-.6-17.5-0.9-26.2-1v-18.9a14,14,0,0,0,9.9-13.9c-0.2-2.7-1.2-4.8-2.8-5.9,2.3-3,3.4-10.1,1.6-13.6a4.7,4.7,0,0,0-1.7-1.8c2.4-3,3.5-10.2,1.7-13.7a4.7,4.7,0,0,0-1.7-1.8c2.4-3,3.5-10.2,1.7-13.7-0.5-1.1-2.1-3.3-5.6-1.9a5.44,5.44,0,0,0,.3-4.5,27.52,27.52,0,0,0-1.6-3.4,12.26,12.26,0,0,1,6.5-8.8l-0.5-.8a13.68,13.68,0,0,0-6.8,8.6c-0.6-.9-1.2-1.7-1.9-2.6a36.08,36.08,0,0,1-2.7-3.7l-0.1-.2h0.1a12.69,12.69,0,0,1,3.3-11.8l-0.7-.7a13.85,13.85,0,0,0-3.9,9.6c-0.8-3.6-2.6-8.2-6.9-9.9l-0.4.9c5.4,2.1,6.5,9.3,6.8,12.5-1.1,1.9-2,3.2-2.8,4.4a29.08,29.08,0,0,0-2.5,3.9c-1.1-3.5-3.8-9.2-9.3-10.3l-0.2.9c5.5,1.1,8,7.5,8.9,10.6a6.89,6.89,0,0,0-.3.8,5.14,5.14,0,0,0-.3,2.7c-0.6-1.4-2.2-3.4-6-5.7l-0.5.8c5.3,3.3,5.9,5.7,6,6.4a4,4,0,0,0-4.7,2.3c-1.7,3.5-.7,10.7,1.7,13.7a4.18,4.18,0,0,0-1.7,1.9c-1.7,3.5-.6,10.7,1.7,13.7a4.86,4.86,0,0,0-1.7,1.9c-1.7,3.5-.7,10.5,1.5,13.5-1.4,1.1-2.2,3-2.3,5.5-0.1,4.8,2.8,11.6,9.3,14.1v19c-8.8,0-17.4.3-25.4,0.7l-2.1-16.7a13.86,13.86,0,0,0,7.4-14.1,8.61,8.61,0,0,0-3.4-6.2c1.8-3.4,1.8-11-.3-14a3.63,3.63,0,0,0-1.6-1.3c1.9-3.3,1.9-11-.3-14.1a3.92,3.92,0,0,0-1.5-1.3c1.9-3.3,1.9-11-.3-14.1-0.6-.9-2.3-2.5-5.1-1a6.4,6.4,0,0,0-.2-4.7c-0.5-.9-0.9-1.6-1.3-2.3a12.43,12.43,0,0,1,4.6-10.2l-0.6-.7a13.87,13.87,0,0,0-4.9,9.5c-0.8-1-1.6-1.9-2.5-3-0.8-.9-1.8-1.9-2.9-3.3l-0.3-.4a12.66,12.66,0,0,1,.8-12l-0.8-.5a13.08,13.08,0,0,0-1.8,10.2c-1.5-3.4-4.2-7.4-8.8-8.2l-0.2.9c5.8,1,8.4,7.9,9.3,10.9-0.7,1.9-1.4,3.2-1.9,4.4a29.14,29.14,0,0,0-2,4.9c-1.8-3.2-5.5-8.1-11-8.1h-0.2v1h0.2c5.5,0,9.1,5.6,10.7,8.5v0.1a6.36,6.36,0,0,0,1,4.7c-0.1,0-.3-0.1-0.4-0.1-0.7-1.2-2.6-3.1-7.4-4.8l-0.3.9c3.7,1.3,5.5,2.7,6.4,3.8a3.76,3.76,0,0,0-3.4,2.4c-1.4,3.5.5,11,3.1,13.7a3.57,3.57,0,0,0-1.2,1.7c-1.4,3.5.5,11,3.1,13.8a3.57,3.57,0,0,0-1.2,1.7c-1.4,3.5.4,10.7,2.9,13.6-0.1.2-.3,0.3-0.4,0.5a7,7,0,0,0-1,4c0,5.1,3.6,12.3,10.2,14.1l2,16.4c-7.2.6-14,1.3-20,2.1l-1.5-4.5a14.67,14.67,0,0,0,4.5-14.4c-0.8-3.3-2.5-5.6-4.6-6.3,1-3.7-.2-11.2-3.1-13.7a3,3,0,0,0-1.6-.8c1.1-3.6-.1-11.3-3.1-13.9a3,3,0,0,0-1.6-.8c1.1-3.6-.1-11.3-3.1-13.9-0.8-.7-2.7-1.9-5.1.4a6.55,6.55,0,0,0-1-4.5c-0.3-.4-0.6-0.7-0.8-1a12.62,12.62,0,0,1,3.6-10.6l-0.7-.7a13.6,13.6,0,0,0-4,10.1,39,39,0,0,0-3.8-3.3c-0.9-.7-2-1.5-3.3-2.6l-1-.8a13,13,0,0,1,.5-10.7l-0.9-.4a13.29,13.29,0,0,0-.9,10.3c-1.8-3.2-4.8-7.1-9.5-7.5l-0.1,1c5.8,0.5,9,7,10.1,10-0.3,1.7-.6,3-0.9,4.1a24.35,24.35,0,0,0-.9,5.2c-3.3-5.3-7.5-7.9-12.3-7.4l0.1,0.9c5.9-.6,9.8,3.9,12.1,8.2a6.83,6.83,0,0,0,1.6,4h-0.2c-0.6-1.1-2.4-3.1-8.1-4.6l-0.3.9c4.9,1.3,6.7,2.9,7.3,3.9a3.43,3.43,0,0,0-2.6,3.1c-0.6,3.8,2.5,10.6,5.5,12.8a4.06,4.06,0,0,0-.8,1.9c-0.6,3.8,2.5,10.6,5.5,12.8a4,4,0,0,0-.8,2,7.68,7.68,0,0,0,.1,2.6c-4-.9-12.3-1.5-17.5,1.4a9.07,9.07,0,0,0-4.8,8.2c0,11.4,10.4,24.9,12.9,28a4.51,4.51,0,0,0-.7,2.5c0.2,3.9.5,7.7,0.8,11.3a0.6,0.6,0,0,0-.1.4,2.66,2.66,0,0,0,.3,1.2c0.6,6.4,1.5,12.3,2.5,17.7a3.59,3.59,0,0,0,.2,1.1,177.74,177.74,0,0,0,4.6,19.3,6.47,6.47,0,0,0,.4,1.3,140.17,140.17,0,0,0,8.3,21.2,0.76,0.76,0,0,0,.2.4,74.07,74.07,0,0,0,6.7,11.1c6.1,8,13.4,17.7,44.3,20.8h0.4c5.2,0.5,11,.9,17.5,1a2.2,2.2,0,0,1,.8.1h9.7c38.7-.5,50.2-6.6,60.1-14,9.1-6.8,20.1-34.1,25.5-80.6a1.7,1.7,0,0,0,.1-0.7c0.4-3.7.8-7.4,1.1-11.3a4.19,4.19,0,0,0-1.4-2.9c2.8-3.5,12.7-16.7,12.7-27.7a8.69,8.69,0,0,0-2.8-6.8c-3.6-3.4-9.7-3.8-13.6-3.6a6,6,0,0,0,0-1.9,4.45,4.45,0,0,0-.8-2c2.9-2.2,6.1-9,5.5-12.8a4.45,4.45,0,0,0-.8-2c2.9-2.2,6.1-9,5.5-12.8a3.77,3.77,0,0,0-2.4-3.1c1-.9,3-2,6.9-2.7l-0.2-.9c-4.7.9-6.9,2.4-7.9,3.4h-0.5a6.64,6.64,0,0,0,1.7-3.9c2-2.6,6.5-7.3,11.8-6.3l0.2-.9c-6.2-.9-10.5,3-12.9,5.8h0Zm-5.8-7.3c0.6-.5,1.3-1,2.1-1.6,0.3,1.6.6,2.8,0.9,3.9a25.16,25.16,0,0,1,1,6.3c0.1,2.6-3.3,4.7-3.3,4.7a14.78,14.78,0,0,0-3.8,1.5,12.94,12.94,0,0,0-2.2-3.7c-0.4-1.1-1.3-4.3,0-6a22.76,22.76,0,0,1,5.3-5.1h0Zm-20.8,38.9c0.4-.3,1.3-1.1,2.9.8,4,4.4,3.9,6.3,3.9,6.3l1.8,0.6s0.9-1.5,6.6-2.4c2.2-.3,2.6.6,2.8,1.6,0.5,3.4-2.7,9.6-4.7,10.9a4.41,4.41,0,0,0-2.6-.7,11.44,11.44,0,0,0-6.4,1.5c-0.4-1.5-1.6-3.4-4.4-5.5a5,5,0,0,0-2.4-1c-0.9-2.4,0-9.9,2.5-12.1h0Zm0.5,41.6c15.9,3.4,17.2,6.9,17.2,7.9,0,3.1-8.2,6.3-22.3,8.8l5.1-16.7h0Zm0.5-1.8,1.3-4.1c7.8-.1,13-8.2,13-13.6a5.43,5.43,0,0,0-.7-2.9l0.2-.2c5.4-1.3,9.3-.2,10.8,1.4,1.8,2-4.5,13.6-11.4,23.4a66.09,66.09,0,0,0-13.2-4h0Zm-8.1-20.8c0.7-3,2.4-5.1,4.2-5.1a2.51,2.51,0,0,1,1.7.7c4.3,3.2,3.9,5.6,3.8,5.9l-0.1.3,1.9,0.4c0.1-.2,1.1-2.2,6.4-2.2,1.8,0,2.7,1,2.7,3.1,0,4.7-4.7,11.7-11.3,11.7a7.66,7.66,0,0,1-2.7-.4,12.44,12.44,0,0,1-6.6-14.4h0Zm5.8,16.1a8.47,8.47,0,0,0,1.7.4l-7.1,23.2c-1.4.2-2.8,0.4-4.2,0.7l8.2-25.1a13.69,13.69,0,0,0,1.4.8h0Zm-5.5,5.2-6.3,19.4c-5,.7-10.4,1.3-16.4,1.8l2.9-23.7c8.2,0.7,15.1,1.7,19.8,2.5h0Zm-13.4-98.4c0.6-.6,1.2-1.3,1.9-2.1,0.6,1.5,1.1,2.6,1.6,3.6a23.84,23.84,0,0,1,2.2,6c0.6,2.6-2.5,5.4-2.5,5.4l0.1,0.1a13.87,13.87,0,0,0-3.8,2.4,14.52,14.52,0,0,0-3.1-3.2l0.2-.1s-2.4-3.5-1.1-5.9a24.23,24.23,0,0,1,4.5-6.2h0Zm-10.1,12.1c0.5-.7,1.4-1.4,3.3-0.1,4.9,3.4,5.2,5.3,5.2,5.3l1.9,0.3s0.6-1.7,6.3-3.9c2.2-.8,2.9,0,3.2.9,1.4,3.5-1.4,11.5-3.2,12.2l0.1,0.1a6.59,6.59,0,0,0-2.6.4c-3.4,1.3-5.3,2.5-6.3,3.5a19.91,19.91,0,0,0-5.3-4.9,6.25,6.25,0,0,0-2.4-1.1l0.1-.1c-1.7-1.1-2.5-9.5-.3-12.6h0Zm-1.9,15.5c0.5-.7,1.4-1.4,3.3-0.1,4.9,3.4,5.2,5.3,5.2,5.3l1.9,0.3s0.6-1.8,6.3-3.9c2.2-.9,2.9,0,3.2.9,1.4,3.5-1.4,11.5-3.2,12.2l0.1,0.1a5.4,5.4,0,0,0-2.6.5c-3.4,1.3-5.3,2.5-6.3,3.5a19.91,19.91,0,0,0-5.3-4.9,6.25,6.25,0,0,0-2.4-1.1l0.1-.1c-1.7-1.2-2.5-9.7-.3-12.7h0Zm-1.9,15.4c0.5-.7,1.4-1.4,3.3-0.1,4.9,3.4,5.2,5.3,5.2,5.3l1.9,0.3s0.6-1.8,6.3-3.9c2.2-.8,2.9,0,3.2.9,1.2,3.2-1,10.1-2.7,11.8a4.38,4.38,0,0,0-2.8-.1c-3.3.7-5.2,1.8-6.3,2.9-0.7-1.4-2.3-3-5.6-4.4a4.89,4.89,0,0,0-2.6-.4c-1.3-2-1.9-9.4.1-12.3h0Zm-3.4,19.3c0.3-2.6,1.6-5.2,3.8-5.2a3.93,3.93,0,0,1,1.4.3c5,2.2,5.1,4.5,5,4.9v0.3l0.9,0.1h0.9c0-.2.6-2.4,6.1-3.6a2.77,2.77,0,0,1,.9-0.1c2.4,0,2.6,2.8,2.6,4,0,5.2-4.2,12.7-11.7,12.7h-0.6a12.11,12.11,0,0,1-9.3-13.4h0Zm9.1,15.3h0.9a4.87,4.87,0,0,0,1.2-.1l-5.1,42.1-4,.3,5-43A11.77,11.77,0,0,0,5487.57,4356.38Zm-6,17.6-2.9,24.8c-7.2.4-14.9,0.7-23.1,0.8v-26.7c8.6,0.2,17.7.6,26,1.1h0Zm-32.5-97.7c0.7-1,1.5-2.1,2.4-3.6,0.7,1,1.3,1.8,1.9,2.5a21.65,21.65,0,0,1,4,6.7c0.8,2-1.1,4.6-2,5.6a16.43,16.43,0,0,0-3.9,3,16.78,16.78,0,0,0-3.7-2.9c-0.8-.9-2.8-3.6-2-5.6A30.81,30.81,0,0,1,5449.07,4276.28Zm-4.8,9.1a1.47,1.47,0,0,1,.2.4,0.2,0.2,0,0,1-.2-0.1v-0.3Zm-3.9,3.2c0.5-.9,1.4-2,3.9-0.8,5.7,2.8,6.3,4.5,6.3,4.5l1.9,0.1s0.5-1.8,6.4-4.7c2.6-1.2,3.5-.2,3.9.7,1.7,3.5-.3,11.3-2.1,12.2l0.1,0.2a5.15,5.15,0,0,0-2.7.8,20.8,20.8,0,0,0-6.5,4.4c-0.9-1.1-2.8-2.6-6.4-4.3a6.71,6.71,0,0,0-2.7-.7l0.1-.1c-2-1-3.9-8.9-2.2-12.3h0Zm-0.1,15.6c0.5-.9,1.3-2,3.9-0.8,5.7,2.8,6.3,4.5,6.3,4.5l1.9,0.1s0.5-1.8,6.4-4.7c2.6-1.3,3.4-.2,3.9.7,1.7,3.5-.3,11.3-2.1,12.2l0.1,0.2a5.73,5.73,0,0,0-2.8.8,20.8,20.8,0,0,0-6.5,4.4c-0.9-1.1-2.8-2.6-6.5-4.3a6.71,6.71,0,0,0-2.7-.7l0.1-.1c-1.8-1.1-3.7-8.9-2-12.3h0Zm0,15.5c0.4-.9,1.4-2,3.9-0.8,5.7,2.8,6.3,4.5,6.3,4.5l1.9,0.1s0.5-1.8,6.4-4.7c2.5-1.2,3.5-.2,3.9.7,1.6,3.2,0,10.2-1.7,12a5.74,5.74,0,0,0-2.9.1c-3.8,1-5.8,2.5-6.7,3.8-1-1.2-2.9-2.6-6.5-3.8a5.24,5.24,0,0,0-3-.2c-1.7-1.7-3.2-8.5-1.6-11.7h0Zm-0.6,18.3c0.1-2.3.9-4.7,3.2-4.7a7.84,7.84,0,0,1,1.4.2c5.8,1.9,6.2,4.1,6.2,4.3v0.3h1.9v-0.2c0-.3.3-2.8,6.2-4.4a5,5,0,0,1,1.2-.2c2.7,0,3.8,2.7,3.9,5.1,0.3,4.5-2.7,11.6-12,12.7-8.4-.5-12.1-8.1-12-13.1h0Zm12,15h0.2c0.7-.1,1.3-0.2,1.9-0.3l-0.1,47.1H5449l0.1-47.2A9.47,9.47,0,0,0,5451.67,4353Zm-4.6,20v26.8c-7.7,0-15.1-.2-22-0.6l-3.1-25.5c7.9-.4,16.3-0.7,25.1-0.7h0Zm-44.9-86.7a33.49,33.49,0,0,1,2.2-6c0.5-1,1-2.1,1.6-3.6,0.7,0.8,1.3,1.5,1.9,2.1a24.23,24.23,0,0,1,4.5,6.2c1.2,2.4-1.1,5.8-1.1,5.9l0.1,0.1a22.73,22.73,0,0,0-3.2,3.3,14.67,14.67,0,0,0-3.7-2.4l0.2-.2S5401.57,4288.88,5402.17,4286.28Zm-4.1,7.1c0.3-.9,1-1.8,3.2-0.9,5.6,2.1,6.3,3.8,6.3,3.8l1.9-.1s0.2-1.9,5.2-5.3c1.9-1.4,2.8-.7,3.3.1,2.2,3,1.4,11.5-.2,12.6l0.1,0.1a5,5,0,0,0-2.4,1.1,21.73,21.73,0,0,0-5.3,4.9c-1-1-2.9-2.2-6.3-3.5a5.17,5.17,0,0,0-2.6-.4l0.1-.1c-1.9-.8-4.7-8.8-3.3-12.3h0Zm1.8,15.5c0.3-.9,1-1.7,3.2-0.9,5.6,2.1,6.2,3.8,6.3,3.8l1.9-.1s0.2-1.8,5.2-5.3c1.9-1.3,2.8-.7,3.3.1,2.2,3,1.4,11.5-.2,12.6l0.1,0.1a5,5,0,0,0-2.4,1.1,19.91,19.91,0,0,0-5.3,4.9c-1-1-2.9-2.2-6.3-3.5a6.94,6.94,0,0,0-2.6-.5l0.1-.1C5401.27,4320.38,5398.57,4312.38,5399.87,4308.88Zm1.9,15.4c0.3-.9,1-1.7,3.2-0.9,5.6,2.1,6.3,3.8,6.3,3.8l1.9-.2s0.2-1.9,5.2-5.3c1.9-1.4,2.8-.7,3.3.1,2,2.8,1.5,10.3.1,12.3a4.89,4.89,0,0,0-2.6.4c-3.3,1.4-4.9,3.1-5.6,4.4-1.1-1.1-2.9-2.2-6.3-2.9a5.25,5.25,0,0,0-2.8.1c-1.8-1.7-3.9-8.6-2.7-11.8h0Zm1.6,17.5a6.32,6.32,0,0,1,.7-3,2.06,2.06,0,0,1,1.9-1,2.77,2.77,0,0,1,.9.1c5.5,1.2,6.1,3.4,6.1,3.5v0.3l1.9-.5c0-.5,0-2.8,5-5a3.53,3.53,0,0,1,1.4-.3c2.2,0,3.5,2.6,3.8,5.2a12,12,0,0,1-9.2,13.3c-8,.6-12.5-7.3-12.5-12.6h0Zm11.7,14.6a4.91,4.91,0,0,0,1.1-.1,9.83,9.83,0,0,0,1.6-.5l5.3,43.3c-1.4-.1-2.9-0.2-4.2-0.2l-5.2-42.6a6.15,6.15,0,0,0,1.4.1h0Zm-1.2,17.8,3,24.5c-5.5-.4-10.6-0.8-15.4-1.4l-7.2-21.1c5.9-.8,12.5-1.4,19.6-2h0Zm-14.5,22.9-4.7-.6-7.6-24.1a8.35,8.35,0,0,0,2-.5c0.5-.3,1-0.5,1.4-0.8l8.9,26h0Zm-14.3-24.6,1,3.1c-7.6,1.4-13.5,2.9-17.4,4.6-5.2-7.3-12.9-19.4-12-22.4a0.77,0.77,0,0,1,.2-0.3l0.7-.3c4.1-1.6,5.7-2.3,14.8.6a3.75,3.75,0,0,0-.1,1.1c0,5.4,5.1,13.4,12.8,13.6h0Zm1.6,5,5.9,18.7c-17.8-2.6-28.4-6.3-28.4-9.8,0-2.4,5.9-6,22.5-8.9h0Zm8-21.6a12.5,12.5,0,0,1-6.4,14.3,9.67,9.67,0,0,1-2.9.4c-6.5,0-11.3-7-11.3-11.7a3.17,3.17,0,0,1,.7-2.3,2.48,2.48,0,0,1,2-.8c5.3,0,6.3,2,6.3,2.1l0.1,0.3,1.7-.8c-0.1-.4-0.5-2.8,3.8-6a3.43,3.43,0,0,1,1.7-.7c1.9,0.2,3.6,2.3,4.3,5.2h0Zm-31.1-55.7c0.3-1.1.6-2.3,0.9-3.9,0.8,0.6,1.5,1.1,2.1,1.6a21,21,0,0,1,5.3,5.1c1.3,1.7.5,4.9,0,6l0.2,0.1a13.41,13.41,0,0,0-2.1,3.7,14.35,14.35,0,0,0-4.1-1.6c-0.4-.2-3.4-2.2-3.3-4.7a25.16,25.16,0,0,1,1-6.3h0Zm-3.3,14.1c0.2-1,.6-1.9,2.8-1.6,5.6,0.9,6.5,2.4,6.6,2.4l1.8-.5s-0.2-1.9,3.9-6.4c1.7-1.9,2.6-1.1,2.9-.7,2.6,2.4,3.6,11,2.2,12.5l0.1,0.1a6.45,6.45,0,0,0-2.1,1.6,20.5,20.5,0,0,0-4,5.9,18.47,18.47,0,0,0-6.5-2.1,5.11,5.11,0,0,0-2.5.1v-0.1c-1.7-.3-5.8-7.5-5.2-11.2h0Zm4.7,14.7c0.2-1,.6-1.9,2.8-1.6,5.6,0.9,6.5,2.4,6.5,2.4l1.8-.5s-0.2-1.9,3.9-6.4c1.7-1.9,2.6-1.1,2.9-.8,2.7,2.3,3.6,11,2.2,12.5l0.1,0.1a6.45,6.45,0,0,0-2.1,1.6,20.5,20.5,0,0,0-4,5.9,17,17,0,0,0-6.5-2,5.11,5.11,0,0,0-2.5.1v-0.1c-1.7-.3-5.8-7.5-5.1-11.2h0Zm4.6,14.7c0.2-1,.6-1.9,2.8-1.6,5.6,0.9,6.5,2.4,6.6,2.4l1.8-.5s-0.2-1.9,3.9-6.4c1.7-1.9,2.6-1.1,2.9-.8,2.5,2.2,3.4,9.8,2.5,12.1a5,5,0,0,0-2.4,1c-2.8,2.1-4,4-4.4,5.5a11.44,11.44,0,0,0-6.4-1.5,4.73,4.73,0,0,0-2.6.7c-1.4-1-3.6-4.6-4.4-7.8l0.1-.1a0.1,0.1,0,0,1-.1-0.1,7.37,7.37,0,0,1-.3-2.9h0Zm161.2,95.5-0.3.3c-1.3,1.9-4.5,4.1-9.4,6.2,1.3-5.6,2.5-11.9,3.5-18.7a40.5,40.5,0,0,0,10-5.5C5533.37,4427.88,5532.07,4433.78,5530.77,4439.18Zm-5.5,17.9-0.2.2c-1.4,2.2-4.8,4.6-9.8,7.1a140.84,140.84,0,0,0,5.2-16.5,40.44,40.44,0,0,0,9.3-5,141.2,141.2,0,0,1-4.5,14.2h0Zm-31.6,30a114.11,114.11,0,0,1-15.6,2.8c7-3,11.7-7.7,15.1-16.3a118.93,118.93,0,0,0,18.5-5.5c-4.8,10-10.6,16.2-17.8,18.9C5493.77,4487,5493.67,4487,5493.67,4487.08Zm0.3-15.7a101.07,101.07,0,0,0,4-17.1,123.91,123.91,0,0,0,20.4-5.6,118.39,118.39,0,0,1-5.5,16.8,118.52,118.52,0,0,1-18.9,5.9h0Zm-117.5-12.4a138.68,138.68,0,0,1-7-17,45.15,45.15,0,0,0,11.8,6.2,133.12,133.12,0,0,0,5.6,17.5c-5.1-2.2-8.5-4.6-10.4-6.7h0Zm-8.6-22.2a0.76,0.76,0,0,0-.2-0.5c-1.3-4.5-2.6-9.5-3.7-15,2.9,2.4,7.6,4.8,13,6.8,1.1,6,2.4,12,3.8,17.9-7-2.8-11.3-5.7-12.6-8l-0.3-1.2h0Zm128.3,15.9a231.84,231.84,0,0,1-28.4,3.5c0.3-5.1.5-10.8,0.6-17.4a242,242,0,0,0,30-4.1c-0.7,6.8-1.4,12.8-2.2,18h0Zm4.2-18.5a150.86,150.86,0,0,0,22.1-6.4c-1.1,6.9-2.3,13.1-3.6,18.7a117.92,117.92,0,0,1-20.6,5.7q1.05-7.8,2.1-18h0Zm-34.5,22.1c-5.3.3-10.8,0.5-16.5,0.5q-9.3,0-17.7-.6c-0.5-5-.9-10.8-1.3-17.4,5.9,0.4,12.2.7,19,.7q8.85,0,17.1-.6Q5466.32,4448.78,5465.87,4456.28Zm-36.1-.3a211,211,0,0,1-25.8-3.4c-0.9-5.1-1.6-11-2.3-17.6a216.23,216.23,0,0,0,26.9,3.7c0.3,6.5.7,12.3,1.2,17.3h0Zm-27.8-3.8a124.27,124.27,0,0,1-19-5.4c-1.5-5.8-2.7-11.9-3.9-17.9,2.6,0.9,5.4,1.8,8.1,2.6,3.2,0.9,7.4,2,12.5,3.1,0.7,6.6,1.5,12.4,2.3,17.6h0Zm-18.4-3.1a142.69,142.69,0,0,0,18.8,5.1,112.13,112.13,0,0,0,4.3,17.7,116.18,116.18,0,0,1-17.1-5,109.27,109.27,0,0,1-6-17.8h0Zm20.7,5.5a220.2,220.2,0,0,0,25.7,3.4c0.7,7.1,1.6,12.8,2.5,17.4a195.3,195.3,0,0,1-23.7-3A108.74,108.74,0,0,1,5404.27,4454.58Zm27.6,3.5c5.6,0.4,11.4.6,17.5,0.6,5.7,0,11.2-.2,16.4-0.5a163.68,163.68,0,0,1-1.8,17.2c-4.6.3-9.5,0.4-14.6,0.4s-10.2-.2-14.9-0.4c-0.9-4.4-1.8-10.1-2.6-17.3h0Zm35.8,0a253.72,253.72,0,0,0,28.2-3.4,94,94,0,0,1-4.2,17.2,189.83,189.83,0,0,1-25.8,3.5c0.7-4.6,1.4-10.2,1.8-17.3h0Zm67.4-39.9c-1.6,2-5.1,4.3-10.2,6.6q1.2-7.95,2.1-17.1c4.8-2,8.4-4,10.6-5.9-0.8,5.7-1.6,11.2-2.5,16.4h0Zm-12.3,7.4a133.22,133.22,0,0,1-22.2,6.6c0.5-5.2,1-11,1.4-17.2a146.72,146.72,0,0,0,22.9-6.6c-0.6,6.2-1.3,11.9-2.1,17.2h0Zm-24.2,7a226.83,226.83,0,0,1-30.2,4.2c0.1-5.2.1-10.9,0-17.2a234.46,234.46,0,0,0,31.6-4.3c-0.4,6.4-.9,12.1-1.4,17.3h0Zm-32.1-12.8c0.1,6.3.1,12,0,17.2-5.5.4-11.3,0.6-17.1,0.6-6.6,0-13-.3-19.1-0.7-0.3-5.2-.5-11-0.7-17.2,6.4,0.5,13,.7,19.8.7C5455.17,4420.38,5461,4420.18,5466.47,4419.78Zm-38.8-.3c0.2,6.3.4,12,.7,17.2a237.28,237.28,0,0,1-27-3.8c-0.5-5.2-1-10.9-1.5-17.2A263.36,263.36,0,0,0,5427.67,4419.48Zm-29.7-4.2c0.5,6.2,1,11.9,1.5,17.2a145.3,145.3,0,0,1-20.8-5.9c-0.7-3.6-1.3-7.2-2-10.7l-1.2-6.6A159.69,159.69,0,0,0,5398,4415.28Zm-24.6-6.8c0.5,2.5.9,5.1,1.4,7.7,0.6,3.2,1.1,6.4,1.7,9.6-7.7-3-12.5-6.1-13.3-8.3-0.9-4.9-1.7-10.1-2.3-15.7,2.5,2.2,6.8,4.5,12.5,6.7h0Zm9.7,61.5a45.51,45.51,0,0,1-4.1-6.4,50.81,50.81,0,0,0,9.1,4.7c2.7,6,5.9,11.1,9.8,14.9C5390.17,4479.38,5386.57,4474.58,5383.07,4470Zm20.5,15.7a1,1,0,0,0-.4-0.5c-5.2-3.4-9.3-8.9-12.6-15.8a119.11,119.11,0,0,0,16.7,4.6c3.1,8.2,7,12.7,11.9,15.5a96.4,96.4,0,0,1-15.6-3.8h0Zm22.9,4.5c-7.3-2.1-12.7-5.9-16.9-15.9a207.58,207.58,0,0,0,23.4,2.9c1.8,7.7,3.9,11.7,6.1,13.8C5434.47,4490.88,5430.27,4490.58,5426.47,4490.18Zm17.5,1c-3.1-.3-6.4-2.6-9.1-13.8,4.6,0.3,9.4.4,14.5,0.4s9.7-.1,14.2-0.4c-2.5,12.8-6.2,13.5-9.6,13.8h-10Zm21.5-13.9a188.16,188.16,0,0,0,25.3-3.3c-4.4,10.6-10.8,13.9-20.7,16.5-0.1,0-.1.1-0.2,0.1-3.1.2-6.5,0.4-10.1,0.5,2.2-2,4.2-5.9,5.7-13.8h0Zm47.7,0.2a57.1,57.1,0,0,1-10.8,6.5c4.5-3.9,8.4-9.5,11.8-17a45.05,45.05,0,0,0,9.3-5.3C5520.07,4469.78,5516.47,4475.08,5513.17,4477.48Zm35-127.2a6.87,6.87,0,0,1,2.2,5.4c0,12-12.8,27.2-12.9,27.4l0.1,0.1a1.06,1.06,0,0,0,.2,1.2,3,3,0,0,1,1.4,1.9q-0.6,6-1.2,11.7c-1,6.3-38.1,20.4-88.6,20.4-48.3,0-85.7-13.4-88.8-19.8-0.4-4-.7-8.2-1-12.6a2.52,2.52,0,0,1,.5-1.6,1.05,1.05,0,0,0,0-1.2l0.2-.2c-0.1-.2-12.9-15.4-12.9-27.4a7,7,0,0,1,3.8-6.6c5.2-3,14.3-1.9,17-1,1,3.1,2.9,6.4,4.7,7.9-9.8-3.1-11.9-2.3-16.1-.5l-0.7.3a2.17,2.17,0,0,0-1.3,1.5c-1.3,4.6,8.8,19.2,12.1,23.8-3.1,1.6-4.6,3.4-4.6,5.3,0,10,44.6,15.3,86.6,15.3,12.2,0,24.7-.5,36.2-1.3,0.1,0,.1.1,0.2,0.1h0.1c0.2,0,.3-0.1.5-0.1,27.7-2.2,49.7-6.9,49.7-13.9,0-1.7-1.2-3.3-3.7-4.7,4.1-5.8,14.6-21.6,11.1-25.6-1.5-1.7-4.9-3.1-10.2-2.5a20.44,20.44,0,0,0,2.8-6.4c3.1-.1,9.3.1,12.6,3.1h0Zm-14.8-10.1v0.1a5.11,5.11,0,0,0-2.5-.1,17,17,0,0,0-6.5,2,20.5,20.5,0,0,0-4-5.9,5.87,5.87,0,0,0-2.1-1.6l0.1-.1c-1.3-1.5-.4-10.2,2.2-12.5,0.4-.3,1.3-1.1,2.9.8,4,4.4,3.9,6.3,3.9,6.3l1.8,0.6s0.9-1.6,6.6-2.4c2.2-.3,2.6.6,2.8,1.6C5539.27,4332.68,5535.17,4339.88,5533.37,4340.18Zm9.9-25.9c0.6,3.7-3.4,10.9-5.3,11.2v0.1a5.11,5.11,0,0,0-2.5-.1,17,17,0,0,0-6.5,2,20.5,20.5,0,0,0-4-5.9,5.87,5.87,0,0,0-2.1-1.6l0.1-.1c-1.3-1.5-.4-10.2,2.2-12.5,0.4-.3,1.3-1.1,2.9.8,4,4.4,3.9,6.3,3.9,6.3l1.8,0.6s0.9-1.5,6.6-2.4c2.2-.4,2.7.6,2.9,1.6h0Z" transform="translate(-4836.57 -3995.38)"/></g></svg>