<?xml version="1.0" encoding="utf-8"?>
<!-- Generator: Adobe Illustrator 19.2.1, SVG Export Plug-In . SVG Version: 6.00 Build 0)  -->
<svg version="1.1" id="Layer_1" xmlns="http://www.w3.org/2000/svg" xmlns:xlink="http://www.w3.org/1999/xlink" x="0px" y="0px"
	 viewBox="0 0 21.9 19.6" style="enable-background:new 0 0 21.9 19.6;" xml:space="preserve">
<style type="text/css">
	.st0{fill:#C4961A;}
</style>
<g>
	<path class="st0" d="M7.4,12.7c0,1.1,0.8,3.4,1.4,4.6C8,18,3.5,19.8,1.7,19.6c-1-1-1.8-3.1-1.8-4.4C0,10.4,3.7,4.3,8.5,0l1.9,1.5
		C8.3,4.9,7.4,8.1,7.4,12.7z M18.9,12.7c0,1.1,0.9,3.4,1.6,4.6c-0.9,0.7-5.4,2.5-7.1,2.3c-1-1-1.8-3.1-1.8-4.4
		c0-4.8,3.8-10.9,8.5-15.2L22,1.5C19.8,4.9,18.9,8.1,18.9,12.7z"/>
</g>
</svg>
