<?xml version="1.0" encoding="utf-8"?>
<!-- Generator: Adobe Illustrator 19.2.1, SVG Export Plug-In . SVG Version: 6.00 Build 0)  -->
<svg version="1.1" id="Layer_1" xmlns="http://www.w3.org/2000/svg" xmlns:xlink="http://www.w3.org/1999/xlink" x="0px" y="0px"
	 viewBox="0 0 767 884.1" style="enable-background:new 0 0 767 884.1;" xml:space="preserve">
<style type="text/css">
	.st0{opacity:0.5;}
	.st1{fill:#EBEBE9;}
</style>
<g class="st0">
	<path class="st1" d="M27.8,134c-4.3,0-7.8,3.6-7.8,8v6.5c0,4.4,3.5,8.1,7.8,8.1h9.1v12.9h93.2l0.2,0.2c3.1,2.8,5.1,4.7,9.2,4.7
		c3.8,0,5.5-1.6,8-4c0.3-0.3,0.6-0.6,1-0.9h93.7v-12.9h9.1c4.3,0,7.8-3.6,7.8-8.1V142c0-4.4-3.5-8-7.8-8h-9.1V80.1h9.1
		c4.3,0,7.8-3.6,7.8-8.1v-6.5c0-4.4-3.5-8.1-7.8-8.1h-9.1V44.5h-8.7v-8.4l-6.1,2.9v-3.3l-1.3,0.5c-0.6,0.3-1.2,0.5-1.8,0.8
		c-2.4,1.2-4.5,2.2-12.7,1.8c-1.6-0.1-5.1-1.2-9.4-2.6c-9.2-3-23.2-7.6-36.6-7.6c-4.8,0-9.2,0.6-13.1,1.8c-3.5,1.1-5.8,2.2-8.2,3.4
		c-1.4,0.7-2.9,1.5-4.8,2.3c-1.9-0.8-3.3-1.5-4.8-2.3c-2.4-1.2-4.7-2.4-8.2-3.5c-3.9-1.2-8.3-1.8-13.1-1.8
		c-13.3,0-27.3,4.6-36.6,7.6c-4.4,1.4-7.8,2.6-9.4,2.6c-6.7,0.4-8.3-0.3-10.4-1.2c-1-0.4-2.2-0.9-4.1-1.4L51.7,36v3.1l-6.1-2.9v8.4
		h-8.7v12.9h-9.1c-4.3,0-7.8,3.6-7.8,8.1v6.5c0,4.4,3.5,8.1,7.8,8.1h9.1v53.9L27.8,134L27.8,134z M27.8,154.7
		c-3.2,0-5.9-2.8-5.9-6.1V142c0-3.4,2.6-6.1,5.9-6.1h9.1v18.8C36.9,154.7,27.8,154.7,27.8,154.7z M251.2,135.9
		c3.2,0,5.9,2.8,5.9,6.1v6.5c0,3.4-2.6,6.1-5.9,6.1h-9.1v-18.8L251.2,135.9L251.2,135.9z M251.2,59.4c3.2,0,5.9,2.8,5.9,6.1V72
		c0,3.4-2.6,6.1-5.9,6.1h-9.1V59.3L251.2,59.4L251.2,59.4z M231.6,39.2v119.5l-4.2-7.2V41.2C227.4,41.2,231.6,39.2,231.6,39.2z
		 M141,152.3c2.5-3.1,7.2-5.6,13.5-7.1c15.3-3.6,29.3,1,40.5,4.8c5,1.7,9.3,3.1,12.8,3.5c6.4,0.7,10.6,0.1,14.3-0.3
		c1.3-0.2,2.5-0.3,3.8-0.4l5,8.5c-7.9,1.9-16,1.3-22,0.9c-1.2-0.1-2.3-0.2-3.3-0.2c-1.8-0.1-4.8-0.9-8.4-1.9
		c-9-2.5-22.7-6.3-36.9-3.9c-4.1,0.7-8,2-12.3,4.2C147.1,155.6,143.8,152.9,141,152.3L141,152.3z M131.3,160.2
		c-4.3-2.1-8.4-3.5-12.5-4.2c-14.2-2.4-27.8,1.4-36.9,3.9c-3.7,1-6.6,1.8-8.4,1.9c-1,0.1-2.1,0.1-3.3,0.2c-6.1,0.4-14.2,1-22.2-0.9
		l5.1-8.4c1.2,0.1,2.5,0.2,3.8,0.4c2.4,0.3,5.1,0.7,8.5,0.7c1.7,0,3.6-0.1,5.8-0.3c3.5-0.4,7.8-1.8,12.8-3.5
		c11.2-3.8,25.1-8.4,40.5-4.8c6.3,1.5,11.1,4,13.5,7.2C135.4,153,132.1,155.7,131.3,160.2L131.3,160.2z M139.5,154.1h0.4
		c2.2,0,6.2,2.7,6.2,8.2c-0.1,4.5-4.1,5.5-6.6,5.7c-2.4-0.2-6.4-1.2-6.6-5.6C133,156.8,137,154.1,139.5,154.1L139.5,154.1z
		 M145.2,35.6c2.4-1.2,4.6-2.3,7.9-3.3c3.7-1.1,7.9-1.7,12.5-1.7c13,0,26.8,4.5,36,7.5c4.7,1.5,8,2.6,9.9,2.7c8.7,0.5,11-0.7,13.6-2
		c0.1-0.1,0.2-0.1,0.3-0.2v112.1c-1.2,0.1-2.3,0.2-3.6,0.4c-3.6,0.5-7.6,1-13.9,0.3c-3.3-0.3-7.5-1.8-12.4-3.4
		c-10.8-3.6-25.7-8.6-41.6-4.8c-6,1.4-10.7,3.8-13.6,6.7V37.8C142.3,37,143.8,36.3,145.2,35.6L145.2,35.6z M53.6,38.4
		c1.1,0.3,1.9,0.7,2.6,1c2.2,1,4.1,1.7,11.3,1.4c1.9-0.1,5.3-1.2,9.9-2.7c9.1-3,22.9-7.5,36-7.5c4.6,0,8.8,0.6,12.5,1.7
		c3.4,1,5.5,2.1,7.9,3.3c1.4,0.7,2.9,1.4,4.7,2.2V150c-2.9-2.9-7.6-5.3-13.6-6.7c-15.9-3.8-30.7,1.2-41.6,4.8
		c-4.9,1.6-9.1,3.1-12.4,3.4c-6.2,0.6-10.3,0.1-13.9-0.3c-1.2-0.2-2.4-0.3-3.6-0.4V38.4L53.6,38.4z M47.5,39.2l4.2,2v110.3l-4.2,6.9
		V39.2L47.5,39.2z M38.8,46.5h6.8v116l0.7,0.2c4.8,1.3,9.7,1.7,14.2,1.7c3.6,0,6.9-0.2,9.8-0.5c1.2-0.1,2.3-0.2,3.3-0.2
		c2-0.1,5.1-0.9,8.9-2c8.9-2.4,22.3-6.2,36-3.9c4.2,0.7,8.3,2.1,12.6,4.3v0.1c0.1,4.4,3.2,7.1,8.4,7.5h0.2c5.2-0.4,8.3-3.1,8.4-7.5
		c4.5-2.3,8.3-3.7,12.4-4.4c13.8-2.3,27.2,1.4,36.1,3.9c3.8,1,6.8,1.9,8.9,2c1,0.1,2.1,0.1,3.3,0.2c2.9,0.2,6.2,0.5,9.8,0.5
		c4.5,0,9.4-0.4,14.3-1.7l0.7-0.2v-116h6.8v121.1h-92.5l-0.3,0.3c-0.5,0.4-0.9,0.8-1.3,1.2c-2.4,2.3-3.7,3.5-6.7,3.5
		c-3.4,0-4.9-1.4-7.9-4.2l-0.8-0.7H38.8V46.5L38.8,46.5z M27.8,78.2c-3.2,0-5.9-2.8-5.9-6.1v-6.5c0-3.4,2.6-6.1,5.9-6.1h9.1v18.8
		L27.8,78.2L27.8,78.2z M273,156.6h9.1v12.9h93.2l0.2,0.2c3.1,2.9,5.1,4.7,9.2,4.7c3.8,0,5.5-1.6,8-4c0.3-0.3,0.6-0.6,1-0.9h93.6
		v-12.9h9.1c4.3,0,7.8-3.6,7.8-8.1V142c0-4.4-3.5-8-7.8-8h-9.1V80.1h9.1c4.3,0,7.8-3.6,7.8-8.1v-6.5c0-4.4-3.5-8.1-7.8-8.1h-9.1
		V44.6h-8.7v-8.4l-6.1,2.9v-3.3l-1.3,0.5c-0.6,0.3-1.2,0.5-1.8,0.8c-2.4,1.2-4.5,2.2-12.7,1.8c-1.6-0.1-5.1-1.2-9.4-2.6
		c-9.3-3-23.2-7.6-36.6-7.6c-4.8,0-9.2,0.6-13.1,1.8c-3.5,1.1-5.8,2.2-8.2,3.4c-1.4,0.7-2.9,1.5-4.8,2.3c-1.9-0.8-3.3-1.5-4.8-2.3
		c-2.4-1.2-4.7-2.4-8.3-3.5c-3.9-1.2-8.3-1.8-13.1-1.8c-13.3,0-27.3,4.6-36.6,7.6c-4.4,1.4-7.8,2.6-9.4,2.6
		c-6.7,0.4-8.3-0.3-10.4-1.2c-1-0.4-2.2-0.9-4.1-1.4l-1.2-0.3V39l-6.1-2.9v8.4h-8.7v12.9H273c-4.3,0-7.8,3.6-7.8,8.1V72
		c0,4.4,3.5,8.1,7.8,8.1h9.1V134H273c-4.3,0-7.8,3.6-7.8,8v6.5C265.2,153,268.7,156.6,273,156.6z M496.5,135.9
		c3.2,0,5.9,2.8,5.9,6.1v6.5c0,3.4-2.6,6.1-5.9,6.1h-9.1v-18.8L496.5,135.9L496.5,135.9z M496.5,59.4c3.2,0,5.9,2.8,5.9,6.1V72
		c0,3.4-2.6,6.1-5.9,6.1h-9.1V59.4C487.4,59.4,496.5,59.4,496.5,59.4z M476.8,39.2v119.5l-4.2-7.2V41.2
		C472.6,41.2,476.8,39.2,476.8,39.2z M386.2,152.3c2.5-3.1,7.2-5.6,13.5-7.1c15.4-3.6,29.3,1,40.5,4.8c5,1.7,9.3,3.1,12.8,3.5
		c6.4,0.7,10.6,0.1,14.3-0.3c1.3-0.2,2.5-0.3,3.8-0.4l5,8.5c-7.9,1.9-16,1.3-22,0.9c-1.2-0.1-2.3-0.2-3.3-0.2
		c-1.8-0.1-4.8-0.9-8.5-1.9c-9-2.5-22.7-6.3-36.9-3.9c-4.1,0.7-8,2-12.3,4.2C392.3,155.6,389,152.9,386.2,152.3z M376.5,160.2
		c-4.3-2.1-8.4-3.5-12.5-4.2c-14.2-2.4-27.8,1.4-36.9,3.9c-3.7,1-6.6,1.8-8.4,1.9c-1,0.1-2.1,0.1-3.3,0.2c-6.1,0.4-14.2,1-22.2-0.9
		l5.1-8.4c1.2,0.1,2.5,0.2,3.8,0.4c2.4,0.3,5.1,0.7,8.5,0.7c1.7,0,3.6-0.1,5.8-0.3c3.5-0.4,7.8-1.8,12.8-3.5
		c11.2-3.8,25.2-8.4,40.5-4.8c6.3,1.5,11.1,4,13.5,7.2C380.6,153,377.3,155.7,376.5,160.2L376.5,160.2z M384.7,154.1h0.4
		c2.2,0,6.2,2.7,6.2,8.2c-0.1,4.5-4.1,5.5-6.6,5.7c-2.9-0.2-6.4-1.4-6.6-5.6C378.3,156.8,382.2,154.1,384.7,154.1L384.7,154.1z
		 M390.4,35.6c2.4-1.2,4.5-2.3,7.9-3.3c3.7-1.1,7.9-1.7,12.5-1.7c13,0,26.8,4.5,36,7.5c4.7,1.5,8,2.6,9.9,2.7c8.7,0.5,11-0.7,13.6-2
		c0.1-0.1,0.2-0.1,0.3-0.2v112.1c-1.2,0.1-2.4,0.2-3.6,0.4c-3.6,0.5-7.6,1-13.9,0.3c-3.3-0.3-7.5-1.8-12.4-3.4
		c-10.8-3.6-25.7-8.6-41.6-4.8c-6,1.4-10.7,3.8-13.6,6.7V37.8C387.5,37,389,36.3,390.4,35.6L390.4,35.6z M298.8,38.4
		c1.1,0.3,1.9,0.7,2.6,1c2.2,1,4.1,1.7,11.3,1.4c1.9-0.1,5.3-1.2,9.9-2.7c9.1-3,22.9-7.5,36-7.5c4.6,0,8.8,0.6,12.5,1.7
		c3.4,1,5.5,2.1,7.9,3.3c1.4,0.7,2.9,1.4,4.7,2.2V150c-2.9-2.9-7.6-5.3-13.6-6.7c-15.9-3.8-30.7,1.2-41.6,4.8
		c-4.9,1.6-9.1,3.1-12.4,3.4c-6.2,0.6-10.3,0.1-13.9-0.3c-1.2-0.2-2.4-0.3-3.6-0.4V38.4L298.8,38.4z M292.7,39.2l4.2,2v110.3
		l-4.2,6.9V39.2L292.7,39.2z M284,46.5h6.8v116l0.7,0.2c4.8,1.3,9.7,1.7,14.2,1.7c3.6,0,6.9-0.2,9.8-0.5c1.2-0.1,2.3-0.2,3.3-0.2
		c2-0.1,5.1-0.9,8.9-2c8.9-2.4,22.3-6.1,36-3.9c4.2,0.7,8.3,2.1,12.6,4.3v0.1c0.1,4.4,3.2,7.1,8.4,7.5h0.2c5.2-0.4,8.3-3.1,8.4-7.5
		c4.5-2.3,8.3-3.7,12.4-4.4c13.8-2.3,27.2,1.4,36,3.9c3.8,1.1,6.8,1.9,8.9,2c1,0.1,2.1,0.1,3.3,0.2c2.9,0.2,6.2,0.5,9.8,0.5
		c4.5,0,9.4-0.4,14.3-1.7l0.7-0.2v-116h6.8v121.1H393l-0.3,0.3c-0.5,0.4-0.9,0.8-1.3,1.2c-2.4,2.3-3.7,3.5-6.7,3.5
		c-3.4,0-4.9-1.4-7.9-4.2l-0.8-0.7h-92L284,46.5L284,46.5z M273,78.2c-3.2,0-5.9-2.8-5.9-6.1v-6.5c0-3.4,2.6-6.1,5.9-6.1h9.1v18.8
		L273,78.2L273,78.2z M267.1,142c0-3.4,2.6-6.1,5.9-6.1h9.1v18.8H273c-3.2,0-5.9-2.8-5.9-6.1L267.1,142L267.1,142z M518.2,156.6h9.1
		v12.9h93.2l0.2,0.2c3.1,2.8,5.1,4.7,9.2,4.7c3.8,0,5.5-1.6,8-4l1-0.9h93.6v-12.9h9.1c4.3,0,7.8-3.6,7.8-8.1V142c0-4.4-3.5-8-7.8-8
		h-9.1V80.1h9.1c4.3,0,7.8-3.6,7.8-8.1v-6.5c0-4.4-3.5-8.1-7.8-8.1h-9.1V44.6h-8.7v-8.4l-6.1,2.9v-3.3l-1.3,0.5
		c-0.6,0.3-1.2,0.5-1.8,0.8c-2.4,1.2-4.5,2.2-12.7,1.8c-1.6-0.1-5.1-1.2-9.4-2.6c-9.3-3-23.2-7.6-36.6-7.6c-4.8,0-9.2,0.6-13.1,1.8
		c-3.5,1.1-5.8,2.2-8.2,3.5c-1.4,0.7-2.9,1.5-4.8,2.3c-1.8-0.8-3.3-1.5-4.8-2.3c-2.4-1.2-4.7-2.4-8.3-3.5c-3.9-1.2-8.3-1.8-13.1-1.8
		c-13.3,0-27.3,4.6-36.6,7.6c-4.4,1.4-7.8,2.6-9.4,2.6c-6.8,0.3-8.3-0.3-10.4-1.2c-1-0.4-2.2-0.9-4.1-1.4l-1.2-0.3v3.1l-6.1-2.9v8.4
		h-8.7v12.9H518c-4.3,0-7.8,3.6-7.8,8.1v6.5c0,4.4,3.5,8.1,7.8,8.1h9.1v53.9H518c-4.3,0-7.8,3.6-7.8,8v6.5
		C510.4,153,513.9,156.6,518.2,156.6L518.2,156.6z M741.7,135.9c3.2,0,5.9,2.8,5.9,6.1v6.5c0,3.4-2.6,6.1-5.9,6.1h-9.1v-18.8
		L741.7,135.9L741.7,135.9z M741.7,59.4c3.2,0,5.9,2.8,5.9,6.1V72c0,3.4-2.6,6.1-5.9,6.1h-9.1V59.4
		C732.6,59.4,741.7,59.4,741.7,59.4z M722,39.2v119.5l-4.2-7.2V41.2L722,39.2z M631.5,152.3c2.5-3.1,7.2-5.6,13.5-7.1
		c15.3-3.6,29.3,1,40.5,4.8c5,1.7,9.3,3.1,12.8,3.5c2.2,0.2,4.1,0.3,5.8,0.3c3.4,0,6.1-0.3,8.5-0.7c1.3-0.2,2.5-0.3,3.8-0.4l5,8.5
		c-7.9,1.9-16,1.3-22,0.9c-1.2-0.1-2.3-0.2-3.3-0.2c-1.8-0.1-4.8-0.9-8.5-1.9c-9-2.5-22.7-6.3-36.9-3.9c-4.1,0.7-8,2-12.3,4.2
		C637.5,155.6,634.3,152.9,631.5,152.3L631.5,152.3z M621.8,160.2c-4.3-2.1-8.4-3.5-12.5-4.2c-14.2-2.4-27.8,1.4-36.9,3.9
		c-3.7,1-6.6,1.8-8.4,1.9c-1,0.1-2.1,0.1-3.3,0.2c-6.1,0.4-14.2,1-22.2-0.9l5.1-8.4c1.2,0.1,2.5,0.2,3.8,0.4c3.7,0.5,7.8,1,14.3,0.3
		c3.5-0.4,7.8-1.8,12.8-3.5c11.2-3.8,25.1-8.4,40.5-4.8c6.3,1.5,11.1,4,13.5,7.2C625.8,153,622.6,155.7,621.8,160.2L621.8,160.2z
		 M629.9,154.1h0.4c2.2,0,6.2,2.7,6.2,8.2c-0.1,4.5-4.1,5.5-6.6,5.7c-2.4-0.2-6.4-1.2-6.6-5.6C623.5,156.8,627.5,154.1,629.9,154.1
		L629.9,154.1z M635.6,35.6c2.4-1.2,4.6-2.3,7.9-3.3c3.7-1.1,7.9-1.7,12.5-1.7c13,0,26.8,4.5,36,7.5c4.7,1.5,8,2.6,9.9,2.7
		c8.7,0.5,11-0.7,13.6-2c0.1-0.1,0.2-0.1,0.3-0.2v112.1c-1.2,0.1-2.4,0.2-3.6,0.4c-3.6,0.5-7.6,1-13.9,0.3
		c-3.3-0.3-7.5-1.8-12.4-3.4c-10.8-3.6-25.7-8.6-41.6-4.8c-6,1.4-10.7,3.8-13.6,6.7v-48.3h8c2.1,6.2,5.1,14.5,5.1,18.3
		c0,4-3.4,5-6.1,5.7v1.3h23.5v-1.3c-6.4-1.3-7.7-3.9-9.9-10.4l-17.6-52c-0.9,1.2-1.9,2.2-2.9,3V37.8C632.7,37,634.2,36.3,635.6,35.6
		z M629,97.6h-7l7-21.4V97.6z M630.9,78.4l6.9,19.3h-6.9C630.9,97.7,630.9,78.4,630.9,78.4z M544,38.4c1.1,0.3,1.9,0.7,2.6,1
		c2.2,1,4,1.7,11.3,1.4c1.9-0.1,5.3-1.2,9.9-2.7c9.1-3,23-7.5,36-7.5c4.6,0,8.8,0.6,12.5,1.7c3.4,1,5.5,2.1,7.9,3.3
		c1.4,0.7,2.9,1.4,4.7,2.2v29.8c-0.3,0.2-0.6,0.3-1,0.5c0.9,1.7-0.2,3.8-0.9,6.1l-4.8,14.4l-9,26.2c-2.5,6.9-3.2,8.7-10.3,10.8v1.3
		h21.9v-1.3c-3.6-0.6-9.1-0.6-9.1-6c0-4.3,3.5-13.5,4.9-17.9h8.3V150c-2.9-2.9-7.6-5.3-13.6-6.7c-15.9-3.8-30.7,1.2-41.6,4.8
		c-4.9,1.6-9.1,3.1-12.4,3.4c-6.2,0.6-10.3,0.1-13.9-0.3c-1.2-0.2-2.4-0.3-3.6-0.4V38.4L544,38.4z M537.9,39.2l4.2,2v110.3l-4.2,6.9
		C537.9,158.4,537.9,39.2,537.9,39.2z M529.2,46.5h6.8v116l0.7,0.2c4.8,1.3,9.7,1.7,14.3,1.7c3.6,0,6.9-0.2,9.8-0.5
		c1.2-0.1,2.3-0.2,3.3-0.2c2.1-0.1,5.1-0.9,8.9-2c8.9-2.4,22.3-6.1,36-3.9c4.1,0.7,8.3,2.1,12.6,4.3v0.1c0.1,4.4,3.2,7.1,8.4,7.5
		h0.2c5.2-0.4,8.3-3.1,8.4-7.5c4.5-2.3,8.3-3.7,12.4-4.4c13.8-2.3,27.2,1.4,36,3.9c3.8,1.1,6.8,1.9,8.9,2c1,0.1,2.1,0.1,3.3,0.2
		c2.9,0.2,6.2,0.5,9.8,0.5c4.5,0,9.4-0.4,14.3-1.7l0.7-0.2v-116h6.8v121.1h-92.5l-1.5,1.4c-2.5,2.3-3.7,3.5-6.7,3.5
		c-3.4,0-4.9-1.4-7.9-4.2l-0.8-0.7h-92.1L529.2,46.5L529.2,46.5z M518.2,78.2c-3.2,0-5.9-2.8-5.9-6.1v-6.5c0-3.4,2.6-6.1,5.9-6.1
		h9.1v18.8h-9.1V78.2z M512.4,142c0-3.4,2.6-6.1,5.9-6.1h9.1v18.8h-9.1c-3.2,0-5.9-2.8-5.9-6.1V142z"/>
	<path class="st1" d="M0,0l0.3,322.8c0.1,156.1,50,436.4,381.8,560.7l1.3,0.5l1.3-0.5c331.9-124.3,381.7-404.7,381.8-560.7L767,0H0z
		 M759.1,223.8c-7.8,16.2-32.1,27.8-59.5,27.8c-30.6,0-57-14.4-61.5-33.5h-3.7c-4.8,19.1-31.1,33.5-61.2,33.5
		c-30.6,0-57-14.4-61.5-33.5H508c-4.8,19.1-31.1,33.5-61.2,33.5c-30.6,0-57-14.4-61.5-33.5h-3.7c-4.8,19.1-31.1,33.5-61.2,33.5
		c-30.6,0-57-14.4-61.5-33.5h-3.7c-4.8,19.1-31.1,33.5-61.2,33.5c-31.1,0-56.9-13.9-61.3-33H129c-4.7,18.8-31.1,33.1-61.4,33.1
		C40,251.7,15.7,240,8,223.6v-22.3c10.7,20,33.8,33.6,59.6,33.6c29.6,0,55-17.2,63.2-41.8c8,24.6,33.3,41.8,63.2,41.8
		c29,0,54.8-17.8,63-42.4c8,24.7,33.9,42.4,63.4,42.4c29,0,54.8-17.8,63-42.4c8,24.7,33.9,42.4,63.4,42.4c29,0,54.8-17.8,63.1-42.4
		c8,24.7,33.9,42.4,63.4,42.4c29,0,54.8-17.8,63-42.4c8,24.7,33.9,42.4,63.4,42.4c26.1,0,48.8-13.3,59.5-33.3L759.1,223.8
		L759.1,223.8z M759.3,7.7l-0.2,184.4c-7.8,23-31.6,39-59.5,39c-30.6,0-57-20.1-61.5-46.7h-3.8c-4.8,26.7-31.1,46.8-61.2,46.8
		c-30.6,0-57-20.1-61.5-46.7h-3.8c-4.8,26.7-31.1,46.8-61.2,46.8c-30.6,0-57-20.1-61.5-46.7h-3.8c-4.8,26.7-31.1,46.8-61.2,46.8
		c-30.6,0-57-20.1-61.5-46.7h-3.8c-4.8,26.7-31.1,46.8-61.2,46.8c-31,0-56.8-19.4-61.3-46.1h-3.8c-4.8,26.7-30.6,46.2-61.4,46.2
		c-27.7,0-51.9-16.5-59.6-39.4L7.7,7.7C7.7,7.7,759.3,7.7,759.3,7.7z M84.5,631.4l298.8-260.9l299.1,261.1
		c-16.2,28.4-35.6,56.4-58.9,83.1L383.3,499.5l-240,215.1C120,687.8,100.6,659.8,84.5,631.4L84.5,631.4z M383.5,875.9
		C277.7,836,201.1,780.1,145.8,717.4l237.4-212.8L621,717.7C565.7,780.2,489.1,836.1,383.5,875.9z M684.3,628.3l-301-262.8L82.5,628
		C21.7,519.2,8.1,404,8,322.8l-0.1-91.7c10.6,14.6,33.4,24.4,59.6,24.4c29.6,0,55-12.6,63.2-30.6c8,18,33.3,30.6,63.2,30.6
		c29.5,0,54.8-12.7,63-31c8,18.2,33.4,31,63.4,31c29.5,0,54.8-12.7,63-31c8,18.2,33.4,31,63.4,31c29.5,0,54.8-12.7,63.1-31
		c8,18.2,33.4,31,63.4,31c29.5,0,54.8-12.7,63-31c8,18.2,33.4,31,63.4,31c26,0,48.8-9.7,59.5-24.3l-0.1,91.6
		C758.9,404,745.2,519.4,684.3,628.3L684.3,628.3z"/>
	<path class="st1" d="M206.9,109.4h-1.2c-2,11.2-6.9,15.4-17,15.4c-13.1,0-12-7.3-12-12.5V97.8h8.3c6,0,10.4,0.1,11.4,7.9h1.2V85.9
		h-1.2c-0.9,7.6-5.4,8.2-11.4,8.2h-8.3V68.8h7.7c8.1,0,15.5,0.1,16,11.5h1.2l1-13.7h-42.9V68c9.6,1.4,9.7,4.1,9.9,13.2v31.2
		c-0.2,9.1-0.3,11.8-9.9,13.2v1.3h44.4C205.8,121.7,206.8,116.2,206.9,109.4L206.9,109.4z M76.9,81l18,48H96l15.2-40.5
		c5-12.9,7.3-19.9,14.8-20.6v-1.3h-22.5V68c12.1,2,10.9,4.9,4,23.1l-9.4,25.1L85.4,81.9c-2.1-5.6-5.7-12.7,5.5-13.9v-1.3H65.6V68
		C72.7,68.9,74.5,74.6,76.9,81z M681.2,128.1c9.2,0,19.4-5.9,19.4-17.4c0-17.9-25.2-17.4-25.2-32.7c0-5.9,4.2-9.8,9.3-9.8
		c7.9,0,10,6.9,11.3,14.1h1.3l0.6-13.3c-3.5-2.1-7.6-3.5-11.7-3.5c-8.5,0-17.8,6.6-17.8,16.9c0,17.7,24.4,16.3,24.4,32.1
		c0,6.9-4.6,10.8-10.5,10.8c-8.8,0-14.1-8.4-16.1-17h-1.4l2.3,15.1C671.2,126.5,676.3,128.1,681.2,128.1L681.2,128.1z M573.4,69.3
		h4.8v41c0,11-0.5,13.9-11.2,15.3v1.3h29.4v-1.3c-10.7-1.4-11.2-4.4-11.2-15.3v-41h4.8c9.2,0,13.6,0.5,16.4,11.5l1.1-0.3l-1.1-16.6
		h-0.6l-0.8,0.8c-2,2-2.3,2-4.9,2h-36.6c-2.6,0-2.9,0.1-4.9-2l-0.8-0.8H557l-1.1,16.6l1.1,0.3C559.8,69.8,564.2,69.3,573.4,69.3
		L573.4,69.3z M442.3,125.7c-9.6-1.4-9.7-4.1-9.9-13.2V81.2c0.2-9.1,0.3-11.8,9.9-13.2v-1.3h-26.8V68c9.6,1.4,9.7,4.1,9.9,13.2v31.2
		c-0.2,9.1-0.3,11.8-9.9,13.2v1.3h26.8V125.7z M343.4,125.7c-10.9-1.7-11.1-3.5-11.1-13.2V98.2c5.6,1.1,8.5-1.1,11.7,6.3
		c1.7,3.8,5.8,11.6,11.1,17.7c4.6,5.3,10.8,5.1,19.3,5.5l0.2-1.3c-13.2-3-20.8-18.3-27-30.2l-0.4-0.6c5.7-2.8,9.9-7.1,9.9-14.6
		c0-4.2-1.6-15.2-21.7-14.5l-19.5,0.7v1.2c8.9,0.9,9.3,2.9,9.3,16.5v27.5c-0.2,9.1-0.3,11.8-9.9,13.2v1.3h28v-1.2H343.4z
		 M332.3,68.4c8.4-0.1,16.6,4.1,16.6,14.5c0,9.8-8.9,13.7-16.6,13.8C332.3,96.7,332.3,68.4,332.3,68.4z M532.5,680.1
		c-10.6,4.2-38.2-0.5-38.6-0.6c-8-0.5-15.2,2.1-20.8,7.4c-6.3,6-10,15-10,24.7c0,2.1,0.2,4.1,0.6,6c-9.9-13.8-30.1-24.5-55.8-28.5
		c-0.5-3.4-4-7.2-8.9-9.6l-0.1-5.2c7.8-2.6,12.3-7.7,12.3-14c0-6.8-5.3-13.1-13.5-16.1c-1-1.7-2.2-3.2-4.6-4c-0.3-4-2.7-14-5.8-15.1
		L387,625l-0.3,0.1c-3.1,1.1-5.9,11.5-6.2,15.4c-2.7,1.3-3.8,2.7-4.5,3.9c-8,3.1-12.9,9.1-12.9,15.9c0,6.9,4.1,11.5,12.2,13.9
		l-0.3,5.3c-4.8,2.5-8.1,6.2-8.6,9.5c-26.8,4-48.3,15.5-57.8,31c-1.8-0.3-7.6-1.4-11.6-6.3c-3.4-4.2-4.6-10-3.6-17.4
		c0.2-0.3,0.2-0.7,0.2-1.1v-0.3c0-4.1-7.6-6.9-16.9-8c-2.5-0.7-5.6-1.1-8.7-1.3v-2.2h0.3c1.1,0,2.3-0.1,3.8-0.5
		c6.2-1.7,11.4-3.8,12.7-12.1c1.1-7.4-4.3-14.9-9.1-21.6c-1.4-1.9-2.7-3.7-3.8-5.5c-1.8-2.8-1.9-6.7-2.1-10.2
		c-0.2-4-0.3-7.9-3.6-7.9c-0.6,0-1.2,0.1-1.8,0.4l-0.4,0.2l-0.1,0.4c-0.7,2.1-1.1,3.9-1.6,5.6c-1,3.8-1.7,6.9-4.7,11.5
		c-1.1,1.8-2.4,3.6-3.8,5.5c-4.8,6.7-10.3,14.2-9.1,21.6c1.3,8.4,6.5,10.4,12.7,12.1c1.5,0.4,2.7,0.5,3.8,0.5h1.1v2.3
		c-2.5,0.2-5.1,0.6-7.3,1.3c-8.8,1.2-15.9,3.9-15.9,7.9c0,7.2,11.3,13.7,11.8,14l0.2,0.1c0.1,0,5.9,2,19.5,23.2
		c28.3,44.3,75.7,48.7,78.2,48.9c5.4,1.6,11.3,2.6,17,3.5c-0.3,3.8-2.8,4.7-5.6,5.7c-2.4,0.9-5.1,1.8-5.6,4.9h-0.1v1.5L344,806
		c-8.2,1.7-12.4,6.8-12.4,10.9c0,9.6,24.4,17,55.6,17s55.6-7.5,55.6-17c0-4.7-4.1-6.6-10.8-9.1l-13.2-11.9c-0.2-3.7-3-4.7-5.4-5.5
		c-2.6-0.9-4.9-1.7-5.2-5.6c4.7-0.7,8.9-1.7,14.3-3.2c70.9-7.6,104.3-27.7,105.3-63.2c0-0.6,0.7-13.4-7.8-22.9
		c12.6-0.4,16-4.4,22.4-11.9c1.4-1.7,2.9-3.8,1.9-5.2C543.6,677.1,541.6,676.5,532.5,680.1L532.5,680.1z M486.5,707.9l0.1,0.5
		l0.5,0.2c4.7,2.4,6.1,4.7,5.3,8.7c-0.6,3-3.5,4.8-5.4,4.9c-5.3,0.3-9.1-3.1-9.5-8.7c-0.4-5.2,1.2-10,4.3-13.4
		c2.9-3.1,7-4.8,11.9-4.8c11.9,0,19.6,8.3,19.6,21.1c0,18.9-10.2,30.2-27.3,30.2c-6.4-0.4-13.2-3.2-15.9-4.4
		c0.3-1.9,0.5-3.8,0.5-5.4c0-2.7-0.4-5.3-1.1-7.9c0.4,0.5,0.8,0.9,1.3,1.3c4.4,4.3,10.2,6.6,16.5,6.5c8.7-0.2,17.6-5.8,17.6-17.7
		c0-9-4.6-15.5-11-15.5c-3,0-5.1,0.7-6.3,1.9C486.4,706.7,486.5,707.8,486.5,707.9L486.5,707.9z M392.4,784.4
		c16.2-7.3,17.7-33.2,17.9-36.6c13.4-1,25.7-2.9,35.7-5.2c-0.6,2.5-2.2,7.9-6.8,14.2c-5.7,8-17.3,19.1-40.1,27.1
		C396.9,784.1,394.7,784.3,392.4,784.4z M366.8,782.8c-0.4-0.1-0.8-0.1-1.2-0.2c-33.9-10.4-36.4-33.6-36.5-39.2
		c8,1.8,17.7,3.2,28.9,4.2c0.2,2.4,1.1,10,4.4,17.9c3.8,9.4,9.5,15.7,16.7,18.7C375.3,783.9,371.3,783.4,366.8,782.8z M386.7,784.1
		c-21.9-2.1-26.1-30.5-26.7-36.4c7.9,0.6,16.6,1,25.8,1c7.7,0,15.3-0.3,22.6-0.8C408.2,752.1,405.9,780.9,386.7,784.1L386.7,784.1z
		 M385.8,746.8c-36,0-63-5.5-74-10.9c-0.2-2.6-0.3-5.4-0.4-8.6c0.1-1.2,0.3-4.7-1-6.4c0.4-0.7,0.9-1.4,1.4-2.1
		c4.9,8.6,36.9,15.2,75.6,15.2c34.6,0,71.6-4.1,76.4-13c1.9,3,3.2,6.2,4,9.5h-0.2C467.6,736.9,432.4,746.8,385.8,746.8z
		 M377.4,698.9c-4.9,3.4-16.7,13.4-16.2,32.1c-13.2-1.1-24.1-3-32.1-5.3c7.7-22.8,35.2-31.1,38.8-32.1
		C369.6,695.9,373,697.8,377.4,698.9L377.4,698.9z M406.3,694c4.4,0.9,29.7,7.2,39.7,33.2c-8.4,1.9-19.8,3.4-33.8,4.2
		c-0.2-19.8-10.6-29.2-15.4-32.4C401.1,697.9,404.4,696.2,406.3,694L406.3,694z M394.1,699.5c2.5,1.3,16,9.8,16.2,32
		c-7,0.4-14.7,0.6-23,0.6c-8.8,0-16.9-0.3-24.3-0.9c-0.6-20.7,14.6-30.3,17-31.7c2.2,0.4,4.6,0.6,7.2,0.6
		C389.7,700.1,392,699.9,394.1,699.5L394.1,699.5z M462.5,719c-0.1,2.7-5.2,5.5-14.6,7.8c-9.8-25.8-34.1-33-40.4-34.4
		c0.2-0.4,0.4-0.8,0.5-1.3C433.2,695,453,705.5,462.5,719z M377.3,674.7c2.9,0.7,6.6,1.5,9.8,1.5c3.6,0,6.9-0.4,10.1-1.3l0.1,5.2
		c0,3.2-4.5,5.8-10.1,5.8s-10.1-2.5-10.1-5.7L377.3,674.7z M387.1,627.1c1.7,1.5,4.2,10,4.2,13.8c0,2.8-1.6,4.5-4.2,4.5
		c-2.2,0-4.6-1.1-4.6-4.3C382.5,637.3,385.4,628.6,387.1,627.1z M380.7,642.6c0.6,2.9,3,4.8,6.4,4.8c3.3,0,5.6-2,6-5.1
		c1.4,0.6,2.2,1.6,3,3c-0.3,4.8-3.6,7.6-9.1,7.6c-5.2,0-9.2-3.9-9.3-7.4C378.1,644.7,378.8,643.7,380.7,642.6L380.7,642.6z
		 M365.1,660.3c0-5.7,4.1-10.9,10.9-13.8c0.8,4.1,5.1,8.2,11.1,8.2c6.1,0,10.2-3.2,10.9-8.4c7,2.8,11.4,8.2,11.4,14
		c0,5.7-4.4,10.3-12,12.5c-3.2,0.9-6.6,1.4-10.3,1.4c-3.5,0-8.1-1.1-10.4-1.7C368.8,670.5,365.1,666.5,365.1,660.3z M375.2,681.6
		c1,3.6,5.8,6.2,11.8,6.2c6.1,0,10.8-2.6,11.8-6.2c4.3,2.3,7.2,5.8,7.2,8.4c0,4.5-8.7,8.2-18.9,8.2c-10.3,0-18.9-3.8-18.9-8.3
		C368.3,687.3,371.2,683.9,375.2,681.6L375.2,681.6z M366.5,691c0.1,0.3,0.2,0.7,0.3,1c-5.4,1.6-31.9,10.4-39.6,33.2
		c-8.6-2.6-13.6-5.6-14.1-8.2C323.3,704.1,342.8,694.5,366.5,691L366.5,691z M295.6,715c4.8,5.9,11.7,6.9,13.2,7
		c0.6,0.4,0.9,2.8,0.7,5.2c0.1,3.1,0.2,5.9,0.4,8.5c-3.3,0.1-13.5,0-21.9-6.8c-6.9-5.6-11.1-14.3-12.3-26c6.6-0.9,12.4-2.5,15.7-4.6
		C290.8,705.2,292.2,710.8,295.6,715L295.6,715z M261,681.5c-0.9,0-2-0.1-3.3-0.4c-5.9-1.6-10.2-3.3-11.3-10.6
		c-1-6.6,4-13.5,8.8-20.2c1.4-1.9,2.7-3.8,3.9-5.6c3.2-4.9,4-8.2,5-12c0.4-1.5,0.8-3.1,1.4-5c0.3-0.1,0.5-0.1,0.7-0.1
		c1.3,0,1.5,2.3,1.7,6c0.2,3.5,0.3,7.9,2.4,11.1c1.2,1.8,2.5,3.6,3.9,5.6c4.8,6.7,9.8,13.6,8.8,20.1c-1.1,7.3-5.4,9-11.3,10.6
		c-1.3,0.4-2.4,0.4-3.3,0.4h-0.3v-6.2c0-3.7-5.9-3.7-5.9,0v6.2L261,681.5L261,681.5z M250.3,689.7c-0.3,0.5-0.5,0.9-0.5,1.5
		c0,3.7,8.2,5.7,16.2,5.7c8.1,0,16.2-1.9,16.2-5.7c0-0.6-0.2-1.1-0.6-1.6c6.2,1.3,9.9,3.4,10,5.3c0,0.3-0.1,0.5-0.1,0.8l-0.3,0.3
		c-3.2,2.8-13.4,5.7-25,5.7c-11,0-21.3-2.2-24.5-5.3c-0.5-0.5-0.9-0.9-0.9-1.4C240.9,693,244.4,691,250.3,689.7L250.3,689.7z
		 M272.1,731.2c-13.2-20.7-19.3-23.6-20.5-24c-0.8-0.5-6.5-3.9-9.3-8.1c4.7,2.7,13.9,4.4,23.9,4.4c2.5,0,5-0.1,7.4-0.4
		c1.3,12.2,5.7,21.3,13,27.2c9,7.3,19.7,7.4,23.2,7.3c1.9,21.3,8.1,26.3,8.3,26.5c6.4,5.7,13.2,10.1,20.8,13.4
		C323.5,774,292.7,763.3,272.1,731.2L272.1,731.2z M319.6,762.7c-0.1-0.1-5.7-4.8-7.6-24.6c3.7,1.7,8.9,3.4,15.3,4.9
		c0.1,4.6,1.9,25.8,28.3,37.9c-2.2-0.5-4.4-1-6.5-1.6C338,775.8,328.3,770.5,319.6,762.7L319.6,762.7z M355.5,798.3
		c5,6.6,25.5,8,31.6,8c16,0,26-1.9,29.9-5.8c0.7-0.7,1.2-1.4,1.5-2.2l11.9,10.8c-0.6,2.3-5.5,13.8-43.3,13.8
		c-24.2,0-34.4-5.2-38.6-9.6c-2.6-2.6-3-5-3.1-5.9L355.5,798.3z M440.7,816.9c0,7.3-21.6,15.1-53.7,15.1s-53.7-7.8-53.7-15.1
		c0-3.2,3.5-7.2,10.1-8.9c0.2,1.4,1,3.8,3.5,6.3c4.5,4.7,15.1,10.3,40.1,10.3c37.2,0,43.8-11,45-14.7
		C438.9,812.6,440.7,814.1,440.7,816.9L440.7,816.9z M416.8,796.4c0,1-0.4,1.9-1.2,2.7c-3.4,3.4-13.5,5.2-28.5,5.2
		c-10.7,0-29.6-2.9-30.7-8.7c0.2-2,1.7-2.7,4.2-3.6v0.3c0,5,17.5,7.6,26.8,7.6c11.6,0,25.5-1.3,25.7-7.5v-0.2
		C415.4,793.2,416.8,793.9,416.8,796.4z M411.2,791.7v0.7c-0.1,3.5-9.3,5.7-23.8,5.7c-12,0-24.9-3.4-24.9-5.7c0-0.6,0.7-1.3,2-2
		v-0.1c1.6-1.1,2.9-2.7,3.2-5.6c7.5,1.1,13.9,1.6,19.5,1.6c4,0,7.9-0.2,11.9-0.5v0.1c0.2-0.1,0.3-0.1,0.5-0.2
		c2.3-0.2,4.5-0.4,6.8-0.8C406.6,789.3,408.9,790.8,411.2,791.7z M407.1,783c-0.1,0-0.3,0-0.4,0.1c35.1-14.7,40.6-36.5,41.4-41
		c10.2-2.5,17.5-5.6,20.3-8.8c0.2,1.2,0.3,2.5,0.3,3.7c0,1.7-0.2,3.7-0.6,5.8c-3.1,15.6-20.7,29.7-45.9,37
		C416.4,781.3,412,782.3,407.1,783L407.1,783z M541,682.2c-6.8,8-9.7,11.3-23.2,11.3h-2.4l1.7,1.6c9.4,9,8.8,22.9,8.8,23.1
		c-0.9,32.9-31,52.2-94.4,60.3c20.7-7.8,34.5-20.2,38-34.3c3,1.3,9.7,4,16.2,4.4c18.4,0,29.3-12,29.3-32.1c0-13.8-8.6-23-21.5-23
		c-5.4,0-10,1.9-13.3,5.4c-3.5,3.7-5.2,9.1-4.8,14.8c0.5,6.4,4.7,10.5,10.7,10.5h0.9c2.9-0.2,6.5-2.7,7.2-6.4
		c0.9-4.7-0.7-7.7-5.7-10.5c0.1-0.1,0.2-0.3,0.3-0.5c0.6-0.6,1.9-1.3,4.8-1.3c5.3,0,9.1,5.7,9.1,13.6c0,11.4-8.5,15.6-15.7,15.8
		c-5.7,0-11.1-2-15.1-5.9c-4.4-4.3-6.9-10.5-6.9-17.4c0-9.2,3.4-17.7,9.4-23.4c5.2-4.9,11.9-7.3,19.2-6.9c1.2,0.2,28.4,4.8,39.5,0.5
		c8.3-3.2,9.5-2.5,9.6-2.5S542.9,680,541,682.2L541,682.2z M246.2,309.9c-0.2-2.3-0.5-3.8-1-5.5c-0.3-1.2-0.6-2.6-0.9-4.4
		c1.3-2.8,5-9.2,10.8-9.3v-1c-4.7,0.1-8,3.7-10,6.8c0.9-2.3,1.6-6-0.2-10.4l-0.9,0.4c2.1,5.2,0.5,9.3-0.5,11.2l-0.9,0.8
		c-1.3,1.1-2.4,1.9-3.3,2.6c-1.3,1-2.3,1.7-3.4,2.8c0.2-2.5-0.2-6.3-3.3-10l-0.7,0.6c3.5,4.2,3.4,8.3,3,10.5
		c-0.4,0.4-0.8,0.9-1.2,1.4c-1,1.3-1.2,2.9-1.1,4.3c-2.3-2-4.2-0.9-4.9-0.2c-2.9,2.6-4.2,10.3-3.1,13.9c-0.7,0.2-1.2,0.6-1.6,0.8
		c-2.9,2.6-4.2,10.3-3.1,13.9c-0.7,0.2-1.2,0.6-1.6,0.8c-2.9,2.6-4.1,10.1-3.1,13.7c-2.1,0.7-3.8,3-4.6,6.3
		c-1.1,4.6,0,10.5,4.6,14.4l-1.8,5.4c-4.7-0.8-11.8-1.8-20.2-2.6l2-16.8c6.8-1.8,10.5-9,10.5-14.2c0-2-0.5-3.5-1.4-4.5
		c2.5-2.9,4.3-10.1,2.9-13.6c-0.2-0.5-0.5-1.2-1.2-1.7c2.6-2.8,4.5-10.2,3.1-13.8c-0.2-0.5-0.5-1.2-1.2-1.7
		c2.6-2.8,4.4-10.2,3.1-13.8c-0.3-0.8-1.1-2.2-3-2.4c0.5-1.1,2-3,6.3-5.1l-0.4-0.9c-4.9,2.5-6.4,4.8-6.9,6c-0.3,0-0.5,0.1-0.8,0.2
		c0.8-1.3,1.4-2.9,1-4.6c1.2-3.1,4.2-9.2,9.7-9.7l-0.1-1c-5.5,0.6-8.6,5.7-10.1,9.1c-0.6-2-1.2-3.3-2-4.8c-0.5-1-1-2.1-1.6-3.5
		c0.5-3.1,2.3-10.3,7.9-12l-0.3-0.9c-4.5,1.4-6.7,5.7-7.8,9.2c0.2-2.5-0.1-6.2-3-9.9l-0.8,0.6c3.1,3.9,3.1,7.8,2.7,10.1l-0.9,1.1
		c-1.1,1.4-2.1,2.4-2.9,3.3c-1.2,1.3-2.2,2.4-3.1,3.8c-0.3-2.4-1.5-5.6-6.3-8.8L188,278c5.4,3.6,6,7.2,5.9,9.4
		c-0.2,0.4-0.5,0.8-0.7,1.3c-0.8,1.6-0.6,3.4-0.2,4.8c-3-1.8-4.7,0-5.4,0.9c-2.2,3.1-2.2,10.8-0.3,14.1c-0.8,0.4-1.3,0.9-1.6,1.3
		c-2.2,3.1-2.2,10.8-0.3,14.1c-0.8,0.4-1.3,0.9-1.6,1.3c-2.2,3.1-2.2,10.7-0.4,14c-1.7,1-3.1,3.2-3.4,6.2c-0.6,5,1.4,10.9,7.2,14
		l-2,17.2c-8.3-0.6-17.5-0.9-26.2-1v-18.9c7.6-2.5,10.2-9.3,9.9-13.9c-0.2-2.7-1.2-4.8-2.8-5.9c2.3-3,3.4-10.1,1.6-13.6
		c-0.3-0.5-0.8-1.3-1.7-1.9c2.4-3,3.5-10.2,1.7-13.7c-0.3-0.5-0.8-1.3-1.7-1.9c2.4-3,3.5-10.2,1.7-13.7c-0.5-1.1-2.1-3.3-5.6-1.9
		c0.6-1.4,1-3,0.3-4.5c-0.5-1.3-1.1-2.4-1.6-3.3c0.4-2.2,1.7-6.2,6.5-8.9l-0.5-0.8c-4.5,2.5-6.2,6.1-6.8,8.6c-0.6-0.9-1.2-1.7-2-2.7
		s-1.7-2.1-2.7-3.6l-0.1-0.2h0.1c0-0.1-1.9-6.3,3.3-11.8l-0.7-0.7c-3.2,3.4-3.9,7.1-3.9,9.6c-0.8-3.6-2.6-8.1-6.9-9.9l-0.4,0.9
		c5.4,2.1,6.5,9.3,6.8,12.5c-1.1,1.9-2,3.2-2.8,4.4c-0.9,1.2-1.7,2.4-2.5,4c-1.1-3.5-3.8-9.2-9.3-10.3l-0.2,0.9
		c5.6,1.1,8,7.5,8.9,10.6c-0.1,0.2-0.2,0.5-0.3,0.8c-0.4,0.9-0.4,1.9-0.3,2.8c-0.6-1.4-2.2-3.4-6-5.7l-0.5,0.8
		c5.3,3.3,5.9,5.7,6,6.4c-2.9-0.6-4.2,1.3-4.7,2.3c-1.7,3.5-0.6,10.7,1.7,13.7c-0.9,0.5-1.5,1.4-1.7,1.9c-1.7,3.5-0.6,10.7,1.7,13.7
		c-0.9,0.5-1.5,1.4-1.7,1.9c-1.7,3.5-0.7,10.5,1.5,13.5c-1.4,1.1-2.2,3-2.3,5.5c-0.1,4.8,2.8,11.6,9.3,14.1v19
		c-8.8,0-17.4,0.3-25.4,0.7l-2.1-16.7c5.9-3,8-9.1,7.4-14.1c-0.4-2.9-1.7-5.1-3.4-6.2c1.8-3.4,1.8-11-0.4-14c-0.3-0.4-0.8-1-1.6-1.3
		c1.9-3.3,1.9-11-0.3-14.1c-0.3-0.4-0.8-1-1.6-1.3c1.9-3.3,1.9-11-0.3-14.1c-0.6-0.9-2.3-2.6-5.1-1c0.4-1.4,0.6-3.2-0.2-4.7
		c-0.5-0.9-0.9-1.6-1.3-2.3c-0.1-2.2,0.3-6.5,4.6-10.2l-0.6-0.7c-3.7,3.2-4.7,7-4.9,9.5c-0.8-1.1-1.6-1.9-2.5-3
		c-0.8-0.9-1.8-1.9-2.9-3.3l-0.3-0.4c-0.5-0.9-2.7-6.2,0.8-12l-0.8-0.5c-2.5,4-2.3,7.7-1.8,10.2c-1.5-3.4-4.2-7.4-8.8-8.2l-0.2,0.9
		c5.8,1,8.4,7.9,9.3,10.9c-0.7,1.9-1.4,3.2-1.9,4.4c-0.7,1.5-1.4,2.8-2,4.9c-1.8-3.2-5.5-8.1-11-8.1h-0.2v1H93
		c5.5,0,9.1,5.6,10.7,8.5v0.1c-0.4,1.7,0.2,3.4,1,4.7c-0.1,0-0.3-0.1-0.4-0.1c-0.7-1.2-2.6-3.1-7.4-4.8l-0.3,0.9
		c3.7,1.3,5.5,2.7,6.4,3.7c-2.1,0-3,1.6-3.4,2.5c-1.4,3.5,0.5,11,3.1,13.8c-0.7,0.5-1,1.2-1.2,1.7c-1.4,3.5,0.5,11,3.1,13.8
		c-0.7,0.5-1,1.2-1.2,1.7c-1.3,3.5,0.4,10.7,2.9,13.6c-0.1,0.2-0.3,0.3-0.4,0.5c-0.7,1-1,2.4-1,4c0,5.1,3.6,12.2,10.2,14.1l2,16.4
		c-7.2,0.6-14,1.3-20,2.1l-1.5-4.5c4.6-3.9,5.6-9.8,4.5-14.4c-0.8-3.3-2.5-5.6-4.6-6.3c1-3.7-0.2-11.2-3.1-13.7
		c-0.3-0.3-0.9-0.7-1.6-0.8c1.1-3.6-0.1-11.3-3.1-13.9c-0.3-0.3-0.9-0.7-1.6-0.8c1.1-3.6-0.1-11.3-3.1-13.9
		c-0.8-0.7-2.7-1.9-5.1,0.4c0.1-1.5,0-3.2-1.1-4.5c-0.3-0.4-0.6-0.7-0.8-1c-0.3-2.1-0.3-6.5,3.7-10.6l-0.7-0.7
		c-3.5,3.6-4.1,7.6-4,10.1c-1.3-1.3-2.4-2.2-3.8-3.3c-0.9-0.7-2-1.5-3.3-2.6l-1-0.8c-0.9-2.1-1.8-6.1,0.5-10.7l-0.9-0.4
		c-2.1,4.2-1.7,7.9-0.9,10.3c-1.8-3.2-4.8-7-9.5-7.4l-0.1,1c5.8,0.5,9,7,10.1,9.9c-0.3,1.7-0.6,3-0.9,4.1c-0.4,1.6-0.8,3.1-0.9,5.2
		c-3.3-5.3-7.6-7.9-12.3-7.4l0.1,0.9c0.4,0,0.8-0.1,1.1-0.1c5.3,0,8.8,4.3,10.9,8.2c0,1.6,0.8,2.9,1.6,4h-0.2
		c-0.6-1.1-2.4-3.1-8.1-4.6l-0.2,0.9c4.9,1.3,6.7,2.9,7.3,3.9c-1.4,0.4-2.4,1.4-2.6,3.1c-0.6,3.8,2.5,10.6,5.5,12.8
		c-0.4,0.5-0.7,1.2-0.8,2c-0.6,3.7,2.5,10.6,5.5,12.8c-0.4,0.5-0.7,1.2-0.8,2c-0.1,0.8-0.1,1.7,0.1,2.6c-4-0.9-12.3-1.5-17.5,1.4
		c-3.1,1.8-4.8,4.6-4.8,8.2c0,11.4,10.4,24.9,12.9,28c-0.5,0.8-0.7,1.6-0.7,2.5c0.2,3.9,0.5,7.7,0.8,11.3c-0.1,0.1-0.1,0.3-0.1,0.4
		c0,0.4,0.1,0.8,0.3,1.2c0.6,6.4,1.5,12.3,2.5,17.7c0,0.4,0.1,0.7,0.2,1.1c1.3,7.2,2.9,13.6,4.6,19.3c0.1,0.4,0.2,0.8,0.4,1.3
		c2.7,8.9,5.7,16,8.3,21.2c0,0.1,0.1,0.3,0.2,0.4c3,6,5.6,9.6,6.7,11.1c6.1,8,13.4,17.7,44.3,20.8h0.4c5.2,0.5,11,0.9,17.5,1
		c0.3,0,0.5,0,0.8,0.1h9.7c38.6-0.5,50.2-6.6,60.1-14c9.1-6.8,20.1-34.1,25.5-80.6c0.1-0.2,0.1-0.5,0.1-0.7
		c0.4-3.7,0.8-7.4,1.1-11.3c0-1-0.5-2-1.4-2.9c2.8-3.5,12.7-16.7,12.7-27.7c0-2.8-0.9-5.1-2.8-6.8c-3.6-3.4-9.7-3.8-13.6-3.6
		c0.1-0.7,0.1-1.3,0-1.9c-0.1-0.8-0.4-1.4-0.8-2c2.9-2.2,6.1-9,5.5-12.8c-0.1-0.8-0.4-1.4-0.8-2c2.9-2.1,6.1-9,5.5-12.8
		c-0.3-1.6-1.1-2.6-2.4-3.1c1-0.9,3-2,6.9-2.7l-0.2-0.9c-4.7,0.9-6.9,2.4-7.9,3.4h-0.5c0.9-1,1.6-2.4,1.7-3.9
		c2-2.6,6.4-7.3,11.8-6.3l0.2-0.9C252.9,303.2,248.6,307.1,246.2,309.9L246.2,309.9z M240.4,302.6c0.6-0.5,1.3-1,2.1-1.6
		c0.3,1.6,0.6,2.8,0.9,3.9c0.5,1.9,0.9,3.5,1,6.3c0.1,2.6-3.3,4.7-3.3,4.7c-1.8,0.5-3,1-3.8,1.5c-0.3-0.9-1-2.2-2.2-3.7h0.1
		c-0.4-1.1-1.3-4.3,0-6C237.1,305.1,238.4,304.1,240.4,302.6L240.4,302.6z M219.6,341.5c0.4-0.3,1.3-1.1,2.9,0.8
		c4,4.4,3.9,6.3,3.9,6.3l1.8,0.7c0,0,0.9-1.6,6.6-2.5c2.2-0.4,2.6,0.6,2.8,1.6c0.6,3.4-2.7,9.6-4.7,10.9c-0.7-0.5-1.6-0.7-2.6-0.7
		c-3.2,0-5.2,0.7-6.4,1.5c-0.4-1.5-1.6-3.4-4.4-5.5c-0.8-0.6-1.6-0.9-2.4-1C216.2,351.2,217.1,343.7,219.6,341.5L219.6,341.5z
		 M220.1,383.1c15.9,3.4,17.2,6.9,17.2,7.9c0,3.1-8.2,6.3-22.3,8.9L220.1,383.1z M220.6,381.3l1.3-4.1c7.8-0.1,13-8.2,13-13.6
		c0-1.1-0.2-2.1-0.7-2.9l0.2-0.2c5.5-1.3,9.3-0.2,10.8,1.4c1.8,2-4.5,13.6-11.4,23.4C230.7,383.9,226.3,382.5,220.6,381.3
		L220.6,381.3z M212.5,360.5c0.7-3,2.4-5.1,4.2-5.1c0.6,0,1.1,0.2,1.7,0.7c4.3,3.2,3.9,5.6,3.8,5.9l-0.1,0.3l1.9,0.4
		c0.1-0.2,1.1-2.2,6.4-2.2c1.8,0,2.7,1,2.7,3.1c0,4.7-4.7,11.7-11.3,11.7c-1,0-1.9-0.1-2.7-0.4C212.4,371.4,211.4,365,212.5,360.5
		L212.5,360.5z M218.3,376.6c0.6,0.2,1.1,0.3,1.7,0.4l-7.1,23.2c-1.4,0.2-2.8,0.4-4.2,0.7l8.2-25.1
		C217.2,376,217.7,376.4,218.3,376.6L218.3,376.6z M212.8,381.8l-6.3,19.4c-5,0.7-10.4,1.3-16.3,1.8l2.9-23.7
		C201.2,380,208.1,381,212.8,381.8L212.8,381.8z M199.4,283.4c0.6-0.6,1.2-1.3,1.9-2.1c0.6,1.5,1.1,2.6,1.6,3.6
		c0.8,1.7,1.6,3.2,2.2,6c0.6,2.6-2.5,5.4-2.5,5.4l0.1,0.1c-1.9,0.9-3.1,1.7-3.8,2.4c-0.5-0.8-1.5-1.9-3.1-3.2l0.2-0.1
		c0,0-2.4-3.5-1.1-5.9C196.5,286.6,197.6,285.3,199.4,283.4L199.4,283.4z M189.3,295.5c0.5-0.7,1.4-1.4,3.3-0.1
		c4.9,3.4,5.2,5.3,5.2,5.3l1.9,0.3c0,0,0.6-1.7,6.3-3.9c2.2-0.8,2.9,0,3.2,0.9c1.4,3.5-1.4,11.5-3.2,12.2l0.1,0.1
		c-0.7-0.1-1.6,0.1-2.6,0.4c-3.4,1.3-5.3,2.5-6.3,3.5c-0.7-1.2-2.3-2.8-5.3-4.9c-0.9-0.6-1.7-0.9-2.4-1.1l0.1-0.1
		C187.9,307,187.1,298.6,189.3,295.5L189.3,295.5z M187.4,311c0.5-0.7,1.4-1.4,3.3-0.1c4.9,3.4,5.2,5.3,5.2,5.3l1.9,0.3
		c0,0,0.6-1.8,6.3-3.9c2.2-0.8,2.9,0,3.2,0.9c1.4,3.5-1.4,11.5-3.2,12.2l0.1,0.1c-0.7-0.1-1.6,0.1-2.6,0.5c-3.4,1.3-5.3,2.5-6.3,3.5
		c-0.8-1.2-2.3-2.8-5.3-4.9c-0.9-0.6-1.7-1-2.4-1.1l0.1-0.1C186,322.5,185.2,314,187.4,311L187.4,311z M185.5,326.4
		c0.5-0.7,1.4-1.4,3.3-0.1c4.9,3.4,5.2,5.3,5.2,5.3l1.9,0.3c0,0,0.6-1.8,6.3-3.9c2.2-0.8,2.9,0,3.2,0.9c1.2,3.2-1,10.1-2.7,11.8
		c-0.8-0.3-1.7-0.3-2.8-0.1c-3.3,0.7-5.2,1.8-6.3,2.9c-0.7-1.4-2.3-3-5.6-4.4c-0.9-0.4-1.8-0.5-2.6-0.4
		C184.1,336.7,183.5,329.3,185.5,326.4L185.5,326.4z M182.1,345.8c0.3-2.6,1.6-5.2,3.8-5.2c0.4,0,0.9,0.1,1.4,0.3
		c5,2.2,5.1,4.5,5,4.9v0.3l0.9,0.1h0.9c0-0.2,0.6-2.4,6.1-3.6c0.3-0.1,0.6-0.1,0.9-0.1c2.4,0,2.6,2.8,2.6,4c0,4.7-3.4,11.2-9.6,12.5
		h-0.2c-0.6,0.1-1.3,0.2-2,0.2h-0.6C184.1,357.2,181.5,350.9,182.1,345.8L182.1,345.8z M191.2,361h0.9c0.4,0,0.8,0,1.2-0.1
		l-5.1,42.1c-1.3,0.1-2.6,0.2-4,0.3l5-43C189.8,360.6,190.5,360.8,191.2,361L191.2,361z M185.2,378.6l-2.9,24.8
		c-7.2,0.4-14.9,0.7-23.1,0.8v-26.7C167.8,377.7,176.9,378.1,185.2,378.6L185.2,378.6z M152.7,280.9c0.7-1,1.5-2.1,2.4-3.6
		c0.7,1,1.3,1.8,1.9,2.5c1.7,2.1,2.8,3.6,4,6.7c0.8,2-1.1,4.6-2,5.6c-2,1.2-3.2,2.2-3.9,3c-0.7-0.8-1.8-1.7-3.7-2.9c0,0-3-3.2-2-5.6
		C150.6,283.9,151.5,282.5,152.7,280.9z M147.9,290c0.1,0.1,0.1,0.3,0.2,0.4c-0.1,0-0.1,0-0.2-0.1V290z M144,293.2
		c0.4-0.9,1.3-2,3.9-0.8c5.7,2.8,6.3,4.5,6.3,4.5l1.9,0.1c0,0,0.5-1.8,6.4-4.7c2.6-1.2,3.5-0.2,3.9,0.7c1.7,3.5-0.3,11.3-2.1,12.3
		l0.1,0.1c-0.8,0-1.7,0.2-2.8,0.8c-3.7,1.8-5.5,3.3-6.5,4.4c-0.9-1.1-2.8-2.6-6.4-4.3c-1.1-0.5-2-0.7-2.8-0.7l0.1-0.1
		C144.2,304.5,142.3,296.6,144,293.2L144,293.2z M143.9,308.8c0.4-0.9,1.3-2,3.9-0.8c5.7,2.8,6.3,4.5,6.3,4.5l1.9,0.1
		c0,0,0.5-1.8,6.4-4.7c2.6-1.3,3.4-0.2,3.9,0.7c1.7,3.5-0.3,11.3-2.1,12.2l0.1,0.1c-0.8,0-1.7,0.2-2.8,0.8c-3.7,1.8-5.5,3.3-6.5,4.4
		c-0.9-1.1-2.8-2.6-6.5-4.3c-1.1-0.5-2-0.7-2.7-0.7l0.1-0.2C144.1,320,142.2,312.2,143.9,308.8L143.9,308.8z M143.9,324.3
		c0.4-0.9,1.3-2,3.9-0.8c5.7,2.8,6.3,4.5,6.3,4.5l1.9,0.1c0,0,0.5-1.8,6.4-4.7c2.5-1.2,3.5-0.2,3.9,0.7c1.6,3.2,0,10.2-1.7,12
		c-0.9-0.2-1.9-0.2-2.9,0.1c-3.9,1-5.8,2.5-6.7,3.8c-1-1.2-2.9-2.6-6.5-3.8c-1.1-0.4-2.1-0.4-3-0.2
		C143.8,334.3,142.3,327.5,143.9,324.3L143.9,324.3z M143.3,342.6c0.1-2.3,0.9-4.7,3.2-4.7c0.4,0,0.9,0.1,1.4,0.2
		c5.8,1.9,6.2,4.1,6.2,4.3v0.3l0.9-0.1l1-0.1c0-0.3,0.3-2.8,6.2-4.4c0.4-0.1,0.8-0.2,1.2-0.2c2.7,0,3.8,2.7,3.9,5.1
		c0.3,4.5-2.7,11.6-12,12.7C146.9,355.2,143.2,347.6,143.3,342.6L143.3,342.6z M155.3,357.6h0.2c0.7-0.1,1.3-0.2,1.9-0.3l-0.1,47.1
		h-4.7l0.1-47.2C153.4,357.4,154.3,357.6,155.3,357.6z M150.7,377.6v26.8c-7.7,0-15.1-0.2-22-0.6l-3.1-25.5
		C133.5,377.9,141.9,377.6,150.7,377.6L150.7,377.6z M105.8,290.9c0.7-2.7,1.4-4.2,2.2-6c0.5-1,1-2.1,1.6-3.6
		c0.7,0.8,1.3,1.5,1.9,2.1c1.8,1.9,2.9,3.2,4.5,6.2c1.2,2.4-1.1,5.8-1.1,5.9l0.1,0.1c-1.6,1.4-2.6,2.5-3.2,3.3
		c-0.7-0.7-1.9-1.5-3.7-2.4l0.2-0.2C108.3,296.3,105.2,293.5,105.8,290.9z M101.7,298c0.3-0.9,1-1.7,3.2-0.9
		c5.6,2.1,6.3,3.8,6.3,3.8l1.9-0.1c0,0,0.2-1.9,5.2-5.3c1.9-1.4,2.8-0.7,3.3,0.1c2.2,3,1.4,11.5-0.2,12.6l0.1,0.1
		c-0.7,0.1-1.5,0.4-2.4,1.1c-3,2.1-4.5,3.8-5.3,4.9c-1-1-2.9-2.2-6.3-3.5c-1-0.4-1.9-0.5-2.6-0.4l0.1-0.1
		C103.1,309.5,100.3,301.5,101.7,298L101.7,298z M103.5,313.5c0.3-0.9,1-1.7,3.2-0.9c5.6,2.1,6.3,3.8,6.3,3.8l1.9-0.1
		c0,0,0.2-1.8,5.2-5.3c1.9-1.4,2.8-0.7,3.3,0.1c2.2,3,1.4,11.5-0.2,12.6l0.1,0.1c-0.7,0.1-1.5,0.4-2.4,1.1c-3,2.1-4.5,3.7-5.3,4.9
		c-1-1-2.9-2.2-6.3-3.5c-1-0.4-1.9-0.5-2.6-0.5l0.1-0.1C105,325,102.2,317,103.5,313.5z M105.4,328.9c0.3-0.9,1-1.7,3.2-0.9
		c5.6,2.1,6.3,3.8,6.3,3.8l1.9-0.1c0,0,0.2-1.9,5.2-5.3c1.9-1.4,2.8-0.7,3.3,0.1c2,2.8,1.5,10.3,0.1,12.3c-0.8-0.1-1.7,0-2.6,0.4
		c-3.3,1.4-4.8,3.1-5.6,4.4c-1.1-1.1-2.9-2.2-6.3-2.9c-1-0.2-2-0.2-2.8,0.1C106.3,339,104.2,332.1,105.4,328.9z M107,346.4
		c0-1.3,0.3-2.3,0.7-3c0.4-0.7,1.1-1,1.9-1c0.3,0,0.6,0,0.9,0.1c5.5,1.2,6.1,3.4,6.1,3.5v0.3l1.9-0.5c0-0.5,0-2.8,5-5
		c0.5-0.2,0.9-0.3,1.4-0.3c2.2,0,3.5,2.6,3.8,5.2c0.6,5.1-2,11.5-9.2,13.3C111.5,359.6,107,351.7,107,346.4z M118.7,361
		c0.3,0,0.6,0,1.1-0.1s1.1-0.3,1.6-0.5l5.3,43.2c-1.4-0.1-2.8-0.2-4.2-0.2l-5.2-42.6C117.7,361,118.2,361,118.7,361z M117.5,378.8
		l3,24.5c-5.5-0.4-10.6-0.8-15.4-1.4l-7.2-21.1C103.8,380,110.4,379.4,117.5,378.8z M103,401.7c-1.6-0.2-3.2-0.4-4.7-0.6L90.7,377
		c0.6-0.1,1.3-0.2,2-0.5c0.5-0.3,1-0.5,1.4-0.8L103,401.7z M88.7,377.1l1,3.1c-7.6,1.4-13.5,2.9-17.4,4.6
		c-5.2-7.3-12.9-19.4-12-22.4c0.1-0.2,0.1-0.2,0.2-0.3l0.7-0.3c4.1-1.6,5.7-2.3,14.8,0.6c-0.1,0.3-0.1,0.7-0.1,1.1
		C75.9,368.9,81,376.9,88.7,377.1L88.7,377.1z M90.3,382.1l5.9,18.7c-17.8-2.6-28.4-6.3-28.4-9.8C67.8,388.6,73.7,385,90.3,382.1
		L90.3,382.1z M98.3,360.5c1.1,4.5,0,10.9-6.4,14.3c-1,0.3-1.9,0.4-2.9,0.4c-6.5,0-11.3-7-11.3-11.7c0-1,0.2-1.8,0.7-2.3
		c0.4-0.5,1.1-0.8,2-0.8c5.3,0,6.3,2,6.3,2.1l0.1,0.3l1.7-0.8c-0.1-0.4-0.5-2.8,3.8-6C94.8,354.4,97.4,356.6,98.3,360.5z
		 M67.2,304.8c0.3-1.1,0.6-2.3,0.9-3.9c0.8,0.6,1.5,1.1,2.1,1.6c2,1.5,3.4,2.5,5.3,5.1c1.3,1.7,0.5,4.9,0,6l0.2,0.1
		c-1.2,1.6-1.8,2.8-2.1,3.7c-0.8-0.5-2.1-1.1-4.1-1.6c-0.4-0.3-3.4-2.3-3.3-4.7C66.3,308.3,66.7,306.7,67.2,304.8L67.2,304.8z
		 M63.9,318.9c0.2-1,0.6-1.9,2.8-1.6c5.6,0.9,6.5,2.4,6.5,2.4l1.8-0.5c0,0-0.2-1.9,3.9-6.4c1.7-1.9,2.6-1.1,2.9-0.8
		c2.7,2.4,3.6,11,2.2,12.5l0.1,0.1c-0.6,0.3-1.3,0.7-2.1,1.6c-2.4,2.7-3.5,4.6-4,5.9c-1.1-0.7-3.1-1.5-6.5-2c-1-0.2-1.8-0.1-2.5,0.1
		v-0.1C67.4,329.8,63.3,322.6,63.9,318.9z M68.6,333.6c0.2-1,0.6-1.9,2.8-1.6c5.6,0.9,6.5,2.4,6.5,2.4l1.8-0.5c0,0-0.2-1.9,3.9-6.4
		c1.7-1.9,2.6-1.1,2.9-0.8c2.7,2.3,3.6,11,2.2,12.5l0.1,0.1c-0.6,0.3-1.3,0.7-2.1,1.6c-2.4,2.7-3.5,4.6-4,5.9
		c-1.1-0.7-3.1-1.5-6.5-2c-1-0.2-1.8-0.1-2.5,0.1v-0.1C72,344.5,67.9,337.3,68.6,333.6z M73.2,348.3c0.2-1,0.6-1.9,2.8-1.6
		c5.6,0.9,6.5,2.4,6.5,2.4l1.8-0.5c0,0-0.2-1.9,3.9-6.4c1.7-1.9,2.6-1.1,2.9-0.8c2.5,2.2,3.4,9.8,2.5,12.1c-0.8,0.1-1.6,0.4-2.4,1
		c-2.8,2.1-4,4-4.4,5.5c-1.2-0.8-3.2-1.5-6.4-1.5c-1.1,0-2,0.3-2.6,0.7c-1.4-1-3.6-4.6-4.4-7.8l0.1-0.1c0,0-0.1,0-0.1-0.1
		C73.2,350.2,73.1,349.2,73.2,348.3L73.2,348.3z M234.4,443.8l-0.3,0.3c-1.3,1.9-4.5,4.1-9.5,6.2c1.3-5.6,2.5-11.9,3.5-18.7
		c4.4-1.9,7.8-3.7,10-5.5C237,432.5,235.7,438.4,234.4,443.8z M228.9,461.7l-0.2,0.2c-1.4,2.2-4.8,4.6-9.8,7.1
		c1.9-4.8,3.6-10.3,5.2-16.5c4.1-1.7,7.3-3.4,9.3-5.1C232,452.8,230.5,457.5,228.9,461.7z M197.3,491.7c-4.3,1.1-9.4,2.1-15.6,2.8
		c7-3,11.7-7.7,15.1-16.3c7.3-1.6,13.5-3.5,18.5-5.5c-4.8,10-10.6,16.2-17.8,18.9C197.4,491.6,197.3,491.6,197.3,491.7z M197.6,476
		c1.6-4.6,2.9-10.2,4-17.1c8.1-1.6,15-3.5,20.4-5.6c-1.6,6.4-3.5,12-5.5,16.8C211.4,472.2,205.1,474.3,197.6,476L197.6,476z
		 M80.1,463.6c-2.2-4.4-4.6-10-7-17c2.6,2.1,6.7,4.2,11.8,6.2c1.6,6.2,3.4,12.2,5.6,17.5C85.4,468.1,81.9,465.7,80.1,463.6z
		 M71.5,441.4c0-0.3-0.1-0.4-0.2-0.6c-1.3-4.5-2.6-9.5-3.7-15c2.9,2.4,7.6,4.8,13,6.8c1.1,6,2.4,12,3.8,17.9
		c-7.1-2.9-11.4-5.8-12.6-8C71.7,442.2,71.6,441.8,71.5,441.4L71.5,441.4z M199.8,457.3c-8.3,1.6-17.8,2.8-28.4,3.5
		c0.3-5.1,0.5-10.8,0.6-17.4c10.9-0.8,21.1-2.3,30-4.1C201.3,446.1,200.6,452.1,199.8,457.3L199.8,457.3z M204,438.8
		c8.7-1.9,16.2-4.1,22.1-6.4c-1.1,6.9-2.3,13.1-3.6,18.7c-5.3,2.1-12.3,4.1-20.6,5.7C202.6,451.6,203.3,445.6,204,438.8L204,438.8z
		 M169.5,460.9c-5.3,0.3-10.8,0.5-16.5,0.5c-6.2,0-12.1-0.2-17.7-0.6c-0.5-5-0.9-10.8-1.3-17.4c5.9,0.4,12.2,0.7,19,0.7
		c5.9,0,11.6-0.2,17.1-0.6C170,450.1,169.8,455.9,169.5,460.9z M133.4,460.6c-9.6-0.7-18.3-1.9-25.8-3.4c-0.9-5.1-1.6-11-2.3-17.6
		c7.3,1.5,16.4,2.9,26.9,3.7C132.5,449.8,132.9,455.6,133.4,460.6L133.4,460.6z M105.6,456.8c-7.5-1.6-13.9-3.4-19-5.4
		c-1.5-5.8-2.7-11.9-3.9-17.9c2.6,0.9,5.4,1.8,8.1,2.6c3.2,0.9,7.4,2,12.5,3.1C104,445.8,104.8,451.6,105.6,456.8L105.6,456.8z
		 M87.2,453.7c5.3,1.9,11.6,3.6,18.8,5.1c1.2,7.2,2.7,13,4.3,17.7c-6.8-1.5-12.5-3.2-17.1-5C90.8,466.1,88.8,460.1,87.2,453.7
		L87.2,453.7z M107.9,459.2c7.7,1.5,16.3,2.7,25.7,3.4c0.7,7.1,1.6,12.8,2.5,17.4c-9-0.6-16.9-1.7-23.7-3
		C110.7,472.3,109.2,466.5,107.9,459.2z M135.5,462.7c5.6,0.4,11.4,0.6,17.5,0.6c5.7,0,11.2-0.2,16.4-0.5
		c-0.4,7.2-1.1,12.9-1.8,17.2c-4.6,0.3-9.5,0.4-14.6,0.4c-5.2,0-10.2-0.2-14.9-0.4C137.2,475.6,136.3,469.9,135.5,462.7L135.5,462.7
		z M171.3,462.7c10.5-0.7,19.9-1.9,28.2-3.4c-1.2,7.1-2.5,12.7-4.2,17.2c-7.5,1.6-16.1,2.8-25.8,3.5
		C170.2,475.4,170.9,469.8,171.3,462.7L171.3,462.7z M238.7,422.8c-1.6,2-5.1,4.3-10.2,6.6c0.8-5.3,1.5-11,2.1-17.1
		c4.8-2,8.4-4,10.6-5.9C240.4,412.1,239.6,417.6,238.7,422.8L238.7,422.8z M226.4,430.2c-5.8,2.4-13.4,4.7-22.2,6.6
		c0.5-5.2,1-11,1.4-17.2c9-1.9,16.8-4.2,22.9-6.6C227.9,419.2,227.2,424.9,226.4,430.2L226.4,430.2z M202.2,437.2
		c-9,1.9-19.2,3.4-30.2,4.2c0.1-5.2,0.1-10.9,0-17.2c11.4-0.8,22.1-2.3,31.6-4.3C203.2,426.3,202.7,432,202.2,437.2L202.2,437.2z
		 M170.1,424.4c0.1,6.3,0.1,12,0,17.2c-5.5,0.4-11.3,0.6-17.1,0.6c-6.6,0-13-0.3-19.1-0.7c-0.3-5.2-0.5-11-0.7-17.2
		c6.4,0.5,13,0.7,19.8,0.7C158.8,425,164.6,424.8,170.1,424.4z M131.3,424.1c0.2,6.3,0.4,12,0.7,17.2c-9.9-0.8-18.9-2.2-27-3.8
		c-0.5-5.2-1-10.9-1.5-17.2C112,421.9,121.3,423.3,131.3,424.1z M101.6,419.9c0.5,6.2,1,11.9,1.5,17.2c-8.1-1.7-15.2-3.8-20.8-5.9
		c-0.7-3.6-1.3-7.2-2-10.8l-1.2-6.6C85.3,416.1,92.9,418.2,101.6,419.9L101.6,419.9z M77,413.1c0.5,2.5,0.9,5.1,1.4,7.7
		c0.6,3.2,1.1,6.4,1.7,9.6c-7.8-3.1-12.5-6.1-13.3-8.3c-0.9-4.8-1.7-10.1-2.3-15.6C67,408.6,71.3,410.9,77,413.1L77,413.1z
		 M86.7,474.6c-0.8-1-2.3-3.1-4.2-6.4c2.4,1.6,5.4,3.2,9.1,4.7c2.7,6,5.9,11.1,9.8,14.9C93.8,484,90.2,479.2,86.7,474.6z
		 M107.2,490.3c-0.1-0.2-0.2-0.4-0.4-0.5c-5.2-3.4-9.3-8.9-12.6-15.8c4.7,1.7,10.3,3.3,16.7,4.6c3.1,8.2,7,12.7,11.9,15.5
		C116.5,493,111.4,491.8,107.2,490.3L107.2,490.3z M130.1,494.8c-7.3-2.1-12.7-5.9-16.9-15.9c7,1.3,14.8,2.3,23.4,2.9
		c1.8,7.7,3.9,11.7,6.1,13.8C138.1,495.5,133.9,495.2,130.1,494.8z M147.6,495.8c-3.1-0.3-6.4-2.6-9.1-13.8
		c4.6,0.3,9.4,0.4,14.5,0.4c5,0,9.7-0.1,14.2-0.4c-2.5,12.8-6.2,13.5-9.6,13.8H147.6L147.6,495.8z M169.1,481.9
		c9.4-0.6,17.9-1.8,25.3-3.3c-4.4,10.6-10.8,13.9-20.7,16.5c-0.1,0-0.1,0.1-0.2,0.1c-3.1,0.2-6.5,0.4-10.1,0.5
		C165.6,493.7,167.6,489.8,169.1,481.9L169.1,481.9z M216.8,482.1c-3.1,2.3-6.4,4.5-10.8,6.5c4.5-3.9,8.4-9.5,11.8-17
		c4-1.7,7.1-3.6,9.3-5.3C223.7,474.4,220.1,479.7,216.8,482.1z M251.8,354.9c1.5,1.4,2.2,3.1,2.2,5.4c0,12-12.8,27.2-12.9,27.4
		l0.1,0.1c-0.2,0.4-0.1,0.9,0.2,1.2c0.9,0.7,1.4,1.4,1.4,1.9c-0.4,4-0.8,8-1.2,11.7c-1.1,6.3-38.1,20.4-88.6,20.4
		c-48.3,0-85.7-13.4-88.8-19.8c-0.4-4-0.7-8.2-1-12.6c0-0.6,0.1-1.1,0.5-1.6c0.3-0.4,0.2-0.8,0-1.2l0.2-0.2
		c-0.1-0.2-12.9-15.4-12.9-27.4c0-3,1.2-5.1,3.8-6.6c5.2-3,14.3-1.9,17-1c1,3.1,2.9,6.4,4.7,7.9c-9.8-3.1-11.8-2.3-16.1-0.5
		l-0.7,0.3c-0.7,0.3-1.1,0.8-1.3,1.5c-1.3,4.6,8.8,19.3,12.1,23.8c-3.1,1.6-4.6,3.4-4.6,5.3c0,10,44.6,15.3,86.6,15.3
		c12.2,0,24.7-0.5,36.2-1.3c0.1,0,0.1,0.1,0.2,0.1h0.1c0.2,0,0.3-0.1,0.5-0.1c27.7-2.2,49.7-6.9,49.7-13.9c0-1.7-1.2-3.3-3.7-4.7
		c4.1-5.8,14.6-21.6,11.1-25.6c-1.5-1.7-4.9-3.1-10.2-2.5c1.2-1.8,2.3-4.2,2.8-6.4C242.3,351.7,248.5,351.9,251.8,354.9L251.8,354.9
		z M237,344.8v0.1c-0.7-0.2-1.5-0.3-2.5-0.1c-3.4,0.5-5.4,1.3-6.5,2c-0.5-1.3-1.6-3.2-4-5.9c-0.7-0.8-1.4-1.3-2.1-1.6l0.1-0.1
		c-1.3-1.5-0.4-10.2,2.2-12.5c0.4-0.3,1.3-1.1,2.9,0.8c4,4.4,3.9,6.3,3.9,6.3l1.8,0.6c0,0,0.9-1.6,6.6-2.4c2.2-0.3,2.6,0.6,2.8,1.6
		C242.8,337.3,238.8,344.5,237,344.8z M241.6,330.1v0.1c-0.7-0.2-1.6-0.3-2.5-0.1c-3.4,0.5-5.4,1.3-6.5,2.1c-0.5-1.3-1.6-3.2-4-5.9
		c-0.7-0.8-1.4-1.3-2.1-1.6l0.1-0.1c-1.3-1.5-0.4-10.2,2.2-12.5c0.4-0.3,1.3-1.1,2.9,0.8c4,4.4,3.9,6.3,3.9,6.3l1.8,0.6
		c0,0,0.9-1.5,6.6-2.4c2.2-0.3,2.6,0.6,2.8,1.6C247.5,322.6,243.4,329.8,241.6,330.1z M706,309.9c-0.2-2.3-0.5-3.8-1-5.5
		c-0.3-1.2-0.6-2.6-0.9-4.4c1.3-2.8,5-9.2,10.8-9.3v-1c-4.7,0.1-8,3.6-10,6.7c0.9-2.3,1.6-6-0.2-10.4l-0.9,0.4
		c2.1,5.2,0.5,9.3-0.5,11.2l-0.9,0.8c-1.3,1.1-2.4,1.9-3.3,2.6c-1.3,0.9-2.3,1.7-3.4,2.8c0.2-2.5-0.2-6.3-3.3-10l-0.7,0.6
		c3.5,4.2,3.4,8.3,3,10.5c-0.4,0.4-0.8,0.9-1.2,1.4c-1,1.3-1.2,2.9-1.1,4.3c-2.3-2-4.2-0.9-4.9-0.2c-2.9,2.6-4.2,10.3-3.1,13.9
		c-0.7,0.2-1.2,0.5-1.6,0.8c-2.9,2.6-4.2,10.3-3.1,13.9c-0.7,0.2-1.2,0.5-1.6,0.8c-2.9,2.6-4.1,10.1-3.1,13.7
		c-2.1,0.7-3.8,3-4.6,6.3c-1.1,4.6,0,10.5,4.6,14.4l-1.8,5.4c-4.7-0.8-11.8-1.8-20.2-2.6l2-16.8c6.8-1.8,10.5-9,10.5-14.2
		c0-2-0.5-3.5-1.5-4.5c2.5-2.9,4.3-10.1,2.9-13.6c-0.2-0.5-0.5-1.2-1.2-1.7c2.6-2.8,4.5-10.2,3.1-13.8c-0.2-0.5-0.5-1.2-1.2-1.7
		c2.6-2.8,4.5-10.2,3.1-13.7c-0.3-0.8-1.1-2.2-3-2.4c0.5-1.1,2-3,6.3-5.1l-0.4-0.9c-4.9,2.5-6.4,4.7-6.9,6c-0.3,0-0.5,0.1-0.8,0.2
		c0.8-1.3,1.4-2.9,1-4.6c1.2-3.1,4.2-9.2,9.7-9.7l-0.1-1c-5.5,0.6-8.6,5.7-10.1,9.1c-0.6-2-1.2-3.3-2-4.8c-0.5-1-1-2.1-1.6-3.5
		c0.5-3.1,2.2-10.3,7.9-12l-0.3-0.9c-4.5,1.4-6.7,5.7-7.7,9.2c0.2-2.5-0.1-6.2-3-9.9l-0.8,0.6c3,3.9,3.1,7.8,2.7,10l-0.9,1.2
		c-1.1,1.4-2.1,2.4-2.9,3.3c-1.2,1.3-2.1,2.4-3.1,3.8c-0.3-2.4-1.5-5.6-6.3-8.8l-0.5,0.8c5.4,3.6,6,7.2,5.9,9.4
		c-0.2,0.4-0.5,0.8-0.7,1.3c-0.8,1.6-0.6,3.4-0.1,4.8c-3-1.8-4.8,0-5.4,0.9c-2.2,3.1-2.2,10.8-0.3,14.1c-0.8,0.4-1.3,0.9-1.6,1.4
		c-2.2,3.1-2.2,10.8-0.3,14.1c-0.8,0.4-1.3,0.9-1.6,1.3c-2.2,3.1-2.2,10.7-0.4,14c-1.7,1-3,3.3-3.4,6.2c-0.6,5,1.4,10.9,7.2,14
		l-2,17.2c-8.3-0.6-17.5-0.9-26.2-1v-18.9c7.6-2.5,10.2-9.3,9.9-13.9c-0.2-2.7-1.2-4.8-2.8-5.9c2.3-3,3.4-10.1,1.6-13.6
		c-0.3-0.5-0.8-1.3-1.7-1.8c2.4-3,3.5-10.2,1.7-13.7c-0.3-0.5-0.8-1.3-1.7-1.8c2.4-3,3.5-10.2,1.7-13.7c-0.5-1.1-2.1-3.3-5.6-1.9
		c0.6-1.4,1-3,0.3-4.5c-0.5-1.4-1.1-2.4-1.6-3.4c0.4-2.2,1.7-6.2,6.5-8.8l-0.5-0.8c-4.5,2.5-6.1,6.1-6.8,8.6
		c-0.6-0.9-1.2-1.7-1.9-2.6c-0.8-1-1.7-2.1-2.7-3.7l-0.1-0.2h0.1c0-0.1-1.9-6.3,3.3-11.8l-0.7-0.7c-3.2,3.4-3.9,7.1-3.9,9.6
		c-0.8-3.6-2.6-8.2-6.9-9.9l-0.4,0.9c5.4,2.1,6.5,9.3,6.8,12.5c-1.1,1.9-2,3.2-2.8,4.4c-0.9,1.2-1.7,2.4-2.5,3.9
		c-1.1-3.5-3.8-9.2-9.3-10.3l-0.2,0.9c5.5,1.1,8,7.5,8.9,10.6c-0.1,0.2-0.2,0.5-0.3,0.8c-0.4,0.9-0.4,1.9-0.3,2.7
		c-0.6-1.4-2.2-3.4-6-5.7l-0.5,0.8c5.3,3.3,5.9,5.7,6,6.4c-2.9-0.6-4.2,1.3-4.7,2.3c-1.7,3.5-0.7,10.7,1.7,13.7
		c-0.9,0.5-1.5,1.4-1.7,1.9c-1.7,3.5-0.6,10.7,1.7,13.7c-0.9,0.5-1.4,1.4-1.7,1.9c-1.7,3.5-0.7,10.5,1.5,13.5
		c-1.4,1.1-2.2,3-2.3,5.5c-0.1,4.8,2.8,11.6,9.3,14.1v19c-8.8,0-17.4,0.3-25.4,0.7l-2.1-16.7c5.9-3,8-9.1,7.4-14.1
		c-0.4-2.9-1.7-5.1-3.4-6.2c1.8-3.4,1.8-11-0.3-14c-0.3-0.4-0.8-1-1.6-1.3c1.9-3.3,1.9-11-0.3-14.1c-0.3-0.4-0.8-1-1.5-1.3
		c1.9-3.3,1.9-11-0.3-14.1c-0.6-0.9-2.3-2.5-5.1-1c0.4-1.4,0.6-3.2-0.2-4.7c-0.5-0.9-0.9-1.6-1.3-2.3c-0.1-2.2,0.3-6.5,4.6-10.2
		l-0.6-0.7c-3.7,3.2-4.7,7-4.9,9.5c-0.8-1-1.6-1.9-2.5-3c-0.8-0.9-1.8-1.9-2.9-3.3l-0.3-0.4c-0.5-1-2.7-6.2,0.8-12l-0.8-0.5
		c-2.5,4-2.4,7.7-1.8,10.2c-1.5-3.4-4.2-7.4-8.8-8.2l-0.2,0.9c5.8,1,8.4,7.9,9.3,10.9c-0.7,1.9-1.4,3.2-1.9,4.4
		c-0.7,1.5-1.4,2.8-2,4.9c-1.8-3.2-5.5-8.1-11-8.1h-0.2v1h0.2c5.5,0,9.1,5.6,10.7,8.5v0.1c-0.4,1.7,0.2,3.4,1,4.7
		c-0.1,0-0.3-0.1-0.4-0.1c-0.7-1.2-2.6-3.1-7.4-4.8l-0.3,0.9c3.7,1.3,5.5,2.7,6.4,3.8c-2.1,0-3,1.6-3.4,2.4
		c-1.4,3.5,0.5,11,3.1,13.7c-0.7,0.5-1,1.2-1.2,1.7c-1.4,3.5,0.5,11,3.1,13.8c-0.7,0.5-1,1.2-1.2,1.7c-1.4,3.5,0.4,10.7,2.9,13.6
		c-0.1,0.2-0.3,0.3-0.4,0.5c-0.7,1-1,2.4-1,4c0,5.1,3.6,12.3,10.2,14.1l2,16.4c-7.2,0.6-14,1.3-20,2.1l-1.5-4.5
		c4.5-3.9,5.6-9.8,4.5-14.4c-0.8-3.3-2.5-5.6-4.6-6.3c1-3.7-0.2-11.2-3.1-13.7c-0.3-0.3-0.9-0.7-1.6-0.8c1.1-3.6-0.1-11.3-3.1-13.9
		c-0.3-0.3-0.9-0.7-1.6-0.8c1.1-3.6-0.1-11.3-3.1-13.9c-0.8-0.7-2.7-1.9-5.1,0.4c0.1-1.5,0-3.2-1-4.5c-0.3-0.4-0.6-0.7-0.8-1
		c-0.3-2.1-0.3-6.5,3.6-10.6l-0.7-0.7c-3.5,3.6-4.1,7.6-4,10.1c-1.3-1.3-2.4-2.2-3.8-3.3c-0.9-0.7-2-1.5-3.3-2.6l-1-0.8
		c-0.8-2.1-1.8-6.1,0.5-10.7l-0.9-0.4c-2.1,4.2-1.7,7.9-0.9,10.3c-1.8-3.2-4.8-7.1-9.5-7.5l-0.1,1c5.8,0.5,9,7,10.1,10
		c-0.3,1.7-0.6,3-0.9,4.1c-0.4,1.6-0.8,3.1-0.9,5.2c-3.3-5.3-7.5-7.9-12.3-7.4l0.1,0.9c5.9-0.6,9.8,3.9,12.1,8.2
		c0,1.6,0.8,2.9,1.6,4h-0.2c-0.6-1.1-2.4-3.1-8.1-4.6l-0.3,0.9c4.9,1.3,6.7,2.9,7.3,3.9c-1.4,0.4-2.4,1.4-2.6,3.1
		c-0.6,3.8,2.5,10.6,5.5,12.8c-0.4,0.5-0.7,1.2-0.8,1.9c-0.6,3.8,2.5,10.6,5.5,12.8c-0.4,0.5-0.7,1.2-0.8,2s-0.1,1.7,0.1,2.6
		c-4-0.9-12.3-1.5-17.5,1.4c-3.1,1.8-4.8,4.6-4.8,8.2c0,11.4,10.4,24.9,12.9,28c-0.5,0.8-0.7,1.6-0.7,2.5c0.2,3.9,0.5,7.7,0.8,11.3
		c-0.1,0.1-0.1,0.3-0.1,0.4c0,0.4,0.1,0.8,0.3,1.2c0.6,6.4,1.5,12.3,2.5,17.7c0,0.4,0.1,0.8,0.2,1.1c1.3,7.2,2.9,13.6,4.6,19.3
		c0.1,0.4,0.2,0.9,0.4,1.3c2.7,8.9,5.7,15.9,8.3,21.2c0,0.1,0.1,0.3,0.2,0.4c3,6,5.6,9.6,6.7,11.1c6.1,8,13.4,17.7,44.3,20.8h0.4
		c5.2,0.5,11,0.9,17.5,1c0.3,0,0.5,0,0.8,0.1h9.7c38.7-0.5,50.2-6.6,60.1-14c9.1-6.8,20.1-34.1,25.5-80.6c0.1-0.2,0.1-0.5,0.1-0.7
		c0.4-3.7,0.8-7.4,1.1-11.3c0-1-0.5-2-1.4-2.9c2.8-3.5,12.7-16.7,12.7-27.7c0-2.8-0.9-5.1-2.8-6.8c-3.6-3.4-9.7-3.8-13.6-3.6
		c0.1-0.7,0.1-1.3,0-1.9c-0.1-0.8-0.4-1.4-0.8-2c2.9-2.2,6.1-9,5.5-12.8c-0.1-0.8-0.4-1.4-0.8-2c2.9-2.2,6.1-9,5.5-12.8
		c-0.3-1.6-1.1-2.6-2.4-3.1c1-0.9,3-2,6.9-2.7l-0.2-0.9c-4.7,0.9-6.9,2.4-7.9,3.4h-0.5c0.9-1,1.6-2.4,1.7-3.9
		c2-2.6,6.5-7.3,11.8-6.3l0.2-0.9C712.7,303.2,708.4,307.1,706,309.9L706,309.9z M700.2,302.6c0.6-0.5,1.3-1,2.1-1.6
		c0.3,1.6,0.6,2.8,0.9,3.9c0.5,1.9,0.9,3.5,1,6.3c0.1,2.6-3.3,4.7-3.3,4.7c-1.8,0.5-3,1-3.8,1.5c-0.3-0.9-1-2.2-2.2-3.7
		c-0.4-1.1-1.3-4.3,0-6C696.9,305.1,698.2,304.1,700.2,302.6L700.2,302.6z M679.4,341.5c0.4-0.3,1.3-1.1,2.9,0.8
		c4,4.4,3.9,6.3,3.9,6.3l1.8,0.6c0,0,0.9-1.5,6.6-2.4c2.2-0.3,2.6,0.6,2.8,1.6c0.5,3.4-2.7,9.6-4.7,10.9c-0.7-0.5-1.6-0.7-2.6-0.7
		c-3.2,0-5.2,0.7-6.4,1.5c-0.4-1.5-1.6-3.4-4.4-5.5c-0.8-0.6-1.6-0.9-2.4-1C676,351.2,676.9,343.7,679.4,341.5L679.4,341.5z
		 M679.9,383.1c15.9,3.4,17.2,6.9,17.2,7.9c0,3.1-8.2,6.3-22.3,8.8L679.9,383.1L679.9,383.1z M680.4,381.3l1.3-4.1
		c7.8-0.1,13-8.2,13-13.6c0-1.1-0.2-2.1-0.7-2.9l0.2-0.2c5.4-1.3,9.3-0.2,10.8,1.4c1.8,2-4.5,13.6-11.4,23.4
		C690.5,383.9,686.1,382.5,680.4,381.3L680.4,381.3z M672.3,360.5c0.7-3,2.4-5.1,4.2-5.1c0.6,0,1.1,0.2,1.7,0.7
		c4.3,3.2,3.9,5.6,3.8,5.9l-0.1,0.3l1.9,0.4c0.1-0.2,1.1-2.2,6.4-2.2c1.8,0,2.7,1,2.7,3.1c0,4.7-4.7,11.7-11.3,11.7
		c-1,0-1.9-0.1-2.7-0.4C672.2,371.4,671.2,365,672.3,360.5L672.3,360.5z M678.1,376.6c0.5,0.2,1.1,0.3,1.7,0.4l-7.1,23.2
		c-1.4,0.2-2.8,0.4-4.2,0.7l8.2-25.1C677,376,677.5,376.3,678.1,376.6L678.1,376.6z M672.6,381.8l-6.3,19.4
		c-5,0.7-10.4,1.3-16.4,1.8l2.9-23.7C661,380,667.9,381,672.6,381.8L672.6,381.8z M659.2,283.4c0.6-0.6,1.2-1.3,1.9-2.1
		c0.6,1.5,1.1,2.6,1.6,3.6c0.8,1.7,1.6,3.2,2.2,6c0.6,2.6-2.5,5.4-2.5,5.4l0.1,0.1c-1.9,0.9-3.1,1.7-3.8,2.4
		c-0.5-0.8-1.5-1.9-3.1-3.2l0.2-0.1c0,0-2.4-3.5-1.1-5.9C656.3,286.6,657.4,285.3,659.2,283.4L659.2,283.4z M649.1,295.5
		c0.5-0.7,1.4-1.4,3.3-0.1c4.9,3.4,5.2,5.3,5.2,5.3l1.9,0.3c0,0,0.6-1.7,6.3-3.9c2.2-0.8,2.9,0,3.2,0.9c1.4,3.5-1.4,11.5-3.2,12.2
		l0.1,0.1c-0.7-0.1-1.6,0.1-2.6,0.4c-3.4,1.3-5.3,2.5-6.3,3.5c-0.8-1.2-2.3-2.8-5.3-4.9c-0.9-0.6-1.7-1-2.4-1.1l0.1-0.1
		C647.7,307,646.9,298.6,649.1,295.5L649.1,295.5z M647.2,311c0.5-0.7,1.4-1.4,3.3-0.1c4.9,3.4,5.2,5.3,5.2,5.3l1.9,0.3
		c0,0,0.6-1.8,6.3-3.9c2.2-0.9,2.9,0,3.2,0.9c1.4,3.5-1.4,11.5-3.2,12.2l0.1,0.1c-0.7-0.1-1.6,0.1-2.6,0.5c-3.4,1.3-5.3,2.5-6.3,3.5
		c-0.8-1.2-2.3-2.8-5.3-4.9c-0.9-0.6-1.7-1-2.4-1.1l0.1-0.1C645.8,322.5,645,314,647.2,311L647.2,311z M645.3,326.4
		c0.5-0.7,1.4-1.4,3.3-0.1c4.9,3.4,5.2,5.3,5.2,5.3l1.9,0.3c0,0,0.6-1.8,6.3-3.9c2.2-0.8,2.9,0,3.2,0.9c1.2,3.2-1,10.1-2.7,11.8
		c-0.8-0.3-1.7-0.4-2.8-0.1c-3.3,0.7-5.2,1.8-6.3,2.9c-0.7-1.4-2.3-3-5.6-4.4c-0.9-0.4-1.8-0.5-2.6-0.4
		C643.9,336.7,643.3,329.3,645.3,326.4L645.3,326.4z M641.9,345.7c0.3-2.6,1.6-5.2,3.8-5.2c0.4,0,0.9,0.1,1.4,0.3
		c5,2.2,5.1,4.5,5,4.9v0.3l0.9,0.1h0.9c0-0.2,0.6-2.4,6.1-3.6c0.3-0.1,0.6-0.1,0.9-0.1c2.4,0,2.6,2.8,2.6,4
		c0,5.2-4.2,12.7-11.7,12.7h-0.6C643.9,357.2,641.3,350.9,641.9,345.7L641.9,345.7z M651,361h0.9c0.4,0,0.8,0,1.2-0.1L648,403
		c-1.3,0.1-2.6,0.2-4,0.3l5-43C649.6,360.6,650.3,360.8,651,361z M645,378.6l-2.9,24.8c-7.2,0.4-14.9,0.7-23.1,0.8v-26.7
		C627.6,377.7,636.7,378.1,645,378.6L645,378.6z M612.5,280.9c0.7-1,1.5-2.1,2.4-3.6c0.7,1,1.3,1.8,1.9,2.5c1.7,2.1,2.8,3.6,4,6.7
		c0.8,2-1.1,4.6-2,5.6c-2,1.2-3.2,2.2-3.9,3c-0.7-0.8-1.8-1.7-3.7-2.9c-0.8-0.9-2.8-3.6-2-5.6C610.4,283.9,611.4,282.5,612.5,280.9z
		 M607.7,290c0.1,0.1,0.1,0.2,0.2,0.4c-0.1,0-0.1,0-0.2-0.1V290z M603.8,293.2c0.5-0.9,1.4-2,3.9-0.8c5.7,2.8,6.3,4.5,6.3,4.5
		l1.9,0.1c0,0,0.5-1.8,6.4-4.7c2.6-1.2,3.5-0.2,3.9,0.7c1.7,3.5-0.3,11.3-2.1,12.2l0.1,0.2c-0.8,0-1.7,0.2-2.7,0.8
		c-3.7,1.8-5.5,3.3-6.5,4.4c-0.9-1.1-2.8-2.6-6.4-4.3c-1.1-0.5-2-0.7-2.7-0.7l0.1-0.1C604,304.5,602.1,296.6,603.8,293.2
		L603.8,293.2z M603.7,308.8c0.5-0.9,1.3-2,3.9-0.8c5.7,2.8,6.3,4.5,6.3,4.5l1.9,0.1c0,0,0.5-1.8,6.4-4.7c2.6-1.3,3.4-0.2,3.9,0.7
		c1.7,3.5-0.3,11.3-2.1,12.2l0.1,0.2c-0.8,0-1.7,0.2-2.8,0.8c-3.7,1.8-5.5,3.3-6.5,4.4c-0.9-1.1-2.8-2.6-6.5-4.3
		c-1.1-0.5-2-0.7-2.7-0.7l0.1-0.1C603.9,320,602,312.2,603.7,308.8L603.7,308.8z M603.7,324.3c0.4-0.9,1.4-2,3.9-0.8
		c5.7,2.8,6.3,4.5,6.3,4.5l1.9,0.1c0,0,0.5-1.8,6.4-4.7c2.5-1.2,3.5-0.2,3.9,0.7c1.6,3.2,0,10.2-1.7,12c-0.9-0.2-1.9-0.2-2.9,0.1
		c-3.8,1-5.8,2.5-6.7,3.8c-1-1.2-2.9-2.6-6.5-3.8c-1.1-0.4-2.1-0.4-3-0.2C603.6,334.3,602.1,327.5,603.7,324.3L603.7,324.3z
		 M603.1,342.6c0.1-2.3,0.9-4.7,3.2-4.7c0.4,0,0.9,0.1,1.4,0.2c5.8,1.9,6.2,4.1,6.2,4.3v0.3h1.9v-0.2c0-0.3,0.3-2.8,6.2-4.4
		c0.4-0.1,0.8-0.2,1.2-0.2c2.7,0,3.8,2.7,3.9,5.1c0.3,4.5-2.7,11.6-12,12.7C606.7,355.2,603,347.6,603.1,342.6L603.1,342.6z
		 M615.1,357.6h0.2c0.7-0.1,1.3-0.2,1.9-0.3l-0.1,47.1h-4.7l0.1-47.2C613.2,357.4,614.1,357.6,615.1,357.6z M610.5,377.6v26.8
		c-7.7,0-15.1-0.2-22-0.6l-3.1-25.5C593.3,377.9,601.7,377.6,610.5,377.6L610.5,377.6z M565.6,290.9c0.7-2.7,1.4-4.2,2.2-6
		c0.5-1,1-2.1,1.6-3.6c0.7,0.8,1.3,1.5,1.9,2.1c1.8,1.9,2.9,3.2,4.5,6.2c1.2,2.4-1.1,5.8-1.1,5.9l0.1,0.1c-1.6,1.4-2.6,2.5-3.2,3.3
		c-0.7-0.7-1.9-1.5-3.7-2.4l0.2-0.2C568.1,296.3,565,293.5,565.6,290.9z M561.5,298c0.3-0.9,1-1.8,3.2-0.9c5.6,2.1,6.3,3.8,6.3,3.8
		l1.9-0.1c0,0,0.2-1.9,5.2-5.3c1.9-1.4,2.8-0.7,3.3,0.1c2.2,3,1.4,11.5-0.2,12.6l0.1,0.1c-0.7,0.1-1.5,0.4-2.4,1.1
		c-3,2.1-4.5,3.8-5.3,4.9c-1-1-2.9-2.2-6.3-3.5c-1-0.4-1.9-0.5-2.6-0.4l0.1-0.1C562.9,309.5,560.1,301.5,561.5,298L561.5,298z
		 M563.3,313.5c0.3-0.9,1-1.7,3.2-0.9c5.6,2.1,6.2,3.8,6.3,3.8l1.9-0.1c0,0,0.2-1.8,5.2-5.3c1.9-1.3,2.8-0.7,3.3,0.1
		c2.2,3,1.4,11.5-0.2,12.6l0.1,0.1c-0.7,0.1-1.5,0.4-2.4,1.1c-3,2.1-4.5,3.7-5.3,4.9c-1-1-2.9-2.2-6.3-3.5c-1-0.4-1.9-0.5-2.6-0.5
		l0.1-0.1C564.7,325,562,317,563.3,313.5z M565.2,328.9c0.3-0.9,1-1.7,3.2-0.9c5.6,2.1,6.3,3.8,6.3,3.8l1.9-0.2c0,0,0.2-1.9,5.2-5.3
		c1.9-1.4,2.8-0.7,3.3,0.1c2,2.8,1.5,10.3,0.1,12.3c-0.8-0.1-1.7,0-2.6,0.4c-3.3,1.4-4.9,3.1-5.6,4.4c-1.1-1.1-2.9-2.2-6.3-2.9
		c-1-0.2-2-0.2-2.8,0.1C566.1,339,564,332.1,565.2,328.9L565.2,328.9z M566.8,346.4c0-1.2,0.3-2.3,0.7-3s1.1-1,1.9-1
		c0.3,0,0.6,0,0.9,0.1c5.5,1.2,6.1,3.4,6.1,3.5v0.3l1.9-0.5c0-0.5,0-2.8,5-5c0.5-0.2,0.9-0.3,1.4-0.3c2.2,0,3.5,2.6,3.8,5.2
		c0.6,5.1-2,11.5-9.2,13.3C571.3,359.6,566.8,351.7,566.8,346.4L566.8,346.4z M578.5,361c0.3,0,0.6,0,1.1-0.1s1.1-0.3,1.6-0.5
		l5.3,43.3c-1.4-0.1-2.9-0.2-4.2-0.2l-5.2-42.6C577.5,361,578,361,578.5,361L578.5,361z M577.3,378.8l3,24.5
		c-5.5-0.4-10.6-0.8-15.4-1.4l-7.2-21.1C563.6,380,570.2,379.4,577.3,378.8L577.3,378.8z M562.8,401.7c-1.6-0.2-3.2-0.4-4.7-0.6
		l-7.6-24.1c0.6-0.1,1.3-0.2,2-0.5c0.5-0.3,1-0.5,1.4-0.8L562.8,401.7L562.8,401.7z M548.5,377.1l1,3.1c-7.6,1.4-13.5,2.9-17.4,4.6
		c-5.2-7.3-12.9-19.4-12-22.4c0.1-0.2,0.1-0.2,0.2-0.3l0.7-0.3c4.1-1.6,5.7-2.3,14.8,0.6c-0.1,0.3-0.1,0.7-0.1,1.1
		C535.7,368.9,540.8,376.9,548.5,377.1L548.5,377.1z M550.1,382.1l5.9,18.7c-17.8-2.6-28.4-6.3-28.4-9.8
		C527.6,388.6,533.5,385,550.1,382.1L550.1,382.1z M558.1,360.5c1.1,4.5,0,10.9-6.4,14.3c-1,0.3-1.9,0.4-2.9,0.4
		c-6.5,0-11.3-7-11.3-11.7c0-1,0.2-1.8,0.7-2.3c0.4-0.5,1.1-0.8,2-0.8c5.3,0,6.3,2,6.3,2.1l0.1,0.3l1.7-0.8c-0.1-0.4-0.5-2.8,3.8-6
		c0.6-0.4,1.2-0.7,1.7-0.7C555.7,355.5,557.4,357.6,558.1,360.5L558.1,360.5z M527,304.8c0.3-1.1,0.6-2.3,0.9-3.9
		c0.8,0.6,1.5,1.1,2.1,1.6c2,1.5,3.4,2.5,5.3,5.1c1.3,1.7,0.5,4.9,0,6l0.2,0.1c-1.2,1.6-1.8,2.8-2.1,3.7c-0.8-0.5-2.1-1.1-4.1-1.6
		c-0.4-0.2-3.4-2.2-3.3-4.7C526.1,308.3,526.5,306.7,527,304.8L527,304.8z M523.7,318.9c0.2-1,0.6-1.9,2.8-1.6
		c5.6,0.9,6.5,2.4,6.6,2.4l1.8-0.5c0,0-0.2-1.9,3.9-6.4c1.7-1.9,2.6-1.1,2.9-0.7c2.6,2.4,3.6,11,2.2,12.5l0.1,0.1
		c-0.6,0.3-1.3,0.7-2.1,1.6c-2.4,2.7-3.5,4.6-4,5.9c-1.1-0.7-3.1-1.5-6.5-2.1c-1-0.2-1.8-0.1-2.5,0.1v-0.1
		C527.2,329.8,523.1,322.6,523.7,318.9L523.7,318.9z M528.4,333.6c0.2-1,0.6-1.9,2.8-1.6c5.6,0.9,6.5,2.4,6.5,2.4l1.8-0.5
		c0,0-0.2-1.9,3.9-6.4c1.7-1.9,2.6-1.1,2.9-0.8c2.7,2.3,3.6,11,2.2,12.5l0.1,0.1c-0.6,0.3-1.3,0.7-2.1,1.6c-2.4,2.7-3.5,4.6-4,5.9
		c-1.1-0.7-3.1-1.5-6.5-2c-1-0.2-1.8-0.1-2.5,0.1v-0.1C531.8,344.5,527.7,337.3,528.4,333.6L528.4,333.6z M533,348.3
		c0.2-1,0.6-1.9,2.8-1.6c5.6,0.9,6.5,2.4,6.6,2.4l1.8-0.5c0,0-0.2-1.9,3.9-6.4c1.7-1.9,2.6-1.1,2.9-0.8c2.5,2.2,3.4,9.8,2.5,12.1
		c-0.8,0.1-1.6,0.4-2.4,1c-2.8,2.1-4,4-4.4,5.5c-1.2-0.8-3.2-1.5-6.4-1.5c-1.1,0-2,0.3-2.6,0.7c-1.4-1-3.6-4.6-4.4-7.8l0.1-0.1
		c0,0-0.1,0-0.1-0.1C533,350.2,532.9,349.2,533,348.3L533,348.3z M694.2,443.8l-0.3,0.3c-1.3,1.9-4.5,4.1-9.4,6.2
		c1.3-5.6,2.5-11.9,3.5-18.7c4.4-1.8,7.8-3.7,10-5.5C696.8,432.5,695.5,438.4,694.2,443.8z M688.7,461.7l-0.2,0.2
		c-1.4,2.2-4.8,4.6-9.8,7.1c1.9-4.8,3.6-10.3,5.2-16.5c4.1-1.7,7.3-3.4,9.3-5C691.8,452.8,690.3,457.5,688.7,461.7L688.7,461.7z
		 M657.1,491.7c-4.3,1.1-9.4,2.1-15.6,2.8c7-3,11.7-7.7,15.1-16.3c7.3-1.6,13.5-3.5,18.5-5.5c-4.8,10-10.6,16.2-17.8,18.9
		C657.2,491.6,657.1,491.6,657.1,491.7z M657.4,476c1.6-4.6,2.9-10.2,4-17.1c8.1-1.6,15-3.5,20.4-5.6c-1.6,6.4-3.5,12-5.5,16.8
		C671.2,472.2,664.9,474.3,657.4,476L657.4,476z M539.9,463.6c-2.2-4.4-4.6-10-7-17c2.6,2.1,6.6,4.2,11.8,6.2
		c1.6,6.2,3.4,12.2,5.6,17.5C545.2,468.1,541.8,465.7,539.9,463.6L539.9,463.6z M531.3,441.4c0-0.2-0.1-0.4-0.2-0.5
		c-1.3-4.5-2.6-9.5-3.7-15c2.9,2.4,7.6,4.8,13,6.8c1.1,6,2.4,12,3.8,17.9c-7-2.8-11.3-5.7-12.6-8L531.3,441.4L531.3,441.4z
		 M659.6,457.3c-8.3,1.6-17.8,2.8-28.4,3.5c0.3-5.1,0.5-10.8,0.6-17.4c10.9-0.8,21.1-2.3,30-4.1
		C661.1,446.1,660.4,452.1,659.6,457.3L659.6,457.3z M663.8,438.8c8.7-1.9,16.2-4.1,22.1-6.4c-1.1,6.9-2.3,13.1-3.6,18.7
		c-5.3,2.1-12.3,4.1-20.6,5.7C662.4,451.6,663.1,445.6,663.8,438.8L663.8,438.8z M629.3,460.9c-5.3,0.3-10.8,0.5-16.5,0.5
		c-6.2,0-12.1-0.2-17.7-0.6c-0.5-5-0.9-10.8-1.3-17.4c5.9,0.4,12.2,0.7,19,0.7c5.9,0,11.6-0.2,17.1-0.6
		C629.8,450.1,629.6,455.9,629.3,460.9z M593.2,460.6c-9.6-0.7-18.3-1.9-25.8-3.4c-0.9-5.1-1.6-11-2.3-17.6
		c7.3,1.5,16.4,2.9,26.9,3.7C592.3,449.8,592.7,455.6,593.2,460.6L593.2,460.6z M565.4,456.8c-7.5-1.6-13.9-3.4-19-5.4
		c-1.5-5.8-2.7-11.9-3.9-17.9c2.6,0.9,5.4,1.8,8.1,2.6c3.2,0.9,7.4,2,12.5,3.1C563.8,445.8,564.6,451.6,565.4,456.8L565.4,456.8z
		 M547,453.7c5.3,1.9,11.6,3.6,18.8,5.1c1.2,7.2,2.7,13,4.3,17.7c-6.8-1.5-12.5-3.2-17.1-5C550.6,466.1,548.6,460.1,547,453.7
		L547,453.7z M567.7,459.2c7.7,1.5,16.3,2.7,25.7,3.4c0.7,7.1,1.6,12.8,2.5,17.4c-9-0.6-16.9-1.7-23.7-3
		C570.5,472.3,569,466.5,567.7,459.2z M595.3,462.7c5.6,0.4,11.4,0.6,17.5,0.6c5.7,0,11.2-0.2,16.4-0.5c-0.4,7.2-1.1,12.9-1.8,17.2
		c-4.6,0.3-9.5,0.4-14.6,0.4c-5.2,0-10.2-0.2-14.9-0.4C597,475.6,596.1,469.9,595.3,462.7L595.3,462.7z M631.1,462.7
		c10.5-0.7,19.9-1.9,28.2-3.4c-1.2,7.1-2.5,12.7-4.2,17.2c-7.5,1.6-16.1,2.8-25.8,3.5C630,475.4,630.7,469.8,631.1,462.7
		L631.1,462.7z M698.5,422.8c-1.6,2-5.1,4.3-10.2,6.6c0.8-5.3,1.5-11,2.1-17.1c4.8-2,8.4-4,10.6-5.9
		C700.2,412.1,699.4,417.6,698.5,422.8L698.5,422.8z M686.2,430.2c-5.8,2.4-13.4,4.7-22.2,6.6c0.5-5.2,1-11,1.4-17.2
		c9-1.9,16.8-4.2,22.9-6.6C687.7,419.2,687,424.9,686.2,430.2L686.2,430.2z M662,437.2c-9,1.9-19.2,3.4-30.2,4.2
		c0.1-5.2,0.1-10.9,0-17.2c11.4-0.8,22.1-2.3,31.6-4.3C663,426.3,662.5,432,662,437.2L662,437.2z M629.9,424.4
		c0.1,6.3,0.1,12,0,17.2c-5.5,0.4-11.3,0.6-17.1,0.6c-6.6,0-13-0.3-19.1-0.7c-0.3-5.2-0.5-11-0.7-17.2c6.4,0.5,13,0.7,19.8,0.7
		C618.6,425,624.4,424.8,629.9,424.4z M591.1,424.1c0.2,6.3,0.4,12,0.7,17.2c-9.9-0.8-18.9-2.2-27-3.8c-0.5-5.2-1-10.9-1.5-17.2
		C571.8,421.9,581.1,423.3,591.1,424.1z M561.4,419.9c0.5,6.2,1,11.9,1.5,17.2c-8.1-1.7-15.2-3.8-20.8-5.9c-0.7-3.6-1.3-7.2-2-10.7
		l-1.2-6.6C545.1,416.1,552.7,418.2,561.4,419.9z M536.8,413.1c0.5,2.5,0.9,5.1,1.4,7.7c0.6,3.2,1.1,6.4,1.7,9.6
		c-7.7-3-12.5-6.1-13.3-8.3c-0.9-4.9-1.7-10.1-2.3-15.7C526.8,408.6,531.1,410.9,536.8,413.1L536.8,413.1z M546.5,474.6
		c-0.8-1-2.3-3.1-4.1-6.4c2.4,1.6,5.4,3.2,9.1,4.7c2.7,6,5.9,11.1,9.8,14.9C553.6,484,550,479.2,546.5,474.6z M567,490.3
		c-0.1-0.2-0.2-0.4-0.4-0.5c-5.2-3.4-9.3-8.9-12.6-15.8c4.7,1.7,10.3,3.3,16.7,4.6c3.1,8.2,7,12.7,11.9,15.5
		C576.3,493,571.2,491.8,567,490.3L567,490.3z M589.9,494.8c-7.3-2.1-12.7-5.9-16.9-15.9c7,1.3,14.8,2.3,23.4,2.9
		c1.8,7.7,3.9,11.7,6.1,13.8C597.9,495.5,593.7,495.2,589.9,494.8z M607.4,495.8c-3.1-0.3-6.4-2.6-9.1-13.8
		c4.6,0.3,9.4,0.4,14.5,0.4c5,0,9.7-0.1,14.2-0.4c-2.5,12.8-6.2,13.5-9.6,13.8H607.4L607.4,495.8z M628.9,481.9
		c9.4-0.6,17.9-1.8,25.3-3.3c-4.4,10.6-10.8,13.9-20.7,16.5c-0.1,0-0.1,0.1-0.2,0.1c-3.1,0.2-6.5,0.4-10.1,0.5
		C625.4,493.7,627.4,489.8,628.9,481.9L628.9,481.9z M676.6,482.1c-3.1,2.3-6.4,4.5-10.8,6.5c4.5-3.9,8.4-9.5,11.8-17
		c3.9-1.7,7.1-3.6,9.3-5.3C683.5,474.4,679.9,479.7,676.6,482.1z M711.6,354.9c1.5,1.4,2.2,3.1,2.2,5.4c0,12-12.8,27.2-12.9,27.4
		l0.1,0.1c-0.2,0.4-0.1,0.9,0.2,1.2c0.9,0.7,1.4,1.4,1.4,1.9c-0.4,4-0.8,7.9-1.2,11.7c-1,6.3-38.1,20.4-88.6,20.4
		c-48.3,0-85.7-13.4-88.8-19.8c-0.4-4-0.7-8.2-1-12.6c0-0.5,0.1-1.1,0.5-1.6c0.3-0.4,0.2-0.8,0-1.2l0.2-0.2
		c-0.1-0.2-12.9-15.4-12.9-27.4c0-3,1.2-5.1,3.8-6.6c5.2-3,14.3-1.9,17-1c1,3.1,2.9,6.4,4.7,7.9c-9.8-3.1-11.9-2.3-16.1-0.5
		l-0.7,0.3c-0.7,0.3-1.1,0.8-1.3,1.5c-1.3,4.6,8.8,19.2,12.1,23.8c-3.1,1.6-4.6,3.4-4.6,5.3c0,10,44.6,15.3,86.6,15.3
		c12.2,0,24.7-0.5,36.2-1.3c0.1,0,0.1,0.1,0.2,0.1h0.1c0.2,0,0.3-0.1,0.5-0.1C677,402.7,699,398,699,391c0-1.7-1.2-3.3-3.7-4.7
		c4.1-5.8,14.6-21.6,11.1-25.6c-1.5-1.7-4.9-3.1-10.2-2.5c1.2-1.8,2.3-4.2,2.8-6.4C702.1,351.7,708.3,351.9,711.6,354.9L711.6,354.9
		z M696.8,344.8v0.1c-0.7-0.2-1.5-0.3-2.5-0.1c-3.4,0.5-5.4,1.3-6.5,2c-0.5-1.3-1.6-3.2-4-5.9c-0.7-0.8-1.4-1.3-2.1-1.6l0.1-0.1
		c-1.3-1.5-0.4-10.2,2.2-12.5c0.4-0.3,1.3-1.1,2.9,0.8c4,4.4,3.9,6.3,3.9,6.3l1.8,0.6c0,0,0.9-1.6,6.6-2.4c2.2-0.3,2.6,0.6,2.8,1.6
		C702.7,337.3,698.6,344.5,696.8,344.8z M706.7,318.9c0.6,3.7-3.4,10.9-5.3,11.2v0.1c-0.7-0.2-1.5-0.3-2.5-0.1
		c-3.4,0.5-5.4,1.3-6.5,2c-0.5-1.3-1.6-3.2-4-5.9c-0.7-0.8-1.4-1.3-2.1-1.6l0.1-0.1c-1.3-1.5-0.4-10.2,2.2-12.5
		c0.4-0.3,1.3-1.1,2.9,0.8c4,4.4,3.9,6.3,3.9,6.3l1.8,0.6c0,0,0.9-1.5,6.6-2.4C706,316.9,706.5,317.9,706.7,318.9L706.7,318.9z"/>
</g>
</svg>
