<svg baseProfile="tiny" xmlns="http://www.w3.org/2000/svg" width="767" height="884.1" viewBox="254 -426.4 767 884.1"><g fill="#dedfe1"><path d="M281.8-292.4c-4.3 0-7.8 3.6-7.8 8v6.5c0 4.4 3.5 8.1 7.8 8.1h9.1v12.9h93.2l.2.2c3.1 2.8 5.1 4.7 9.2 4.7 3.8 0 5.5-1.6 8-4 .3-.3.6-.6 1-.9h93.7v-12.9h9.1c4.3 0 7.8-3.6 7.8-8.1v-6.5c0-4.4-3.5-8-7.8-8h-9.1v-53.9h9.1c4.3 0 7.8-3.6 7.8-8.1v-6.5c0-4.4-3.5-8.1-7.8-8.1h-9.1v-12.9h-8.7v-8.4l-6.1 2.9v-3.3l-1.3.5c-.6.3-1.2.5-1.8.8-2.4 1.2-4.5 2.2-12.7 1.8-1.6-.1-5.1-1.2-9.4-2.6-9.2-3-23.2-7.6-36.6-7.6-4.8 0-9.2.6-13.1 1.8-3.5 1.1-5.8 2.2-8.2 3.4-1.4.7-2.9 1.5-4.8 2.3-1.9-.8-3.3-1.5-4.8-2.3-2.4-1.2-4.7-2.4-8.2-3.5-3.9-1.2-8.3-1.8-13.1-1.8-13.3 0-27.3 4.6-36.6 7.6-4.4 1.4-7.8 2.6-9.4 2.6-6.7.4-8.3-.3-10.4-1.2-1-.4-2.2-.9-4.1-1.4l-1.2-.1v3.1l-6.1-2.9v8.4h-8.7v12.9h-9.1c-4.3 0-7.8 3.6-7.8 8.1v6.5c0 4.4 3.5 8.1 7.8 8.1h9.1v53.9h-9.1v-.1zm0 20.6c-3.2 0-5.9-2.8-5.9-6.1v-6.6c0-3.4 2.6-6.1 5.9-6.1h9.1v18.8h-9.1zm223.4-18.7c3.2 0 5.9 2.8 5.9 6.1v6.5c0 3.4-2.6 6.1-5.9 6.1h-9.1v-18.8h9.1v.1zm0-76.5c3.2 0 5.9 2.8 5.9 6.1v6.5c0 3.4-2.6 6.1-5.9 6.1h-9.1v-18.8h9.1v.1zm-19.6-20.2v119.5l-4.2-7.2v-110.3l4.2-2zM395-274.1c2.5-3.1 7.2-5.6 13.5-7.1 15.3-3.6 29.3 1 40.5 4.8 5 1.7 9.3 3.1 12.8 3.5 6.4.7 10.6.1 14.3-.3 1.3-.2 2.5-.3 3.8-.4l5 8.5c-7.9 1.9-16 1.3-22 .9-1.2-.1-2.3-.2-3.3-.2-1.8-.1-4.8-.9-8.4-1.9-9-2.5-22.7-6.3-36.9-3.9-4.1.7-8 2-12.3 4.2-.9-4.8-4.2-7.5-7-8.1zm-9.7 7.9c-4.3-2.1-8.4-3.5-12.5-4.2-14.2-2.4-27.8 1.4-36.9 3.9-3.7 1-6.6 1.8-8.4 1.9-1 .1-2.1.1-3.3.2-6.1.4-14.2 1-22.2-.9l5.1-8.4c1.2.1 2.5.2 3.8.4 2.4.3 5.1.7 8.5.7 1.7 0 3.6-.1 5.8-.3 3.5-.4 7.8-1.8 12.8-3.5 11.2-3.8 25.1-8.4 40.5-4.8 6.3 1.5 11.1 4 13.5 7.2-2.6.6-5.9 3.2-6.7 7.8zm8.2-6.1h.4c2.2 0 6.2 2.7 6.2 8.2-.1 4.5-4.1 5.5-6.6 5.7-2.4-.2-6.4-1.2-6.6-5.6.1-5.6 4.1-8.3 6.6-8.3zm5.7-118.5c2.4-1.2 4.6-2.3 7.9-3.3 3.7-1.1 7.9-1.7 12.5-1.7 13 0 26.8 4.5 36 7.5 4.7 1.5 8 2.6 9.9 2.7 8.7.5 11-.7 13.6-2 .1-.1.2-.1.3-.2V-275.7c-1.2.1-2.3.2-3.6.4-3.6.5-7.6 1-13.9.3-3.3-.3-7.5-1.8-12.4-3.4-10.8-3.6-25.7-8.6-41.6-4.8-6 1.4-10.7 3.8-13.6 6.7v-112.1c2-.8 3.5-1.5 4.9-2.2zm-91.6 2.8c1.1.3 1.9.7 2.6 1 2.2 1 4.1 1.7 11.3 1.4 1.9-.1 5.3-1.2 9.9-2.7 9.1-3 22.9-7.5 36-7.5 4.6 0 8.8.6 12.5 1.7 3.4 1 5.5 2.1 7.9 3.3 1.4.7 2.9 1.4 4.7 2.2v112.2c-2.9-2.9-7.6-5.3-13.6-6.7-15.9-3.8-30.7 1.2-41.6 4.8-4.9 1.6-9.1 3.1-12.4 3.4-6.2.6-10.3.1-13.9-.3-1.2-.2-2.4-.3-3.6-.4V-388h.2zm-6.1.8l4.2 2v110.3l-4.2 6.9v-119.2zm-8.7 7.3h6.8v116l.7.2c4.8 1.3 9.7 1.7 14.2 1.7 3.6 0 6.9-.2 9.8-.5 1.2-.1 2.3-.2 3.3-.2 2-.1 5.1-.9 8.9-2 8.9-2.4 22.3-6.2 36-3.9 4.2.7 8.3 2.1 12.6 4.3v.1c.1 4.4 3.2 7.1 8.4 7.5h.2c5.2-.4 8.3-3.1 8.4-7.5 4.5-2.3 8.3-3.7 12.4-4.4 13.8-2.3 27.2 1.4 36.1 3.9 3.8 1 6.8 1.9 8.9 2 1 .1 2.1.1 3.3.2 2.9.2 6.2.5 9.8.5 4.5 0 9.4-.4 14.3-1.7l.7-.2v-116h6.8v121.1h-92.5l-.3.3c-.5.4-.9.8-1.3 1.2-2.4 2.3-3.7 3.5-6.7 3.5-3.4 0-4.9-1.4-7.9-4.2l-.8-.7h-92.1v-121.2zm-11 31.7c-3.2 0-5.9-2.8-5.9-6.1v-6.5c0-3.4 2.6-6.1 5.9-6.1h9.1v18.8h-9.1v-.1zM527-269.8h9.1v12.9h93.2l.2.2c3.1 2.9 5.1 4.7 9.2 4.7 3.8 0 5.5-1.6 8-4 .3-.3.6-.6 1-.9h93.6v-12.9h9.1c4.3 0 7.8-3.6 7.8-8.1v-6.5c0-4.4-3.5-8-7.8-8h-9.1v-53.9h9.1c4.3 0 7.8-3.6 7.8-8.1v-6.5c0-4.4-3.5-8.1-7.8-8.1h-9.1v-12.8h-8.7v-8.4l-6.1 2.9v-3.3l-1.3.5c-.6.3-1.2.5-1.8.8-2.4 1.2-4.5 2.2-12.7 1.8-1.6-.1-5.1-1.2-9.4-2.6-9.3-3-23.2-7.6-36.6-7.6-4.8 0-9.2.6-13.1 1.8-3.5 1.1-5.8 2.2-8.2 3.4-1.4.7-2.9 1.5-4.8 2.3-1.9-.8-3.3-1.5-4.8-2.3-2.4-1.2-4.7-2.4-8.3-3.5-3.9-1.2-8.3-1.8-13.1-1.8-13.3 0-27.3 4.6-36.6 7.6-4.4 1.4-7.8 2.6-9.4 2.6-6.7.4-8.3-.3-10.4-1.2-1-.4-2.2-.9-4.1-1.4l-1.2-.3v3.1l-6.1-2.9v8.4h-8.7v12.9H527c-4.3 0-7.8 3.6-7.8 8.1v6.5c0 4.4 3.5 8.1 7.8 8.1h9.1v53.9H527c-4.3 0-7.8 3.6-7.8 8v6.5c0 4.5 3.5 8.1 7.8 8.1zm223.5-20.7c3.2 0 5.9 2.8 5.9 6.1v6.5c0 3.4-2.6 6.1-5.9 6.1h-9.1v-18.8h9.1v.1zm0-76.5c3.2 0 5.9 2.8 5.9 6.1v6.5c0 3.4-2.6 6.1-5.9 6.1h-9.1V-367h9.1zm-19.7-20.2v119.5l-4.2-7.2v-110.3l4.2-2zm-90.6 113.1c2.5-3.1 7.2-5.6 13.5-7.1 15.4-3.6 29.3 1 40.5 4.8 5 1.7 9.3 3.1 12.8 3.5 6.4.7 10.6.1 14.3-.3 1.3-.2 2.5-.3 3.8-.4l5 8.5c-7.9 1.9-16 1.3-22 .9-1.2-.1-2.3-.2-3.3-.2-1.8-.1-4.8-.9-8.5-1.9-9-2.5-22.7-6.3-36.9-3.9-4.1.7-8 2-12.3 4.2-.8-4.8-4.1-7.5-6.9-8.1zm-9.7 7.9c-4.3-2.1-8.4-3.5-12.5-4.2-14.2-2.4-27.8 1.4-36.9 3.9-3.7 1-6.6 1.8-8.4 1.9-1 .1-2.1.1-3.3.2-6.1.4-14.2 1-22.2-.9l5.1-8.4c1.2.1 2.5.2 3.8.4 2.4.3 5.1.7 8.5.7 1.7 0 3.6-.1 5.8-.3 3.5-.4 7.8-1.8 12.8-3.5 11.2-3.8 25.2-8.4 40.5-4.8 6.3 1.5 11.1 4 13.5 7.2-2.6.6-5.9 3.2-6.7 7.8zm8.2-6.1h.4c2.2 0 6.2 2.7 6.2 8.2-.1 4.5-4.1 5.5-6.6 5.7-2.9-.2-6.4-1.4-6.6-5.6.2-5.6 4.1-8.3 6.6-8.3zm5.7-118.5c2.4-1.2 4.5-2.3 7.9-3.3 3.7-1.1 7.9-1.7 12.5-1.7 13 0 26.8 4.5 36 7.5 4.7 1.5 8 2.6 9.9 2.7 8.7.5 11-.7 13.6-2 .1-.1.2-.1.3-.2V-275.7c-1.2.1-2.4.2-3.6.4-3.6.5-7.6 1-13.9.3-3.3-.3-7.5-1.8-12.4-3.4-10.8-3.6-25.7-8.6-41.6-4.8-6 1.4-10.7 3.8-13.6 6.7v-112.1c2-.8 3.5-1.5 4.9-2.2zm-91.6 2.8c1.1.3 1.9.7 2.6 1 2.2 1 4.1 1.7 11.3 1.4 1.9-.1 5.3-1.2 9.9-2.7 9.1-3 22.9-7.5 36-7.5 4.6 0 8.8.6 12.5 1.7 3.4 1 5.5 2.1 7.9 3.3 1.4.7 2.9 1.4 4.7 2.2v112.2c-2.9-2.9-7.6-5.3-13.6-6.7-15.9-3.8-30.7 1.2-41.6 4.8-4.9 1.6-9.1 3.1-12.4 3.4-6.2.6-10.3.1-13.9-.3-1.2-.2-2.4-.3-3.6-.4V-388h.2zm-6.1.8l4.2 2v110.3l-4.2 6.9v-119.2zm-8.7 7.3h6.8v116l.7.2c4.8 1.3 9.7 1.7 14.2 1.7 3.6 0 6.9-.2 9.8-.5 1.2-.1 2.3-.2 3.3-.2 2-.1 5.1-.9 8.9-2 8.9-2.4 22.3-6.1 36-3.9 4.2.7 8.3 2.1 12.6 4.3v.1c.1 4.4 3.2 7.1 8.4 7.5h.2c5.2-.4 8.3-3.1 8.4-7.5 4.5-2.3 8.3-3.7 12.4-4.4 13.8-2.3 27.2 1.4 36 3.9 3.8 1.1 6.8 1.9 8.9 2 1 .1 2.1.1 3.3.2 2.9.2 6.2.5 9.8.5 4.5 0 9.4-.4 14.3-1.7l.7-.2v-116h6.8v121.1H647l-.3.3c-.5.4-.9.8-1.3 1.2-2.4 2.3-3.7 3.5-6.7 3.5-3.4 0-4.9-1.4-7.9-4.2l-.8-.7h-92v-121.2zm-11 31.7c-3.2 0-5.9-2.8-5.9-6.1v-6.5c0-3.4 2.6-6.1 5.9-6.1h9.1v18.8H527v-.1zm-5.9 63.8c0-3.4 2.6-6.1 5.9-6.1h9.1v18.8H527c-3.2 0-5.9-2.8-5.9-6.1v-6.6zM772.2-269.8h9.1v12.9h93.2l.2.2c3.1 2.8 5.1 4.7 9.2 4.7 3.8 0 5.5-1.6 8-4l1-.9h93.6v-12.9h9.1c4.3 0 7.8-3.6 7.8-8.1v-6.5c0-4.4-3.5-8-7.8-8h-9.1v-53.9h9.1c4.3 0 7.8-3.6 7.8-8.1v-6.5c0-4.4-3.5-8.1-7.8-8.1h-9.1v-12.8h-8.7v-8.4l-6.1 2.9v-3.3l-1.3.5c-.6.3-1.2.5-1.8.8-2.4 1.2-4.5 2.2-12.7 1.8-1.6-.1-5.1-1.2-9.4-2.6-9.3-3-23.2-7.6-36.6-7.6-4.8 0-9.2.6-13.1 1.8-3.5 1.1-5.8 2.2-8.2 3.5-1.4.7-2.9 1.5-4.8 2.3-1.8-.8-3.3-1.5-4.8-2.3-2.4-1.2-4.7-2.4-8.3-3.5-3.9-1.2-8.3-1.8-13.1-1.8-13.3 0-27.3 4.6-36.6 7.6-4.4 1.4-7.8 2.6-9.4 2.6-6.8.3-8.3-.3-10.4-1.2-1-.4-2.2-.9-4.1-1.4l-1.2-.3v3.1l-6.1-2.9v8.4h-8.7v12.9H772c-4.3 0-7.8 3.6-7.8 8.1v6.5c0 4.4 3.5 8.1 7.8 8.1h9.1v53.9H772c-4.3 0-7.8 3.6-7.8 8v6.5c.2 4.4 3.7 8 8 8zm223.5-20.7c3.2 0 5.9 2.8 5.9 6.1v6.5c0 3.4-2.6 6.1-5.9 6.1h-9.1v-18.8h9.1v.1zm0-76.5c3.2 0 5.9 2.8 5.9 6.1v6.5c0 3.4-2.6 6.1-5.9 6.1h-9.1V-367h9.1zM976-387.2v119.5l-4.2-7.2v-110.3l4.2-2zm-90.5 113.1c2.5-3.1 7.2-5.6 13.5-7.1 15.3-3.6 29.3 1 40.5 4.8 5 1.7 9.3 3.1 12.8 3.5 2.2.2 4.1.3 5.8.3 3.4 0 6.1-.3 8.5-.7 1.3-.2 2.5-.3 3.8-.4l5 8.5c-7.9 1.9-16 1.3-22 .9-1.2-.1-2.3-.2-3.3-.2-1.8-.1-4.8-.9-8.5-1.9-9-2.5-22.7-6.3-36.9-3.9-4.1.7-8 2-12.3 4.2-.9-4.7-4.1-7.4-6.9-8zm-9.7 7.9c-4.3-2.1-8.4-3.5-12.5-4.2-14.2-2.4-27.8 1.4-36.9 3.9-3.7 1-6.6 1.8-8.4 1.9-1 .1-2.1.1-3.3.2-6.1.4-14.2 1-22.2-.9l5.1-8.4c1.2.1 2.5.2 3.8.4 3.7.5 7.8 1 14.3.3 3.5-.4 7.8-1.8 12.8-3.5 11.2-3.8 25.1-8.4 40.5-4.8 6.3 1.5 11.1 4 13.5 7.2-2.7.7-5.9 3.3-6.7 7.9zm8.1-6.1h.4c2.2 0 6.2 2.7 6.2 8.2-.1 4.5-4.1 5.5-6.6 5.7-2.4-.2-6.4-1.2-6.6-5.6.2-5.6 4.2-8.3 6.6-8.3zm5.7-118.5c2.4-1.2 4.6-2.3 7.9-3.3 3.7-1.1 7.9-1.7 12.5-1.7 13 0 26.8 4.5 36 7.5 4.7 1.5 8 2.6 9.9 2.7 8.7.5 11-.7 13.6-2 .1-.1.2-.1.3-.2V-275.7c-1.2.1-2.4.2-3.6.4-3.6.5-7.6 1-13.9.3-3.3-.3-7.5-1.8-12.4-3.4-10.8-3.6-25.7-8.6-41.6-4.8-6 1.4-10.7 3.8-13.6 6.7v-48.3h8c2.1 6.2 5.1 14.5 5.1 18.3 0 4-3.4 5-6.1 5.7v1.3h23.5v-1.3c-6.4-1.3-7.7-3.9-9.9-10.4l-17.6-52c-.9 1.2-1.9 2.2-2.9 3v-28.4c1.9-.8 3.4-1.5 4.8-2.2zm-6.6 62h-7l7-21.4v21.4zm1.9-19.2l6.9 19.3h-6.9V-348zM798-388c1.1.3 1.9.7 2.6 1 2.2 1 4 1.7 11.3 1.4 1.9-.1 5.3-1.2 9.9-2.7 9.1-3 23-7.5 36-7.5 4.6 0 8.8.6 12.5 1.7 3.4 1 5.5 2.1 7.9 3.3 1.4.7 2.9 1.4 4.7 2.2v29.8c-.3.2-.6.3-1 .5.9 1.7-.2 3.8-.9 6.1l-4.8 14.4-9 26.2c-2.5 6.9-3.2 8.7-10.3 10.8v1.3h21.9v-1.3c-3.6-.6-9.1-.6-9.1-6 0-4.3 3.5-13.5 4.9-17.9h8.3v48.3c-2.9-2.9-7.6-5.3-13.6-6.7-15.9-3.8-30.7 1.2-41.6 4.8-4.9 1.6-9.1 3.1-12.4 3.4-6.2.6-10.3.1-13.9-.3-1.2-.2-2.4-.3-3.6-.4V-388h.2zm-6.1.8l4.2 2v110.3l-4.2 6.9v-119.2zm-8.7 7.3h6.8v116l.7.2c4.8 1.3 9.7 1.7 14.3 1.7 3.6 0 6.9-.2 9.8-.5 1.2-.1 2.3-.2 3.3-.2 2.1-.1 5.1-.9 8.9-2 8.9-2.4 22.3-6.1 36-3.9 4.1.7 8.3 2.1 12.6 4.3v.1c.1 4.4 3.2 7.1 8.4 7.5h.2c5.2-.4 8.3-3.1 8.4-7.5 4.5-2.3 8.3-3.7 12.4-4.4 13.8-2.3 27.2 1.4 36 3.9 3.8 1.1 6.8 1.9 8.9 2 1 .1 2.1.1 3.3.2 2.9.2 6.2.5 9.8.5 4.5 0 9.4-.4 14.3-1.7l.7-.2v-116h6.8v121.1h-92.5l-1.5 1.4c-2.5 2.3-3.7 3.5-6.7 3.5-3.4 0-4.9-1.4-7.9-4.2l-.8-.7h-92.1l-.1-121.1zm-11 31.7c-3.2 0-5.9-2.8-5.9-6.1v-6.5c0-3.4 2.6-6.1 5.9-6.1h9.1v18.8h-9.1v-.1zm-5.8 63.8c0-3.4 2.6-6.1 5.9-6.1h9.1v18.8h-9.1c-3.2 0-5.9-2.8-5.9-6.1v-6.6z"/><path d="M254-426.4l.3 322.8c.1 156.1 50 436.4 381.8 560.7l1.3.5 1.3-.5c331.9-124.3 381.7-404.7 381.8-560.7l.5-322.8H254zm759.1 223.8c-7.8 16.2-32.1 27.8-59.5 27.8-30.6 0-57-14.4-61.5-33.5h-3.7c-4.8 19.1-31.1 33.5-61.2 33.5-30.6 0-57-14.4-61.5-33.5H762c-4.8 19.1-31.1 33.5-61.2 33.5-30.6 0-57-14.4-61.5-33.5h-3.7c-4.8 19.1-31.1 33.5-61.2 33.5-30.6 0-57-14.4-61.5-33.5h-3.7c-4.8 19.1-31.1 33.5-61.2 33.5-31.1 0-56.9-13.9-61.3-33H383c-4.7 18.8-31.1 33.1-61.4 33.1-27.6 0-51.9-11.7-59.6-28.1v-22.3c10.7 20 33.8 33.6 59.6 33.6 29.6 0 55-17.2 63.2-41.8 8 24.6 33.3 41.8 63.2 41.8 29 0 54.8-17.8 63-42.4 8 24.7 33.9 42.4 63.4 42.4 29 0 54.8-17.8 63-42.4 8 24.7 33.9 42.4 63.4 42.4 29 0 54.8-17.8 63.1-42.4 8 24.7 33.9 42.4 63.4 42.4 29 0 54.8-17.8 63-42.4 8 24.7 33.9 42.4 63.4 42.4 26.1 0 48.8-13.3 59.5-33.3l-.1 22.2zm.2-216.1l-.2 184.4c-7.8 23-31.6 39-59.5 39-30.6 0-57-20.1-61.5-46.7h-3.8c-4.8 26.7-31.1 46.8-61.2 46.8-30.6 0-57-20.1-61.5-46.7h-3.8c-4.8 26.7-31.1 46.8-61.2 46.8-30.6 0-57-20.1-61.5-46.7h-3.8c-4.8 26.7-31.1 46.8-61.2 46.8-30.6 0-57-20.1-61.5-46.7h-3.8c-4.8 26.7-31.1 46.8-61.2 46.8-31 0-56.8-19.4-61.3-46.1h-3.8c-4.8 26.7-30.6 46.2-61.4 46.2-27.7 0-51.9-16.5-59.6-39.4l.2-184.5h751.6zM338.5 205L637.3-55.9l299.1 261.1c-16.2 28.4-35.6 56.4-58.9 83.1L637.3 73.1l-240 215.1c-23.3-26.8-42.7-54.8-58.8-83.2zm299 244.5C531.7 409.6 455.1 353.6 399.8 291L637.2 78.2 875 291.3c-55.3 62.5-131.9 118.3-237.5 158.2zm300.8-247.6l-301-262.8-300.8 262.5c-60.8-108.8-74.4-224-74.5-305.2l-.1-91.7c10.6 14.6 33.4 24.4 59.6 24.4 29.6 0 55-12.6 63.2-30.6 8 18 33.3 30.6 63.2 30.6 29.5 0 54.8-12.7 63-31 8 18.2 33.4 31 63.4 31 29.5 0 54.8-12.7 63-31 8 18.2 33.4 31 63.4 31 29.5 0 54.8-12.7 63.1-31 8 18.2 33.4 31 63.4 31 29.5 0 54.8-12.7 63-31 8 18.2 33.4 31 63.4 31 26 0 48.8-9.7 59.5-24.3l-.1 91.6c-.1 81.2-13.8 196.6-74.7 305.5z"/><path d="M460.9-317h-1.2c-2 11.2-6.9 15.4-17 15.4-13.1 0-12-7.3-12-12.5v-14.5h8.3c6 0 10.4.1 11.4 7.9h1.2v-19.8h-1.2c-.9 7.6-5.4 8.2-11.4 8.2h-8.3v-25.3h7.7c8.1 0 15.5.1 16 11.5h1.2l1-13.7h-42.9v1.4c9.6 1.4 9.7 4.1 9.9 13.2v31.2c-.2 9.1-.3 11.8-9.9 13.2v1.3h44.4c1.7-5.3 2.7-10.7 2.8-17.5zM330.9-345.4l18 48h1.1l15.2-40.5c5-12.9 7.3-19.9 14.8-20.6v-1.3h-22.5v1.4c12.1 2 10.9 4.9 4 23.1l-9.4 25.1-12.7-34.3c-2.1-5.6-5.7-12.7 5.5-13.9v-1.3h-25.3v1.3c7.1.9 8.9 6.6 11.3 13zM935.2-298.3c9.2 0 19.4-5.9 19.4-17.4 0-17.9-25.2-17.4-25.2-32.7 0-5.9 4.2-9.8 9.3-9.8 7.9 0 10 6.9 11.3 14.1h1.3l.6-13.3c-3.5-2.1-7.6-3.5-11.7-3.5-8.5 0-17.8 6.6-17.8 16.9 0 17.7 24.4 16.3 24.4 32.1 0 6.9-4.6 10.8-10.5 10.8-8.8 0-14.1-8.4-16.1-17h-1.4l2.3 15.1c4.1 3.1 9.2 4.7 14.1 4.7zM827.4-357.1h4.8v41c0 11-.5 13.9-11.2 15.3v1.3h29.4v-1.3c-10.7-1.4-11.2-4.4-11.2-15.3v-41h4.8c9.2 0 13.6.5 16.4 11.5l1.1-.3-1.1-16.6h-.6l-.8.8c-2 2-2.3 2-4.9 2h-36.6c-2.6 0-2.9.1-4.9-2l-.8-.8h-.8l-1.1 16.6 1.1.3c2.8-11 7.2-11.5 16.4-11.5zM696.3-300.8c-9.6-1.4-9.7-4.1-9.9-13.2v-31.3c.2-9.1.3-11.8 9.9-13.2v-1.3h-26.8v1.3c9.6 1.4 9.7 4.1 9.9 13.2v31.2c-.2 9.1-.3 11.8-9.9 13.2v1.3h26.8v-1.2zM597.4-300.8c-10.9-1.7-11.1-3.5-11.1-13.2v-14.3c5.6 1.1 8.5-1.1 11.7 6.3 1.7 3.8 5.8 11.6 11.1 17.7 4.6 5.3 10.8 5.1 19.3 5.5l.2-1.3c-13.2-3-20.8-18.3-27-30.2l-.4-.6c5.7-2.8 9.9-7.1 9.9-14.6 0-4.2-1.6-15.2-21.7-14.5l-19.5.7v1.2c8.9.9 9.3 2.9 9.3 16.5v27.5c-.2 9.1-.3 11.8-9.9 13.2v1.3h28v-1.2h.1zM586.3-358c8.4-.1 16.6 4.1 16.6 14.5 0 9.8-8.9 13.7-16.6 13.8V-358zM786.5 253.6c-10.6 4.2-38.2-.5-38.6-.6-8-.5-15.2 2.1-20.8 7.4-6.3 6-10 15-10 24.7 0 2.1.2 4.1.6 6-9.9-13.8-30.1-24.5-55.8-28.5-.5-3.4-4-7.2-8.9-9.6l-.1-5.2c7.8-2.6 12.3-7.7 12.3-14 0-6.8-5.3-13.1-13.5-16.1-1-1.7-2.2-3.2-4.6-4-.3-4-2.7-14-5.8-15.1l-.3-.1-.3.1c-3.1 1.1-5.9 11.5-6.2 15.4-2.7 1.3-3.8 2.7-4.5 3.9-8 3.1-12.9 9.1-12.9 15.9 0 6.9 4.1 11.5 12.2 13.9l-.3 5.3c-4.8 2.5-8.1 6.2-8.6 9.5-26.8 4-48.3 15.5-57.8 31-1.8-.3-7.6-1.4-11.6-6.3-3.4-4.2-4.6-10-3.6-17.4.2-.3.2-.7.2-1.1v-.3c0-4.1-7.6-6.9-16.9-8-2.5-.7-5.6-1.1-8.7-1.3V257h.3c1.1 0 2.3-.1 3.8-.5 6.2-1.7 11.4-3.8 12.7-12.1 1.1-7.4-4.3-14.9-9.1-21.6-1.4-1.9-2.7-3.7-3.8-5.5-1.8-2.8-1.9-6.7-2.1-10.2-.2-4-.3-7.9-3.6-7.9-.6 0-1.2.1-1.8.4l-.4.2-.1.4c-.7 2.1-1.1 3.9-1.6 5.6-1 3.8-1.7 6.9-4.7 11.5-1.1 1.8-2.4 3.6-3.8 5.5-4.8 6.7-10.3 14.2-9.1 21.6 1.3 8.4 6.5 10.4 12.7 12.1 1.5.4 2.7.5 3.8.5h1.1v2.3c-2.5.2-5.1.6-7.3 1.3-8.8 1.2-15.9 3.9-15.9 7.9 0 7.2 11.3 13.7 11.8 14l.2.1c.1 0 5.9 2 19.5 23.2 28.3 44.3 75.7 48.7 78.2 48.9 5.4 1.6 11.3 2.6 17 3.5-.3 3.8-2.8 4.7-5.6 5.7-2.4.9-5.1 1.8-5.6 4.9h-.1v1.5l-10.5 9.3c-8.2 1.7-12.4 6.8-12.4 10.9 0 9.6 24.4 17 55.6 17 31.2 0 55.6-7.5 55.6-17 0-4.7-4.1-6.6-10.8-9.1l-13.2-11.9c-.2-3.7-3-4.7-5.4-5.5-2.6-.9-4.9-1.7-5.2-5.6 4.7-.7 8.9-1.7 14.3-3.2 70.9-7.6 104.3-27.7 105.3-63.2 0-.6.7-13.4-7.8-22.9 12.6-.4 16-4.4 22.4-11.9 1.4-1.7 2.9-3.8 1.9-5.2-.7-1.4-2.7-1.9-11.8 1.6zm-46 27.9l.1.5.5.2c4.7 2.4 6.1 4.7 5.3 8.7-.6 3-3.5 4.8-5.4 4.9-5.3.3-9.1-3.1-9.5-8.7-.4-5.2 1.2-10 4.3-13.4 2.9-3.1 7-4.8 11.9-4.8 11.9 0 19.6 8.3 19.6 21.1 0 18.9-10.2 30.2-27.3 30.2-6.4-.4-13.2-3.2-15.9-4.4.3-1.9.5-3.8.5-5.4 0-2.7-.4-5.3-1.1-7.9.4.5.8.9 1.3 1.3 4.4 4.3 10.2 6.6 16.5 6.5 8.7-.2 17.6-5.8 17.6-17.7 0-9-4.6-15.5-11-15.5-3 0-5.1.7-6.3 1.9-1.2 1.3-1.1 2.4-1.1 2.5zM646.4 358c16.2-7.3 17.7-33.2 17.9-36.6 13.4-1 25.7-2.9 35.7-5.2-.6 2.5-2.2 7.9-6.8 14.2-5.7 8-17.3 19.1-40.1 27.1-2.2.1-4.4.4-6.7.5zm-25.6-1.6c-.4-.1-.8-.1-1.2-.2-33.9-10.4-36.4-33.6-36.5-39.2 8 1.8 17.7 3.2 28.9 4.2.2 2.4 1.1 10 4.4 17.9 3.8 9.4 9.5 15.7 16.7 18.7-3.8-.3-7.8-.8-12.3-1.4zm19.9 1.2c-21.9-2.1-26.1-30.5-26.7-36.4 7.9.6 16.6 1 25.8 1 7.7 0 15.3-.3 22.6-.8-.2 4.2-2.5 33.1-21.7 36.2zm-.9-37.2c-36 0-63-5.5-74-10.9-.2-2.6-.3-5.4-.4-8.6.1-1.2.3-4.7-1-6.4.4-.7.9-1.4 1.4-2.1 4.9 8.6 36.9 15.2 75.6 15.2 34.6 0 71.6-4.1 76.4-13 1.9 3 3.2 6.2 4 9.5h-.2c0 6.4-35.2 16.3-81.8 16.3zm-8.4-47.9c-4.9 3.4-16.7 13.4-16.2 32.1-13.2-1.1-24.1-3-32.1-5.3 7.7-22.8 35.2-31.1 38.8-32.1 1.7 2.3 5.1 4.2 9.5 5.3zm28.9-4.9c4.4.9 29.7 7.2 39.7 33.2-8.4 1.9-19.8 3.4-33.8 4.2-.2-19.8-10.6-29.2-15.4-32.4 4.3-1.1 7.6-2.8 9.5-5zm-12.2 5.5c2.5 1.3 16 9.8 16.2 32-7 .4-14.7.6-23 .6-8.8 0-16.9-.3-24.3-.9-.6-20.7 14.6-30.3 17-31.7 2.2.4 4.6.6 7.2.6 2.5-.1 4.8-.2 6.9-.6zm68.4 19.5c-.1 2.7-5.2 5.5-14.6 7.8-9.8-25.8-34.1-33-40.4-34.4.2-.4.4-.8.5-1.3 25.2 3.9 45 14.4 54.5 27.9zm-85.2-44.3c2.9.7 6.6 1.5 9.8 1.5 3.6 0 6.9-.4 10.1-1.3l.1 5.2c0 3.2-4.5 5.8-10.1 5.8s-10.1-2.5-10.1-5.7l.2-5.5zm9.8-47.7c1.7 1.5 4.2 10 4.2 13.8 0 2.8-1.6 4.5-4.2 4.5-2.2 0-4.6-1.1-4.6-4.3 0-3.7 2.9-12.5 4.6-14zm-6.4 15.5c.6 2.9 3 4.8 6.4 4.8 3.3 0 5.6-2 6-5.1 1.4.6 2.2 1.6 3 3-.3 4.8-3.6 7.6-9.1 7.6-5.2 0-9.2-3.9-9.3-7.4.4-.7 1.1-1.7 3-2.9zm-15.6 17.8c0-5.7 4.1-10.9 10.9-13.8.8 4.1 5.1 8.2 11.1 8.2 6.1 0 10.2-3.2 10.9-8.4 7 2.8 11.4 8.2 11.4 14 0 5.7-4.4 10.3-12 12.5-3.2.9-6.6 1.4-10.3 1.4-3.5 0-8.1-1.1-10.4-1.7-7.9-2-11.6-6-11.6-12.2zm10.1 21.2c1 3.6 5.8 6.2 11.8 6.2 6.1 0 10.8-2.6 11.8-6.2 4.3 2.3 7.2 5.8 7.2 8.4 0 4.5-8.7 8.2-18.9 8.2-10.3 0-18.9-3.8-18.9-8.3.1-2.5 3-5.9 7-8.3zm-8.7 9.5c.1.3.2.7.3 1-5.4 1.6-31.9 10.4-39.6 33.2-8.6-2.6-13.6-5.6-14.1-8.2 10.2-13 29.7-22.5 53.4-26zm-70.9 24c4.8 5.9 11.7 6.9 13.2 7 .6.4.9 2.8.7 5.2.1 3.1.2 5.9.4 8.5-3.3.1-13.5 0-21.9-6.8-6.9-5.6-11.1-14.3-12.3-26 6.6-.9 12.4-2.5 15.7-4.6-.6 6.9.8 12.5 4.2 16.7zM515 255.1c-.9 0-2-.1-3.3-.4-5.9-1.6-10.2-3.3-11.3-10.6-1-6.6 4-13.5 8.8-20.2 1.4-1.9 2.7-3.8 3.9-5.6 3.2-4.9 4-8.2 5-12 .4-1.5.8-3.1 1.4-5 .3-.1.5-.1.7-.1 1.3 0 1.5 2.3 1.7 6 .2 3.5.3 7.9 2.4 11.1 1.2 1.8 2.5 3.6 3.9 5.6 4.8 6.7 9.8 13.6 8.8 20.1-1.1 7.3-5.4 9-11.3 10.6-1.3.4-2.4.4-3.3.4h-.3v-6.2c0-3.7-5.9-3.7-5.9 0v6.2l-1.2.1zm-10.7 8.2c-.3.5-.5.9-.5 1.5 0 3.7 8.2 5.7 16.2 5.7 8.1 0 16.2-1.9 16.2-5.7 0-.6-.2-1.1-.6-1.6 6.2 1.3 9.9 3.4 10 5.3 0 .3-.1.5-.1.8l-.3.3c-3.2 2.8-13.4 5.7-25 5.7-11 0-21.3-2.2-24.5-5.3-.5-.5-.9-.9-.9-1.4.1-2 3.6-4 9.5-5.3zm21.8 41.5c-13.2-20.7-19.3-23.6-20.5-24-.8-.5-6.5-3.9-9.3-8.1 4.7 2.7 13.9 4.4 23.9 4.4 2.5 0 5-.1 7.4-.4 1.3 12.2 5.7 21.3 13 27.2 9 7.3 19.7 7.4 23.2 7.3 1.9 21.3 8.1 26.3 8.3 26.5 6.4 5.7 13.2 10.1 20.8 13.4-15.4-3.5-46.2-14.2-66.8-46.3zm47.5 31.5c-.1-.1-5.7-4.8-7.6-24.6 3.7 1.7 8.9 3.4 15.3 4.9.1 4.6 1.9 25.8 28.3 37.9-2.2-.5-4.4-1-6.5-1.6-11.1-3.5-20.8-8.8-29.5-16.6zm35.9 35.6c5 6.6 25.5 8 31.6 8 16 0 26-1.9 29.9-5.8.7-.7 1.2-1.4 1.5-2.2l11.9 10.8c-.6 2.3-5.5 13.8-43.3 13.8-24.2 0-34.4-5.2-38.6-9.6-2.6-2.6-3-5-3.1-5.9l10.1-9.1zm85.2 18.6c0 7.3-21.6 15.1-53.7 15.1s-53.7-7.8-53.7-15.1c0-3.2 3.5-7.2 10.1-8.9.2 1.4 1 3.8 3.5 6.3 4.5 4.7 15.1 10.3 40.1 10.3 37.2 0 43.8-11 45-14.7 6.9 2.6 8.7 4.1 8.7 7zM670.8 370c0 1-.4 1.9-1.2 2.7-3.4 3.4-13.5 5.2-28.5 5.2-10.7 0-29.6-2.9-30.7-8.7.2-2 1.7-2.7 4.2-3.6v.3c0 5 17.5 7.6 26.8 7.6 11.6 0 25.5-1.3 25.7-7.5v-.2c2.3 1 3.7 1.7 3.7 4.2zm-5.6-4.7v.7c-.1 3.5-9.3 5.7-23.8 5.7-12 0-24.9-3.4-24.9-5.7 0-.6.7-1.3 2-2v-.1c1.6-1.1 2.9-2.7 3.2-5.6 7.5 1.1 13.9 1.6 19.5 1.6 4 0 7.9-.2 11.9-.5v.1c.2-.1.3-.1.5-.2 2.3-.2 4.5-.4 6.8-.8.2 4.4 2.5 5.9 4.8 6.8zm-4.1-8.7c-.1 0-.3 0-.4.1 35.1-14.7 40.6-36.5 41.4-41 10.2-2.5 17.5-5.6 20.3-8.8.2 1.2.3 2.5.3 3.7 0 1.7-.2 3.7-.6 5.8-3.1 15.6-20.7 29.7-45.9 37-5.8 1.5-10.2 2.5-15.1 3.2zM795 255.8c-6.8 8-9.7 11.3-23.2 11.3h-2.4l1.7 1.6c9.4 9 8.8 22.9 8.8 23.1-.9 32.9-31 52.2-94.4 60.3 20.7-7.8 34.5-20.2 38-34.3 3 1.3 9.7 4 16.2 4.4 18.4 0 29.3-12 29.3-32.1 0-13.8-8.6-23-21.5-23-5.4 0-10 1.9-13.3 5.4-3.5 3.7-5.2 9.1-4.8 14.8.5 6.4 4.7 10.5 10.7 10.5h.9c2.9-.2 6.5-2.7 7.2-6.4.9-4.7-.7-7.7-5.7-10.5.1-.1.2-.3.3-.5.6-.6 1.9-1.3 4.8-1.3 5.3 0 9.1 5.7 9.1 13.6 0 11.4-8.5 15.6-15.7 15.8-5.7 0-11.1-2-15.1-5.9-4.4-4.3-6.9-10.5-6.9-17.4 0-9.2 3.4-17.7 9.4-23.4 5.2-4.9 11.9-7.3 19.2-6.9 1.2.2 28.4 4.8 39.5.5 8.3-3.2 9.5-2.5 9.6-2.5.1 0 .2.7-1.7 2.9zM500.2-116.5c-.2-2.3-.5-3.8-1-5.5-.3-1.2-.6-2.6-.9-4.4 1.3-2.8 5-9.2 10.8-9.3v-1c-4.7.1-8 3.7-10 6.8.9-2.3 1.6-6-.2-10.4l-.9.4c2.1 5.2.5 9.3-.5 11.2l-.9.8c-1.3 1.1-2.4 1.9-3.3 2.6-1.3 1-2.3 1.7-3.4 2.8.2-2.5-.2-6.3-3.3-10l-.7.6c3.5 4.2 3.4 8.3 3 10.5-.4.4-.8.9-1.2 1.4-1 1.3-1.2 2.9-1.1 4.3-2.3-2-4.2-.9-4.9-.2-2.9 2.6-4.2 10.3-3.1 13.9-.7.2-1.2.6-1.6.8-2.9 2.6-4.2 10.3-3.1 13.9-.7.2-1.2.6-1.6.8-2.9 2.6-4.1 10.1-3.1 13.7-2.1.7-3.8 3-4.6 6.3-1.1 4.6 0 10.5 4.6 14.4l-1.8 5.4c-4.7-.8-11.8-1.8-20.2-2.6l2-16.8c6.8-1.8 10.5-9 10.5-14.2 0-2-.5-3.5-1.4-4.5 2.5-2.9 4.3-10.1 2.9-13.6-.2-.5-.5-1.2-1.2-1.7 2.6-2.8 4.5-10.2 3.1-13.8-.2-.5-.5-1.2-1.2-1.7 2.6-2.8 4.4-10.2 3.1-13.8-.3-.8-1.1-2.2-3-2.4.5-1.1 2-3 6.3-5.1l-.4-.9c-4.9 2.5-6.4 4.8-6.9 6-.3 0-.5.1-.8.2.8-1.3 1.4-2.9 1-4.6 1.2-3.1 4.2-9.2 9.7-9.7l-.1-1c-5.5.6-8.6 5.7-10.1 9.1-.6-2-1.2-3.3-2-4.8-.5-1-1-2.1-1.6-3.5.5-3.1 2.3-10.3 7.9-12l-.3-.9c-4.5 1.4-6.7 5.7-7.8 9.2.2-2.5-.1-6.2-3-9.9l-.8.6c3.1 3.9 3.1 7.8 2.7 10.1l-.9 1.1c-1.1 1.4-2.1 2.4-2.9 3.3-1.2 1.3-2.2 2.4-3.1 3.8-.3-2.4-1.5-5.6-6.3-8.8l-.6 1.2c5.4 3.6 6 7.2 5.9 9.4-.2.4-.5.8-.7 1.3-.8 1.6-.6 3.4-.2 4.8-3-1.8-4.7 0-5.4.9-2.2 3.1-2.2 10.8-.3 14.1-.8.4-1.3.9-1.6 1.3-2.2 3.1-2.2 10.8-.3 14.1-.8.4-1.3.9-1.6 1.3-2.2 3.1-2.2 10.7-.4 14-1.7 1-3.1 3.2-3.4 6.2-.6 5 1.4 10.9 7.2 14l-2 17.2c-8.3-.6-17.5-.9-26.2-1v-18.9c7.6-2.5 10.2-9.3 9.9-13.9-.2-2.7-1.2-4.8-2.8-5.9 2.3-3 3.4-10.1 1.6-13.6-.3-.5-.8-1.3-1.7-1.9 2.4-3 3.5-10.2 1.7-13.7-.3-.5-.8-1.3-1.7-1.9 2.4-3 3.5-10.2 1.7-13.7-.5-1.1-2.1-3.3-5.6-1.9.6-1.4 1-3 .3-4.5-.5-1.3-1.1-2.4-1.6-3.3.4-2.2 1.7-6.2 6.5-8.9l-.5-.8c-4.5 2.5-6.2 6.1-6.8 8.6-.6-.9-1.2-1.7-2-2.7-.8-1-1.7-2.1-2.7-3.6l-.1-.2h.1c0-.1-1.9-6.3 3.3-11.8l-.7-.7c-3.2 3.4-3.9 7.1-3.9 9.6-.8-3.6-2.6-8.1-6.9-9.9l-.4.9c5.4 2.1 6.5 9.3 6.8 12.5-1.1 1.9-2 3.2-2.8 4.4-.9 1.2-1.7 2.4-2.5 4-1.1-3.5-3.8-9.2-9.3-10.3l-.2.9c5.6 1.1 8 7.5 8.9 10.6-.1.2-.2.5-.3.8-.4.9-.4 1.9-.3 2.8-.6-1.4-2.2-3.4-6-5.7l-.5.8c5.3 3.3 5.9 5.7 6 6.4-2.9-.6-4.2 1.3-4.7 2.3-1.7 3.5-.6 10.7 1.7 13.7-.9.5-1.5 1.4-1.7 1.9-1.7 3.5-.6 10.7 1.7 13.7-.9.5-1.5 1.4-1.7 1.9-1.7 3.5-.7 10.5 1.5 13.5-1.4 1.1-2.2 3-2.3 5.5-.1 4.8 2.8 11.6 9.3 14.1v19c-8.8 0-17.4.3-25.4.7l-2.1-16.7c5.9-3 8-9.1 7.4-14.1-.4-2.9-1.7-5.1-3.4-6.2 1.8-3.4 1.8-11-.4-14-.3-.4-.8-1-1.6-1.3 1.9-3.3 1.9-11-.3-14.1-.3-.4-.8-1-1.6-1.3 1.9-3.3 1.9-11-.3-14.1-.6-.9-2.3-2.6-5.1-1 .4-1.4.6-3.2-.2-4.7-.5-.9-.9-1.6-1.3-2.3-.1-2.2.3-6.5 4.6-10.2l-.6-.7c-3.7 3.2-4.7 7-4.9 9.5-.8-1.1-1.6-1.9-2.5-3-.8-.9-1.8-1.9-2.9-3.3l-.3-.4c-.5-.9-2.7-6.2.8-12l-.8-.5c-2.5 4-2.3 7.7-1.8 10.2-1.5-3.4-4.2-7.4-8.8-8.2l-.2.9c5.8 1 8.4 7.9 9.3 10.9-.7 1.9-1.4 3.2-1.9 4.4-.7 1.5-1.4 2.8-2 4.9-1.8-3.2-5.5-8.1-11-8.1h-.2v1h.2c5.5 0 9.1 5.6 10.7 8.5v.1c-.4 1.7.2 3.4 1 4.7-.1 0-.3-.1-.4-.1-.7-1.2-2.6-3.1-7.4-4.8l-.3.9c3.7 1.3 5.5 2.7 6.4 3.7-2.1 0-3 1.6-3.4 2.5-1.4 3.5.5 11 3.1 13.8-.7.5-1 1.2-1.2 1.7-1.4 3.5.5 11 3.1 13.8-.7.5-1 1.2-1.2 1.7-1.3 3.5.4 10.7 2.9 13.6-.1.2-.3.3-.4.5-.7 1-1 2.4-1 4 0 5.1 3.6 12.2 10.2 14.1l2 16.4c-7.2.6-14 1.3-20 2.1l-1.5-4.5c4.6-3.9 5.6-9.8 4.5-14.4-.8-3.3-2.5-5.6-4.6-6.3 1-3.7-.2-11.2-3.1-13.7-.3-.3-.9-.7-1.6-.8 1.1-3.6-.1-11.3-3.1-13.9-.3-.3-.9-.7-1.6-.8 1.1-3.6-.1-11.3-3.1-13.9-.8-.7-2.7-1.9-5.1.4.1-1.5 0-3.2-1.1-4.5-.3-.4-.6-.7-.8-1-.3-2.1-.3-6.5 3.7-10.6l-.7-.8c-3.5 3.6-4.1 7.6-4 10.1-1.3-1.3-2.4-2.2-3.8-3.3-.9-.7-2-1.5-3.3-2.6l-1-.8c-.9-2.1-1.8-6.1.5-10.7l-.9-.4c-2.1 4.2-1.7 7.9-.9 10.3-1.8-3.2-4.8-7-9.5-7.4l-.1 1c5.8.5 9 7 10.1 9.9-.3 1.7-.6 3-.9 4.1-.4 1.6-.8 3.1-.9 5.2-3.3-5.3-7.6-7.9-12.3-7.4l.1.9c.4 0 .8-.1 1.1-.1 5.3 0 8.8 4.3 10.9 8.2 0 1.6.8 2.9 1.6 4h-.2c-.6-1.1-2.4-3.1-8.1-4.6l-.2.9c4.9 1.3 6.7 2.9 7.3 3.9-1.4.4-2.4 1.4-2.6 3.1-.6 3.8 2.5 10.6 5.5 12.8-.4.5-.7 1.2-.8 2-.6 3.7 2.5 10.6 5.5 12.8-.4.5-.7 1.2-.8 2s-.1 1.7.1 2.6c-4-.9-12.3-1.5-17.5 1.4-3.1 1.8-4.8 4.6-4.8 8.2 0 11.4 10.4 24.9 12.9 28-.5.8-.7 1.6-.7 2.5.2 3.9.5 7.7.8 11.3-.1.1-.1.3-.1.4 0 .4.1.8.3 1.2.6 6.4 1.5 12.3 2.5 17.7 0 .4.1.7.2 1.1 1.3 7.2 2.9 13.6 4.6 19.3.1.4.2.8.4 1.3 2.7 8.9 5.7 16 8.3 21.2 0 .1.1.3.2.4 3 6 5.6 9.6 6.7 11.1 6.1 8 13.4 17.7 44.3 20.8h.4c5.2.5 11 .9 17.5 1 .3 0 .5 0 .8.1h9.7c38.6-.5 50.2-6.6 60.1-14 9.1-6.8 20.1-34.1 25.5-80.6.1-.2.1-.5.1-.7.4-3.7.8-7.4 1.1-11.3 0-1-.5-2-1.4-2.9 2.8-3.5 12.7-16.7 12.7-27.7 0-2.8-.9-5.1-2.8-6.8-3.6-3.4-9.7-3.8-13.6-3.6.1-.7.1-1.3 0-1.9-.1-.8-.4-1.4-.8-2 2.9-2.2 6.1-9 5.5-12.8-.1-.8-.4-1.4-.8-2 2.9-2.1 6.1-9 5.5-12.8-.3-1.6-1.1-2.6-2.4-3.1 1-.9 3-2 6.9-2.7l-.2-.9c-4.7.9-6.9 2.4-7.9 3.4h-.5c.9-1 1.6-2.4 1.7-3.9 2-2.6 6.4-7.3 11.8-6.3l.2-.9c-5.7-1.2-10 2.7-12.4 5.5zm-5.8-7.3c.6-.5 1.3-1 2.1-1.6.3 1.6.6 2.8.9 3.9.5 1.9.9 3.5 1 6.3.1 2.6-3.3 4.7-3.3 4.7-1.8.5-3 1-3.8 1.5-.3-.9-1-2.2-2.2-3.7h.1c-.4-1.1-1.3-4.3 0-6 1.9-2.6 3.2-3.6 5.2-5.1zm-20.8 38.9c.4-.3 1.3-1.1 2.9.8 4 4.4 3.9 6.3 3.9 6.3l1.8.7s.9-1.6 6.6-2.5c2.2-.4 2.6.6 2.8 1.6.6 3.4-2.7 9.6-4.7 10.9-.7-.5-1.6-.7-2.6-.7-3.2 0-5.2.7-6.4 1.5-.4-1.5-1.6-3.4-4.4-5.5-.8-.6-1.6-.9-2.4-1-.9-2.4 0-9.9 2.5-12.1zm.5 41.6c15.9 3.4 17.2 6.9 17.2 7.9 0 3.1-8.2 6.3-22.3 8.9l5.1-16.8zm.5-1.8l1.3-4.1c7.8-.1 13-8.2 13-13.6 0-1.1-.2-2.1-.7-2.9l.2-.2c5.5-1.3 9.3-.2 10.8 1.4 1.8 2-4.5 13.6-11.4 23.4-3.1-1.4-7.5-2.8-13.2-4zm-8.1-20.8c.7-3 2.4-5.1 4.2-5.1.6 0 1.1.2 1.7.7 4.3 3.2 3.9 5.6 3.8 5.9l-.1.3 1.9.4c.1-.2 1.1-2.2 6.4-2.2 1.8 0 2.7 1 2.7 3.1 0 4.7-4.7 11.7-11.3 11.7-1 0-1.9-.1-2.7-.4-6.7-3.5-7.7-9.9-6.6-14.4zm5.8 16.1c.6.2 1.1.3 1.7.4l-7.1 23.2c-1.4.2-2.8.4-4.2.7l8.2-25.1c.3.2.8.6 1.4.8zm-5.5 5.2l-6.3 19.4c-5 .7-10.4 1.3-16.3 1.8l2.9-23.7c8.1.7 15 1.7 19.7 2.5zM453.4-143c.6-.6 1.2-1.3 1.9-2.1.6 1.5 1.1 2.6 1.6 3.6.8 1.7 1.6 3.2 2.2 6 .6 2.6-2.5 5.4-2.5 5.4l.1.1c-1.9.9-3.1 1.7-3.8 2.4-.5-.8-1.5-1.9-3.1-3.2l.2-.1s-2.4-3.5-1.1-5.9c1.6-3 2.7-4.3 4.5-6.2zm-10.1 12.1c.5-.7 1.4-1.4 3.3-.1 4.9 3.4 5.2 5.3 5.2 5.3l1.9.3s.6-1.7 6.3-3.9c2.2-.8 2.9 0 3.2.9 1.4 3.5-1.4 11.5-3.2 12.2l.1.1c-.7-.1-1.6.1-2.6.4-3.4 1.3-5.3 2.5-6.3 3.5-.7-1.2-2.3-2.8-5.3-4.9-.9-.6-1.7-.9-2.4-1.1l.1-.1c-1.7-1.1-2.5-9.5-.3-12.6zm-1.9 15.5c.5-.7 1.4-1.4 3.3-.1 4.9 3.4 5.2 5.3 5.2 5.3l1.9.3s.6-1.8 6.3-3.9c2.2-.8 2.9 0 3.2.9 1.4 3.5-1.4 11.5-3.2 12.2l.1.1c-.7-.1-1.6.1-2.6.5-3.4 1.3-5.3 2.5-6.3 3.5-.8-1.2-2.3-2.8-5.3-4.9-.9-.6-1.7-1-2.4-1.1l.1-.1c-1.7-1.2-2.5-9.7-.3-12.7zm-1.9 15.4c.5-.7 1.4-1.4 3.3-.1 4.9 3.4 5.2 5.3 5.2 5.3l1.9.3s.6-1.8 6.3-3.9c2.2-.8 2.9 0 3.2.9 1.2 3.2-1 10.1-2.7 11.8-.8-.3-1.7-.3-2.8-.1-3.3.7-5.2 1.8-6.3 2.9-.7-1.4-2.3-3-5.6-4.4-.9-.4-1.8-.5-2.6-.4-1.3-2-1.9-9.4.1-12.3zm-3.4 19.4c.3-2.6 1.6-5.2 3.8-5.2.4 0 .9.1 1.4.3 5 2.2 5.1 4.5 5 4.9v.3l.9.1h.9c0-.2.6-2.4 6.1-3.6.3-.1.6-.1.9-.1 2.4 0 2.6 2.8 2.6 4 0 4.7-3.4 11.2-9.6 12.5h-.2c-.6.1-1.3.2-2 .2h-.6c-7.2-2-9.8-8.3-9.2-13.4zm9.1 15.2h.9c.4 0 .8 0 1.2-.1l-5.1 42.1c-1.3.1-2.6.2-4 .3l5-43c.6.3 1.3.5 2 .7zm-6 17.6L436.3-23c-7.2.4-14.9.7-23.1.8V-49c8.6.3 17.7.7 26 1.2zm-32.5-97.7c.7-1 1.5-2.1 2.4-3.6.7 1 1.3 1.8 1.9 2.5 1.7 2.1 2.8 3.6 4 6.7.8 2-1.1 4.6-2 5.6-2 1.2-3.2 2.2-3.9 3-.7-.8-1.8-1.7-3.7-2.9 0 0-3-3.2-2-5.6 1.2-2.7 2.1-4.1 3.3-5.7zm-4.8 9.1c.1.1.1.3.2.4-.1 0-.1 0-.2-.1v-.3zm-3.9 3.2c.4-.9 1.3-2 3.9-.8 5.7 2.8 6.3 4.5 6.3 4.5l1.9.1s.5-1.8 6.4-4.7c2.6-1.2 3.5-.2 3.9.7 1.7 3.5-.3 11.3-2.1 12.3l.1.1c-.8 0-1.7.2-2.8.8-3.7 1.8-5.5 3.3-6.5 4.4-.9-1.1-2.8-2.6-6.4-4.3-1.1-.5-2-.7-2.8-.7l.1-.1c-1.8-1-3.7-8.9-2-12.3zm-.1 15.6c.4-.9 1.3-2 3.9-.8 5.7 2.8 6.3 4.5 6.3 4.5l1.9.1s.5-1.8 6.4-4.7c2.6-1.3 3.4-.2 3.9.7 1.7 3.5-.3 11.3-2.1 12.2l.1.1c-.8 0-1.7.2-2.8.8-3.7 1.8-5.5 3.3-6.5 4.4-.9-1.1-2.8-2.6-6.5-4.3-1.1-.5-2-.7-2.7-.7l.1-.2c-1.8-.9-3.7-8.7-2-12.1zm0 15.5c.4-.9 1.3-2 3.9-.8 5.7 2.8 6.3 4.5 6.3 4.5l1.9.1s.5-1.8 6.4-4.7c2.5-1.2 3.5-.2 3.9.7 1.6 3.2 0 10.2-1.7 12-.9-.2-1.9-.2-2.9.1-3.9 1-5.8 2.5-6.7 3.8-1-1.2-2.9-2.6-6.5-3.8-1.1-.4-2.1-.4-3-.2-1.7-1.7-3.2-8.5-1.6-11.7zm-.6 18.3c.1-2.3.9-4.7 3.2-4.7.4 0 .9.1 1.4.2 5.8 1.9 6.2 4.1 6.2 4.3v.3l.9-.1 1-.1c0-.3.3-2.8 6.2-4.4.4-.1.8-.2 1.2-.2 2.7 0 3.8 2.7 3.9 5.1.3 4.5-2.7 11.6-12 12.7-8.4-.5-12.1-8.1-12-13.1zm12 15h.2c.7-.1 1.3-.2 1.9-.3l-.1 47.1h-4.7l.1-47.2c.7.2 1.6.4 2.6.4zm-4.6 20V-22c-7.7 0-15.1-.2-22-.6l-3.1-25.5c7.9-.4 16.3-.7 25.1-.7zm-44.9-86.7c.7-2.7 1.4-4.2 2.2-6 .5-1 1-2.1 1.6-3.6.7.8 1.3 1.5 1.9 2.1 1.8 1.9 2.9 3.2 4.5 6.2 1.2 2.4-1.1 5.8-1.1 5.9l.1.1c-1.6 1.4-2.6 2.5-3.2 3.3-.7-.7-1.9-1.5-3.7-2.4l.2-.2s-3.1-2.8-2.5-5.4zm-4.1 7.1c.3-.9 1-1.7 3.2-.9 5.6 2.1 6.3 3.8 6.3 3.8l1.9-.1s.2-1.9 5.2-5.3c1.9-1.4 2.8-.7 3.3.1 2.2 3 1.4 11.5-.2 12.6l.1.1c-.7.1-1.5.4-2.4 1.1-3 2.1-4.5 3.8-5.3 4.9-1-1-2.9-2.2-6.3-3.5-1-.4-1.9-.5-2.6-.4l.1-.1c-1.9-.8-4.7-8.8-3.3-12.3zm1.8 15.5c.3-.9 1-1.7 3.2-.9 5.6 2.1 6.3 3.8 6.3 3.8l1.9-.1s.2-1.8 5.2-5.3c1.9-1.4 2.8-.7 3.3.1 2.2 3 1.4 11.5-.2 12.6l.1.1c-.7.1-1.5.4-2.4 1.1-3 2.1-4.5 3.7-5.3 4.9-1-1-2.9-2.2-6.3-3.5-1-.4-1.9-.5-2.6-.5l.1-.1c-1.8-.7-4.6-8.7-3.3-12.2zm1.9 15.4c.3-.9 1-1.7 3.2-.9 5.6 2.1 6.3 3.8 6.3 3.8l1.9-.1s.2-1.9 5.2-5.3c1.9-1.4 2.8-.7 3.3.1 2 2.8 1.5 10.3.1 12.3-.8-.1-1.7 0-2.6.4-3.3 1.4-4.8 3.1-5.6 4.4-1.1-1.1-2.9-2.2-6.3-2.9-1-.2-2-.2-2.8.1-1.8-1.8-3.9-8.7-2.7-11.9zM361-80c0-1.3.3-2.3.7-3 .4-.7 1.1-1 1.9-1 .3 0 .6 0 .9.1 5.5 1.2 6.1 3.4 6.1 3.5v.3l1.9-.5c0-.5 0-2.8 5-5 .5-.2.9-.3 1.4-.3 2.2 0 3.5 2.6 3.8 5.2.6 5.1-2 11.5-9.2 13.3-8 .6-12.5-7.3-12.5-12.6zm11.7 14.6c.3 0 .6 0 1.1-.1s1.1-.3 1.6-.5l5.3 43.2c-1.4-.1-2.8-.2-4.2-.2l-5.2-42.6c.4.2.9.2 1.4.2zm-1.2 17.8l3 24.5c-5.5-.4-10.6-.8-15.4-1.4l-7.2-21.1c5.9-.8 12.5-1.4 19.6-2zM357-24.7c-1.6-.2-3.2-.4-4.7-.6l-7.6-24.1c.6-.1 1.3-.2 2-.5.5-.3 1-.5 1.4-.8l8.9 26zm-14.3-24.6l1 3.1c-7.6 1.4-13.5 2.9-17.4 4.6-5.2-7.3-12.9-19.4-12-22.4.1-.2.1-.2.2-.3l.7-.3c4.1-1.6 5.7-2.3 14.8.6-.1.3-.1.7-.1 1.1 0 5.4 5.1 13.4 12.8 13.6zm1.6 5l5.9 18.7c-17.8-2.6-28.4-6.3-28.4-9.8 0-2.4 5.9-6 22.5-8.9zm8-21.6c1.1 4.5 0 10.9-6.4 14.3-1 .3-1.9.4-2.9.4-6.5 0-11.3-7-11.3-11.7 0-1 .2-1.8.7-2.3.4-.5 1.1-.8 2-.8 5.3 0 6.3 2 6.3 2.1l.1.3 1.7-.8c-.1-.4-.5-2.8 3.8-6 2.5-1.6 5.1.6 6 4.5zm-31.1-55.7c.3-1.1.6-2.3.9-3.9.8.6 1.5 1.1 2.1 1.6 2 1.5 3.4 2.5 5.3 5.1 1.3 1.7.5 4.9 0 6l.2.1c-1.2 1.6-1.8 2.8-2.1 3.7-.8-.5-2.1-1.1-4.1-1.6-.4-.3-3.4-2.3-3.3-4.7.1-2.8.5-4.4 1-6.3zm-3.3 14.1c.2-1 .6-1.9 2.8-1.6 5.6.9 6.5 2.4 6.5 2.4l1.8-.5s-.2-1.9 3.9-6.4c1.7-1.9 2.6-1.1 2.9-.8 2.7 2.4 3.6 11 2.2 12.5l.1.1c-.6.3-1.3.7-2.1 1.6-2.4 2.7-3.5 4.6-4 5.9-1.1-.7-3.1-1.5-6.5-2-1-.2-1.8-.1-2.5.1v-.1c-1.6-.3-5.7-7.5-5.1-11.2zm4.7 14.7c.2-1 .6-1.9 2.8-1.6 5.6.9 6.5 2.4 6.5 2.4l1.8-.5s-.2-1.9 3.9-6.4c1.7-1.9 2.6-1.1 2.9-.8 2.7 2.3 3.6 11 2.2 12.5l.1.1c-.6.3-1.3.7-2.1 1.6-2.4 2.7-3.5 4.6-4 5.9-1.1-.7-3.1-1.5-6.5-2-1-.2-1.8-.1-2.5.1v-.1c-1.7-.3-5.8-7.5-5.1-11.2zm4.6 14.7c.2-1 .6-1.9 2.8-1.6 5.6.9 6.5 2.4 6.5 2.4l1.8-.5s-.2-1.9 3.9-6.4c1.7-1.9 2.6-1.1 2.9-.8 2.5 2.2 3.4 9.8 2.5 12.1-.8.1-1.6.4-2.4 1-2.8 2.1-4 4-4.4 5.5-1.2-.8-3.2-1.5-6.4-1.5-1.1 0-2 .3-2.6.7-1.4-1-3.6-4.6-4.4-7.8l.1-.1s-.1 0-.1-.1c-.2-1-.3-2-.2-2.9zm161.2 95.5l-.3.3c-1.3 1.9-4.5 4.1-9.5 6.2 1.3-5.6 2.5-11.9 3.5-18.7 4.4-1.9 7.8-3.7 10-5.5-1.1 6.4-2.4 12.3-3.7 17.7zm-5.5 17.9l-.2.2c-1.4 2.2-4.8 4.6-9.8 7.1 1.9-4.8 3.6-10.3 5.2-16.5 4.1-1.7 7.3-3.4 9.3-5.1-1.4 5.4-2.9 10.1-4.5 14.3zm-31.6 30c-4.3 1.1-9.4 2.1-15.6 2.8 7-3 11.7-7.7 15.1-16.3 7.3-1.6 13.5-3.5 18.5-5.5-4.8 10-10.6 16.2-17.8 18.9-.1 0-.2 0-.2.1zm.3-15.7c1.6-4.6 2.9-10.2 4-17.1 8.1-1.6 15-3.5 20.4-5.6-1.6 6.4-3.5 12-5.5 16.8-5.1 2.1-11.4 4.2-18.9 5.9zM334.1 37.2c-2.2-4.4-4.6-10-7-17 2.6 2.1 6.7 4.2 11.8 6.2 1.6 6.2 3.4 12.2 5.6 17.5-5.1-2.2-8.6-4.6-10.4-6.7zM325.5 15c0-.3-.1-.4-.2-.6-1.3-4.5-2.6-9.5-3.7-15 2.9 2.4 7.6 4.8 13 6.8 1.1 6 2.4 12 3.8 17.9-7.1-2.9-11.4-5.8-12.6-8-.1-.3-.2-.7-.3-1.1zm128.3 15.9c-8.3 1.6-17.8 2.8-28.4 3.5.3-5.1.5-10.8.6-17.4 10.9-.8 21.1-2.3 30-4.1-.7 6.8-1.4 12.8-2.2 18zm4.2-18.5c8.7-1.9 16.2-4.1 22.1-6.4-1.1 6.9-2.3 13.1-3.6 18.7-5.3 2.1-12.3 4.1-20.6 5.7.7-5.2 1.4-11.2 2.1-18zm-34.5 22.1c-5.3.3-10.8.5-16.5.5-6.2 0-12.1-.2-17.7-.6-.5-5-.9-10.8-1.3-17.4 5.9.4 12.2.7 19 .7 5.9 0 11.6-.2 17.1-.6-.1 6.6-.3 12.4-.6 17.4zm-36.1-.3c-9.6-.7-18.3-1.9-25.8-3.4-.9-5.1-1.6-11-2.3-17.6 7.3 1.5 16.4 2.9 26.9 3.7.3 6.5.7 12.3 1.2 17.3zm-27.8-3.8c-7.5-1.6-13.9-3.4-19-5.4-1.5-5.8-2.7-11.9-3.9-17.9 2.6.9 5.4 1.8 8.1 2.6 3.2.9 7.4 2 12.5 3.1.7 6.6 1.5 12.4 2.3 17.6zm-18.4-3.1c5.3 1.9 11.6 3.6 18.8 5.1 1.2 7.2 2.7 13 4.3 17.7-6.8-1.5-12.5-3.2-17.1-5-2.4-5.4-4.4-11.4-6-17.8zm20.7 5.5c7.7 1.5 16.3 2.7 25.7 3.4.7 7.1 1.6 12.8 2.5 17.4-9-.6-16.9-1.7-23.7-3-1.7-4.7-3.2-10.5-4.5-17.8zm27.6 3.5c5.6.4 11.4.6 17.5.6 5.7 0 11.2-.2 16.4-.5-.4 7.2-1.1 12.9-1.8 17.2-4.6.3-9.5.4-14.6.4-5.2 0-10.2-.2-14.9-.4-.9-4.4-1.8-10.1-2.6-17.3zm35.8 0c10.5-.7 19.9-1.9 28.2-3.4-1.2 7.1-2.5 12.7-4.2 17.2-7.5 1.6-16.1 2.8-25.8 3.5.7-4.6 1.4-10.2 1.8-17.3zm67.4-39.9c-1.6 2-5.1 4.3-10.2 6.6.8-5.3 1.5-11 2.1-17.1 4.8-2 8.4-4 10.6-5.9-.8 5.7-1.6 11.2-2.5 16.4zm-12.3 7.4c-5.8 2.4-13.4 4.7-22.2 6.6.5-5.2 1-11 1.4-17.2 9-1.9 16.8-4.2 22.9-6.6-.6 6.2-1.3 11.9-2.1 17.2zm-24.2 7c-9 1.9-19.2 3.4-30.2 4.2.1-5.2.1-10.9 0-17.2 11.4-.8 22.1-2.3 31.6-4.3-.4 6.4-.9 12.1-1.4 17.3zM424.1-2c.1 6.3.1 12 0 17.2-5.5.4-11.3.6-17.1.6-6.6 0-13-.3-19.1-.7-.3-5.2-.5-11-.7-17.2 6.4.5 13 .7 19.8.7 5.8 0 11.6-.2 17.1-.6zm-38.8-.3c.2 6.3.4 12 .7 17.2-9.9-.8-18.9-2.2-27-3.8-.5-5.2-1-10.9-1.5-17.2 8.5 1.6 17.8 3 27.8 3.8zm-29.7-4.2c.5 6.2 1 11.9 1.5 17.2-8.1-1.7-15.2-3.8-20.8-5.9-.7-3.6-1.3-7.2-2-10.8l-1.2-6.6c6.2 2.3 13.8 4.4 22.5 6.1zM331-13.3c.5 2.5.9 5.1 1.4 7.7.6 3.2 1.1 6.4 1.7 9.6-7.8-3.1-12.5-6.1-13.3-8.3-.9-4.8-1.7-10.1-2.3-15.6 2.5 2.1 6.8 4.4 12.5 6.6zm9.7 61.5c-.8-1-2.3-3.1-4.2-6.4 2.4 1.6 5.4 3.2 9.1 4.7 2.7 6 5.9 11.1 9.8 14.9-7.6-3.8-11.2-8.6-14.7-13.2zm20.5 15.7c-.1-.2-.2-.4-.4-.5-5.2-3.4-9.3-8.9-12.6-15.8 4.7 1.7 10.3 3.3 16.7 4.6 3.1 8.2 7 12.7 11.9 15.5-6.3-1.1-11.4-2.3-15.6-3.8zm22.9 4.5c-7.3-2.1-12.7-5.9-16.9-15.9 7 1.3 14.8 2.3 23.4 2.9 1.8 7.7 3.9 11.7 6.1 13.8-4.6-.1-8.8-.4-12.6-.8zm17.5 1c-3.1-.3-6.4-2.6-9.1-13.8 4.6.3 9.4.4 14.5.4 5 0 9.7-.1 14.2-.4-2.5 12.8-6.2 13.5-9.6 13.8h-10zm21.5-13.9c9.4-.6 17.9-1.8 25.3-3.3-4.4 10.6-10.8 13.9-20.7 16.5-.1 0-.1.1-.2.1-3.1.2-6.5.4-10.1.5 2.2-2 4.2-5.9 5.7-13.8zm47.7.2c-3.1 2.3-6.4 4.5-10.8 6.5 4.5-3.9 8.4-9.5 11.8-17 4-1.7 7.1-3.6 9.3-5.3-3.4 8.1-7 13.4-10.3 15.8zm35-127.2c1.5 1.4 2.2 3.1 2.2 5.4 0 12-12.8 27.2-12.9 27.4l.1.1c-.2.4-.1.9.2 1.2.9.7 1.4 1.4 1.4 1.9-.4 4-.8 8-1.2 11.7-1.1 6.3-38.1 20.4-88.6 20.4-48.3 0-85.7-13.4-88.8-19.8-.4-4-.7-8.2-1-12.6 0-.6.1-1.1.5-1.6.3-.4.2-.8 0-1.2l.2-.2c-.1-.2-12.9-15.4-12.9-27.4 0-3 1.2-5.1 3.8-6.6 5.2-3 14.3-1.9 17-1 1 3.1 2.9 6.4 4.7 7.9-9.8-3.1-11.8-2.3-16.1-.5l-.7.3c-.7.3-1.1.8-1.3 1.5-1.3 4.6 8.8 19.3 12.1 23.8-3.1 1.6-4.6 3.4-4.6 5.3 0 10 44.6 15.3 86.6 15.3 12.2 0 24.7-.5 36.2-1.3.1 0 .1.1.2.1h.1c.2 0 .3-.1.5-.1 27.7-2.2 49.7-6.9 49.7-13.9 0-1.7-1.2-3.3-3.7-4.7 4.1-5.8 14.6-21.6 11.1-25.6-1.5-1.7-4.9-3.1-10.2-2.5 1.2-1.8 2.3-4.2 2.8-6.4 3.1-.1 9.3.1 12.6 3.1zM491-81.6v.1c-.7-.2-1.5-.3-2.5-.1-3.4.5-5.4 1.3-6.5 2-.5-1.3-1.6-3.2-4-5.9-.7-.8-1.4-1.3-2.1-1.6l.1-.1c-1.3-1.5-.4-10.2 2.2-12.5.4-.3 1.3-1.1 2.9.8 4 4.4 3.9 6.3 3.9 6.3l1.8.6s.9-1.6 6.6-2.4c2.2-.3 2.6.6 2.8 1.6.6 3.7-3.4 10.9-5.2 11.2zm4.6-14.7v.1c-.7-.2-1.6-.3-2.5-.1-3.4.5-5.4 1.3-6.5 2.1-.5-1.3-1.6-3.2-4-5.9-.7-.8-1.4-1.3-2.1-1.6l.1-.1c-1.3-1.5-.4-10.2 2.2-12.5.4-.3 1.3-1.1 2.9.8 4 4.4 3.9 6.3 3.9 6.3l1.8.6s.9-1.5 6.6-2.4c2.2-.3 2.6.6 2.8 1.6.7 3.6-3.4 10.8-5.2 11.1zM960-116.5c-.2-2.3-.5-3.8-1-5.5-.3-1.2-.6-2.6-.9-4.4 1.3-2.8 5-9.2 10.8-9.3v-1c-4.7.1-8 3.6-10 6.7.9-2.3 1.6-6-.2-10.4l-.9.4c2.1 5.2.5 9.3-.5 11.2l-.9.8c-1.3 1.1-2.4 1.9-3.3 2.6-1.3.9-2.3 1.7-3.4 2.8.2-2.5-.2-6.3-3.3-10l-.7.6c3.5 4.2 3.4 8.3 3 10.5-.4.4-.8.9-1.2 1.4-1 1.3-1.2 2.9-1.1 4.3-2.3-2-4.2-.9-4.9-.2-2.9 2.6-4.2 10.3-3.1 13.9-.7.2-1.2.5-1.6.8-2.9 2.6-4.2 10.3-3.1 13.9-.7.2-1.2.5-1.6.8-2.9 2.6-4.1 10.1-3.1 13.7-2.1.7-3.8 3-4.6 6.3-1.1 4.6 0 10.5 4.6 14.4l-1.8 5.4c-4.7-.8-11.8-1.8-20.2-2.6l2-16.8c6.8-1.8 10.5-9 10.5-14.2 0-2-.5-3.5-1.5-4.5 2.5-2.9 4.3-10.1 2.9-13.6-.2-.5-.5-1.2-1.2-1.7 2.6-2.8 4.5-10.2 3.1-13.8-.2-.5-.5-1.2-1.2-1.7 2.6-2.8 4.5-10.2 3.1-13.7-.3-.8-1.1-2.2-3-2.4.5-1.1 2-3 6.3-5.1l-.4-.9c-4.9 2.5-6.4 4.7-6.9 6-.3 0-.5.1-.8.2.8-1.3 1.4-2.9 1-4.6 1.2-3.1 4.2-9.2 9.7-9.7l-.1-1c-5.5.6-8.6 5.7-10.1 9.1-.6-2-1.2-3.3-2-4.8-.5-1-1-2.1-1.6-3.5.5-3.1 2.2-10.3 7.9-12l-.3-.9c-4.5 1.4-6.7 5.7-7.7 9.2.2-2.5-.1-6.2-3-9.9l-.8.6c3 3.9 3.1 7.8 2.7 10l-.9 1.2c-1.1 1.4-2.1 2.4-2.9 3.3-1.2 1.3-2.1 2.4-3.1 3.8-.3-2.4-1.5-5.6-6.3-8.8l-.5.8c5.4 3.6 6 7.2 5.9 9.4-.2.4-.5.8-.7 1.3-.8 1.6-.6 3.4-.1 4.8-3-1.8-4.8 0-5.4.9-2.2 3.1-2.2 10.8-.3 14.1-.8.4-1.3.9-1.6 1.4-2.2 3.1-2.2 10.8-.3 14.1-.8.4-1.3.9-1.6 1.3-2.2 3.1-2.2 10.7-.4 14-1.7 1-3 3.3-3.4 6.2-.6 5 1.4 10.9 7.2 14l-2 17.2c-8.3-.6-17.5-.9-26.2-1V-70c7.6-2.5 10.2-9.3 9.9-13.9-.2-2.7-1.2-4.8-2.8-5.9 2.3-3 3.4-10.1 1.6-13.6-.3-.5-.8-1.3-1.7-1.8 2.4-3 3.5-10.2 1.7-13.7-.3-.5-.8-1.3-1.7-1.8 2.4-3 3.5-10.2 1.7-13.7-.5-1.1-2.1-3.3-5.6-1.9.6-1.4 1-3 .3-4.5-.5-1.4-1.1-2.4-1.6-3.4.4-2.2 1.7-6.2 6.5-8.8l-.5-.8c-4.5 2.5-6.1 6.1-6.8 8.6-.6-.9-1.2-1.7-1.9-2.6-.8-1-1.7-2.1-2.7-3.7l-.1-.2h.1c0-.1-1.9-6.3 3.3-11.8l-.7-.7c-3.2 3.4-3.9 7.1-3.9 9.6-.8-3.6-2.6-8.2-6.9-9.9l-.4.9c5.4 2.1 6.5 9.3 6.8 12.5-1.1 1.9-2 3.2-2.8 4.4-.9 1.2-1.7 2.4-2.5 3.9-1.1-3.5-3.8-9.2-9.3-10.3l-.2.9c5.5 1.1 8 7.5 8.9 10.6-.1.2-.2.5-.3.8-.4.9-.4 1.9-.3 2.7-.6-1.4-2.2-3.4-6-5.7l-.5.8c5.3 3.3 5.9 5.7 6 6.4-2.9-.6-4.2 1.3-4.7 2.3-1.7 3.5-.7 10.7 1.7 13.7-.9.5-1.5 1.4-1.7 1.9-1.7 3.5-.6 10.7 1.7 13.7-.9.5-1.4 1.4-1.7 1.9-1.7 3.5-.7 10.5 1.5 13.5-1.4 1.1-2.2 3-2.3 5.5-.1 4.8 2.8 11.6 9.3 14.1v19c-8.8 0-17.4.3-25.4.7L836.9-67c5.9-3 8-9.1 7.4-14.1-.4-2.9-1.7-5.1-3.4-6.2 1.8-3.4 1.8-11-.3-14-.3-.4-.8-1-1.6-1.3 1.9-3.3 1.9-11-.3-14.1-.3-.4-.8-1-1.5-1.3 1.9-3.3 1.9-11-.3-14.1-.6-.9-2.3-2.5-5.1-1 .4-1.4.6-3.2-.2-4.7-.5-.9-.9-1.6-1.3-2.3-.1-2.2.3-6.5 4.6-10.2l-.6-.7c-3.7 3.2-4.7 7-4.9 9.5-.8-1-1.6-1.9-2.5-3-.8-.9-1.8-1.9-2.9-3.3l-.3-.4c-.5-1-2.7-6.2.8-12l-.8-.5c-2.5 4-2.4 7.7-1.8 10.2-1.5-3.4-4.2-7.4-8.8-8.2l-.2.9c5.8 1 8.4 7.9 9.3 10.9-.7 1.9-1.4 3.2-1.9 4.4-.7 1.5-1.4 2.8-2 4.9-1.8-3.2-5.5-8.1-11-8.1h-.2v1h.2c5.5 0 9.1 5.6 10.7 8.5v.1c-.4 1.7.2 3.4 1 4.7-.1 0-.3-.1-.4-.1-.7-1.2-2.6-3.1-7.4-4.8l-.3.9c3.7 1.3 5.5 2.7 6.4 3.8-2.1 0-3 1.6-3.4 2.4-1.4 3.5.5 11 3.1 13.7-.7.5-1 1.2-1.2 1.7-1.4 3.5.5 11 3.1 13.8-.7.5-1 1.2-1.2 1.7-1.4 3.5.4 10.7 2.9 13.6-.1.2-.3.3-.4.5-.7 1-1 2.4-1 4 0 5.1 3.6 12.3 10.2 14.1l2 16.4c-7.2.6-14 1.3-20 2.1l-1.5-4.5c4.5-3.9 5.6-9.8 4.5-14.4-.8-3.3-2.5-5.6-4.6-6.3 1-3.7-.2-11.2-3.1-13.7-.3-.3-.9-.7-1.6-.8 1.1-3.6-.1-11.3-3.1-13.9-.3-.3-.9-.7-1.6-.8 1.1-3.6-.1-11.3-3.1-13.9-.8-.7-2.7-1.9-5.1.4.1-1.5 0-3.2-1-4.5-.3-.4-.6-.7-.8-1-.3-2.1-.3-6.5 3.6-10.6l-.7-.7c-3.5 3.6-4.1 7.6-4 10.1-1.3-1.3-2.4-2.2-3.8-3.3-.9-.7-2-1.5-3.3-2.6l-1-.8c-.8-2.1-1.8-6.1.5-10.7l-.9-.4c-2.1 4.2-1.7 7.9-.9 10.3-1.8-3.2-4.8-7.1-9.5-7.5l-.1 1c5.8.5 9 7 10.1 10-.3 1.7-.6 3-.9 4.1-.4 1.6-.8 3.1-.9 5.2-3.3-5.3-7.5-7.9-12.3-7.4l.1.9c5.9-.6 9.8 3.9 12.1 8.2 0 1.6.8 2.9 1.6 4h-.2c-.6-1.1-2.4-3.1-8.1-4.6l-.3.9c4.9 1.3 6.7 2.9 7.3 3.9-1.4.4-2.4 1.4-2.6 3.1-.6 3.8 2.5 10.6 5.5 12.8-.4.5-.7 1.2-.8 1.9-.6 3.8 2.5 10.6 5.5 12.8-.4.5-.7 1.2-.8 2s-.1 1.7.1 2.6c-4-.9-12.3-1.5-17.5 1.4-3.1 1.8-4.8 4.6-4.8 8.2 0 11.4 10.4 24.9 12.9 28-.5.8-.7 1.6-.7 2.5.2 3.9.5 7.7.8 11.3-.1.1-.1.3-.1.4 0 .4.1.8.3 1.2.6 6.4 1.5 12.3 2.5 17.7 0 .4.1.8.2 1.1 1.3 7.2 2.9 13.6 4.6 19.3.1.4.2.9.4 1.3 2.7 8.9 5.7 15.9 8.3 21.2 0 .1.1.3.2.4 3 6 5.6 9.6 6.7 11.1 6.1 8 13.4 17.7 44.3 20.8h.4c5.2.5 11 .9 17.5 1 .3 0 .5 0 .8.1h9.7c38.7-.5 50.2-6.6 60.1-14 9.1-6.8 20.1-34.1 25.5-80.6.1-.2.1-.5.1-.7.4-3.7.8-7.4 1.1-11.3 0-1-.5-2-1.4-2.9 2.8-3.5 12.7-16.7 12.7-27.7 0-2.8-.9-5.1-2.8-6.8-3.6-3.4-9.7-3.8-13.6-3.6.1-.7.1-1.3 0-1.9-.1-.8-.4-1.4-.8-2 2.9-2.2 6.1-9 5.5-12.8-.1-.8-.4-1.4-.8-2 2.9-2.2 6.1-9 5.5-12.8-.3-1.6-1.1-2.6-2.4-3.1 1-.9 3-2 6.9-2.7l-.2-.9c-4.7.9-6.9 2.4-7.9 3.4h-.5c.9-1 1.6-2.4 1.7-3.9 2-2.6 6.5-7.3 11.8-6.3l.2-.9c-6.2-.9-10.5 3-12.9 5.8zm-5.8-7.3c.6-.5 1.3-1 2.1-1.6.3 1.6.6 2.8.9 3.9.5 1.9.9 3.5 1 6.3.1 2.6-3.3 4.7-3.3 4.7-1.8.5-3 1-3.8 1.5-.3-.9-1-2.2-2.2-3.7-.4-1.1-1.3-4.3 0-6 2-2.6 3.3-3.6 5.3-5.1zm-20.8 38.9c.4-.3 1.3-1.1 2.9.8 4 4.4 3.9 6.3 3.9 6.3l1.8.6s.9-1.5 6.6-2.4c2.2-.3 2.6.6 2.8 1.6.5 3.4-2.7 9.6-4.7 10.9-.7-.5-1.6-.7-2.6-.7-3.2 0-5.2.7-6.4 1.5-.4-1.5-1.6-3.4-4.4-5.5-.8-.6-1.6-.9-2.4-1-.9-2.4 0-9.9 2.5-12.1zm.5 41.6c15.9 3.4 17.2 6.9 17.2 7.9 0 3.1-8.2 6.3-22.3 8.8l5.1-16.7zm.5-1.8l1.3-4.1c7.8-.1 13-8.2 13-13.6 0-1.1-.2-2.1-.7-2.9l.2-.2c5.4-1.3 9.3-.2 10.8 1.4 1.8 2-4.5 13.6-11.4 23.4-3.1-1.4-7.5-2.8-13.2-4zm-8.1-20.8c.7-3 2.4-5.1 4.2-5.1.6 0 1.1.2 1.7.7 4.3 3.2 3.9 5.6 3.8 5.9l-.1.3 1.9.4c.1-.2 1.1-2.2 6.4-2.2 1.8 0 2.7 1 2.7 3.1 0 4.7-4.7 11.7-11.3 11.7-1 0-1.9-.1-2.7-.4-6.7-3.5-7.7-9.9-6.6-14.4zm5.8 16.1c.5.2 1.1.3 1.7.4l-7.1 23.2c-1.4.2-2.8.4-4.2.7l8.2-25.1c.3.2.8.5 1.4.8zm-5.5 5.2l-6.3 19.4c-5 .7-10.4 1.3-16.4 1.8l2.9-23.7c8.2.7 15.1 1.7 19.8 2.5zM913.2-143c.6-.6 1.2-1.3 1.9-2.1.6 1.5 1.1 2.6 1.6 3.6.8 1.7 1.6 3.2 2.2 6 .6 2.6-2.5 5.4-2.5 5.4l.1.1c-1.9.9-3.1 1.7-3.8 2.4-.5-.8-1.5-1.9-3.1-3.2l.2-.1s-2.4-3.5-1.1-5.9c1.6-3 2.7-4.3 4.5-6.2zm-10.1 12.1c.5-.7 1.4-1.4 3.3-.1 4.9 3.4 5.2 5.3 5.2 5.3l1.9.3s.6-1.7 6.3-3.9c2.2-.8 2.9 0 3.2.9 1.4 3.5-1.4 11.5-3.2 12.2l.1.1c-.7-.1-1.6.1-2.6.4-3.4 1.3-5.3 2.5-6.3 3.5-.8-1.2-2.3-2.8-5.3-4.9-.9-.6-1.7-1-2.4-1.1l.1-.1c-1.7-1.1-2.5-9.5-.3-12.6zm-1.9 15.5c.5-.7 1.4-1.4 3.3-.1 4.9 3.4 5.2 5.3 5.2 5.3l1.9.3s.6-1.8 6.3-3.9c2.2-.9 2.9 0 3.2.9 1.4 3.5-1.4 11.5-3.2 12.2l.1.1c-.7-.1-1.6.1-2.6.5-3.4 1.3-5.3 2.5-6.3 3.5-.8-1.2-2.3-2.8-5.3-4.9-.9-.6-1.7-1-2.4-1.1l.1-.1c-1.7-1.2-2.5-9.7-.3-12.7zm-1.9 15.4c.5-.7 1.4-1.4 3.3-.1 4.9 3.4 5.2 5.3 5.2 5.3l1.9.3s.6-1.8 6.3-3.9c2.2-.8 2.9 0 3.2.9 1.2 3.2-1 10.1-2.7 11.8-.8-.3-1.7-.4-2.8-.1-3.3.7-5.2 1.8-6.3 2.9-.7-1.4-2.3-3-5.6-4.4-.9-.4-1.8-.5-2.6-.4-1.3-2-1.9-9.4.1-12.3zm-3.4 19.3c.3-2.6 1.6-5.2 3.8-5.2.4 0 .9.1 1.4.3 5 2.2 5.1 4.5 5 4.9v.3l.9.1h.9c0-.2.6-2.4 6.1-3.6.3-.1.6-.1.9-.1 2.4 0 2.6 2.8 2.6 4 0 5.2-4.2 12.7-11.7 12.7h-.6c-7.3-1.9-9.9-8.2-9.3-13.4zm9.1 15.3h.9c.4 0 .8 0 1.2-.1L902-23.4c-1.3.1-2.6.2-4 .3l5-43c.6.3 1.3.5 2 .7zm-6 17.6L896.1-23c-7.2.4-14.9.7-23.1.8V-49c8.6.3 17.7.7 26 1.2zm-32.5-97.7c.7-1 1.5-2.1 2.4-3.6.7 1 1.3 1.8 1.9 2.5 1.7 2.1 2.8 3.6 4 6.7.8 2-1.1 4.6-2 5.6-2 1.2-3.2 2.2-3.9 3-.7-.8-1.8-1.7-3.7-2.9-.8-.9-2.8-3.6-2-5.6 1.2-2.7 2.2-4.1 3.3-5.7zm-4.8 9.1c.1.1.1.2.2.4-.1 0-.1 0-.2-.1v-.3zm-3.9 3.2c.5-.9 1.4-2 3.9-.8 5.7 2.8 6.3 4.5 6.3 4.5l1.9.1s.5-1.8 6.4-4.7c2.6-1.2 3.5-.2 3.9.7 1.7 3.5-.3 11.3-2.1 12.2l.1.2c-.8 0-1.7.2-2.7.8-3.7 1.8-5.5 3.3-6.5 4.4-.9-1.1-2.8-2.6-6.4-4.3-1.1-.5-2-.7-2.7-.7l.1-.1c-2-1-3.9-8.9-2.2-12.3zm-.1 15.6c.5-.9 1.3-2 3.9-.8 5.7 2.8 6.3 4.5 6.3 4.5l1.9.1s.5-1.8 6.4-4.7c2.6-1.3 3.4-.2 3.9.7 1.7 3.5-.3 11.3-2.1 12.2l.1.2c-.8 0-1.7.2-2.8.8-3.7 1.8-5.5 3.3-6.5 4.4-.9-1.1-2.8-2.6-6.5-4.3-1.1-.5-2-.7-2.7-.7l.1-.1c-1.8-1.1-3.7-8.9-2-12.3zm0 15.5c.4-.9 1.4-2 3.9-.8 5.7 2.8 6.3 4.5 6.3 4.5l1.9.1s.5-1.8 6.4-4.7c2.5-1.2 3.5-.2 3.9.7 1.6 3.2 0 10.2-1.7 12-.9-.2-1.9-.2-2.9.1-3.8 1-5.8 2.5-6.7 3.8-1-1.2-2.9-2.6-6.5-3.8-1.1-.4-2.1-.4-3-.2-1.7-1.7-3.2-8.5-1.6-11.7zm-.6 18.3c.1-2.3.9-4.7 3.2-4.7.4 0 .9.1 1.4.2 5.8 1.9 6.2 4.1 6.2 4.3v.3h1.9v-.3c0-.3.3-2.8 6.2-4.4.4-.1.8-.2 1.2-.2 2.7 0 3.8 2.7 3.9 5.1.3 4.5-2.7 11.6-12 12.7-8.4-.4-12.1-8-12-13zm12 15h.2c.7-.1 1.3-.2 1.9-.3l-.1 47.1h-4.7l.1-47.2c.7.2 1.6.4 2.6.4zm-4.6 20V-22c-7.7 0-15.1-.2-22-.6l-3.1-25.5c7.9-.4 16.3-.7 25.1-.7zm-44.9-86.7c.7-2.7 1.4-4.2 2.2-6 .5-1 1-2.1 1.6-3.6.7.8 1.3 1.5 1.9 2.1 1.8 1.9 2.9 3.2 4.5 6.2 1.2 2.4-1.1 5.8-1.1 5.9l.1.1c-1.6 1.4-2.6 2.5-3.2 3.3-.7-.7-1.9-1.5-3.7-2.4l.2-.2s-3.1-2.8-2.5-5.4zm-4.1 7.1c.3-.9 1-1.8 3.2-.9 5.6 2.1 6.3 3.8 6.3 3.8l1.9-.1s.2-1.9 5.2-5.3c1.9-1.4 2.8-.7 3.3.1 2.2 3 1.4 11.5-.2 12.6l.1.1c-.7.1-1.5.4-2.4 1.1-3 2.1-4.5 3.8-5.3 4.9-1-1-2.9-2.2-6.3-3.5-1-.4-1.9-.5-2.6-.4l.1-.1c-1.9-.8-4.7-8.8-3.3-12.3zm1.8 15.5c.3-.9 1-1.7 3.2-.9 5.6 2.1 6.2 3.8 6.3 3.8l1.9-.1s.2-1.8 5.2-5.3c1.9-1.3 2.8-.7 3.3.1 2.2 3 1.4 11.5-.2 12.6l.1.1c-.7.1-1.5.4-2.4 1.1-3 2.1-4.5 3.7-5.3 4.9-1-1-2.9-2.2-6.3-3.5-1-.4-1.9-.5-2.6-.5l.1-.1c-1.9-.7-4.6-8.7-3.3-12.2zm1.9 15.4c.3-.9 1-1.7 3.2-.9 5.6 2.1 6.3 3.8 6.3 3.8l1.9-.2s.2-1.9 5.2-5.3c1.9-1.4 2.8-.7 3.3.1 2 2.8 1.5 10.3.1 12.3-.8-.1-1.7 0-2.6.4-3.3 1.4-4.9 3.1-5.6 4.4-1.1-1.1-2.9-2.2-6.3-2.9-1-.2-2-.2-2.8.1-1.8-1.7-3.9-8.6-2.7-11.8zm1.6 17.5c0-1.2.3-2.3.7-3s1.1-1 1.9-1c.3 0 .6 0 .9.1 5.5 1.2 6.1 3.4 6.1 3.5v.3l1.9-.5c0-.5 0-2.8 5-5 .5-.2.9-.3 1.4-.3 2.2 0 3.5 2.6 3.8 5.2.6 5.1-2 11.5-9.2 13.3-8 .6-12.5-7.3-12.5-12.6zm11.7 14.6c.3 0 .6 0 1.1-.1s1.1-.3 1.6-.5l5.3 43.3c-1.4-.1-2.9-.2-4.2-.2l-5.2-42.6c.4.1.9.1 1.4.1zm-1.2 17.8l3 24.5c-5.5-.4-10.6-.8-15.4-1.4l-7.2-21.1c5.9-.8 12.5-1.4 19.6-2zm-14.5 22.9c-1.6-.2-3.2-.4-4.7-.6l-7.6-24.1c.6-.1 1.3-.2 2-.5.5-.3 1-.5 1.4-.8l8.9 26zm-14.3-24.6l1 3.1c-7.6 1.4-13.5 2.9-17.4 4.6-5.2-7.3-12.9-19.4-12-22.4.1-.2.1-.2.2-.3l.7-.3c4.1-1.6 5.7-2.3 14.8.6-.1.3-.1.7-.1 1.1 0 5.4 5.1 13.4 12.8 13.6zm1.6 5l5.9 18.7c-17.8-2.6-28.4-6.3-28.4-9.8 0-2.4 5.9-6 22.5-8.9zm8-21.6c1.1 4.5 0 10.9-6.4 14.3-1 .3-1.9.4-2.9.4-6.5 0-11.3-7-11.3-11.7 0-1 .2-1.8.7-2.3.4-.5 1.1-.8 2-.8 5.3 0 6.3 2 6.3 2.1l.1.3 1.7-.8c-.1-.4-.5-2.8 3.8-6 .6-.4 1.2-.7 1.7-.7 1.9.2 3.6 2.3 4.3 5.2zM781-121.6c.3-1.1.6-2.3.9-3.9.8.6 1.5 1.1 2.1 1.6 2 1.5 3.4 2.5 5.3 5.1 1.3 1.7.5 4.9 0 6l.2.1c-1.2 1.6-1.8 2.8-2.1 3.7-.8-.5-2.1-1.1-4.1-1.6-.4-.2-3.4-2.2-3.3-4.7.1-2.8.5-4.4 1-6.3zm-3.3 14.1c.2-1 .6-1.9 2.8-1.6 5.6.9 6.5 2.4 6.6 2.4l1.8-.5s-.2-1.9 3.9-6.4c1.7-1.9 2.6-1.1 2.9-.7 2.6 2.4 3.6 11 2.2 12.5l.1.1c-.6.3-1.3.7-2.1 1.6-2.4 2.7-3.5 4.6-4 5.9-1.1-.7-3.1-1.5-6.5-2.1-1-.2-1.8-.1-2.5.1v-.1c-1.7-.3-5.8-7.5-5.2-11.2zm4.7 14.7c.2-1 .6-1.9 2.8-1.6 5.6.9 6.5 2.4 6.5 2.4l1.8-.5s-.2-1.9 3.9-6.4c1.7-1.9 2.6-1.1 2.9-.8 2.7 2.3 3.6 11 2.2 12.5l.1.1c-.6.3-1.3.7-2.1 1.6-2.4 2.7-3.5 4.6-4 5.9-1.1-.7-3.1-1.5-6.5-2-1-.2-1.8-.1-2.5.1v-.1c-1.7-.3-5.8-7.5-5.1-11.2zm4.6 14.7c.2-1 .6-1.9 2.8-1.6 5.6.9 6.5 2.4 6.6 2.4l1.8-.5s-.2-1.9 3.9-6.4c1.7-1.9 2.6-1.1 2.9-.8 2.5 2.2 3.4 9.8 2.5 12.1-.8.1-1.6.4-2.4 1-2.8 2.1-4 4-4.4 5.5-1.2-.8-3.2-1.5-6.4-1.5-1.1 0-2 .3-2.6.7-1.4-1-3.6-4.6-4.4-7.8l.1-.1s-.1 0-.1-.1c-.3-1-.4-2-.3-2.9zm161.2 95.5l-.3.3c-1.3 1.9-4.5 4.1-9.4 6.2 1.3-5.6 2.5-11.9 3.5-18.7 4.4-1.8 7.8-3.7 10-5.5-1.2 6.4-2.5 12.3-3.8 17.7zm-5.5 17.9l-.2.2c-1.4 2.2-4.8 4.6-9.8 7.1 1.9-4.8 3.6-10.3 5.2-16.5 4.1-1.7 7.3-3.4 9.3-5-1.4 5.3-2.9 10-4.5 14.2zm-31.6 30c-4.3 1.1-9.4 2.1-15.6 2.8 7-3 11.7-7.7 15.1-16.3 7.3-1.6 13.5-3.5 18.5-5.5-4.8 10-10.6 16.2-17.8 18.9-.1 0-.2 0-.2.1zm.3-15.7c1.6-4.6 2.9-10.2 4-17.1 8.1-1.6 15-3.5 20.4-5.6-1.6 6.4-3.5 12-5.5 16.8-5.1 2.1-11.4 4.2-18.9 5.9zM793.9 37.2c-2.2-4.4-4.6-10-7-17 2.6 2.1 6.6 4.2 11.8 6.2 1.6 6.2 3.4 12.2 5.6 17.5-5.1-2.2-8.5-4.6-10.4-6.7zM785.3 15c0-.2-.1-.4-.2-.5-1.3-4.5-2.6-9.5-3.7-15 2.9 2.4 7.6 4.8 13 6.8 1.1 6 2.4 12 3.8 17.9-7-2.8-11.3-5.7-12.6-8l-.3-1.2zm128.3 15.9c-8.3 1.6-17.8 2.8-28.4 3.5.3-5.1.5-10.8.6-17.4 10.9-.8 21.1-2.3 30-4.1-.7 6.8-1.4 12.8-2.2 18zm4.2-18.5c8.7-1.9 16.2-4.1 22.1-6.4-1.1 6.9-2.3 13.1-3.6 18.7-5.3 2.1-12.3 4.1-20.6 5.7.7-5.2 1.4-11.2 2.1-18zm-34.5 22.1c-5.3.3-10.8.5-16.5.5-6.2 0-12.1-.2-17.7-.6-.5-5-.9-10.8-1.3-17.4 5.9.4 12.2.7 19 .7 5.9 0 11.6-.2 17.1-.6-.1 6.6-.3 12.4-.6 17.4zm-36.1-.3c-9.6-.7-18.3-1.9-25.8-3.4-.9-5.1-1.6-11-2.3-17.6 7.3 1.5 16.4 2.9 26.9 3.7.3 6.5.7 12.3 1.2 17.3zm-27.8-3.8c-7.5-1.6-13.9-3.4-19-5.4-1.5-5.8-2.7-11.9-3.9-17.9 2.6.9 5.4 1.8 8.1 2.6 3.2.9 7.4 2 12.5 3.1.7 6.6 1.5 12.4 2.3 17.6zM801 27.3c5.3 1.9 11.6 3.6 18.8 5.1 1.2 7.2 2.7 13 4.3 17.7-6.8-1.5-12.5-3.2-17.1-5-2.4-5.4-4.4-11.4-6-17.8zm20.7 5.5c7.7 1.5 16.3 2.7 25.7 3.4.7 7.1 1.6 12.8 2.5 17.4-9-.6-16.9-1.7-23.7-3-1.7-4.7-3.2-10.5-4.5-17.8zm27.6 3.5c5.6.4 11.4.6 17.5.6 5.7 0 11.2-.2 16.4-.5-.4 7.2-1.1 12.9-1.8 17.2-4.6.3-9.5.4-14.6.4-5.2 0-10.2-.2-14.9-.4-.9-4.4-1.8-10.1-2.6-17.3zm35.8 0c10.5-.7 19.9-1.9 28.2-3.4-1.2 7.1-2.5 12.7-4.2 17.2-7.5 1.6-16.1 2.8-25.8 3.5.7-4.6 1.4-10.2 1.8-17.3zm67.4-39.9c-1.6 2-5.1 4.3-10.2 6.6.8-5.3 1.5-11 2.1-17.1 4.8-2 8.4-4 10.6-5.9-.8 5.7-1.6 11.2-2.5 16.4zm-12.3 7.4c-5.8 2.4-13.4 4.7-22.2 6.6.5-5.2 1-11 1.4-17.2 9-1.9 16.8-4.2 22.9-6.6-.6 6.2-1.3 11.9-2.1 17.2zm-24.2 7c-9 1.9-19.2 3.4-30.2 4.2.1-5.2.1-10.9 0-17.2 11.4-.8 22.1-2.3 31.6-4.3-.4 6.4-.9 12.1-1.4 17.3zM883.9-2c.1 6.3.1 12 0 17.2-5.5.4-11.3.6-17.1.6-6.6 0-13-.3-19.1-.7-.3-5.2-.5-11-.7-17.2 6.4.5 13 .7 19.8.7 5.8 0 11.6-.2 17.1-.6zm-38.8-.3c.2 6.3.4 12 .7 17.2-9.9-.8-18.9-2.2-27-3.8-.5-5.2-1-10.9-1.5-17.2 8.5 1.6 17.8 3 27.8 3.8zm-29.7-4.2c.5 6.2 1 11.9 1.5 17.2-8.1-1.7-15.2-3.8-20.8-5.9-.7-3.6-1.3-7.2-2-10.7l-1.2-6.6c6.2 2.2 13.8 4.3 22.5 6zm-24.6-6.8c.5 2.5.9 5.1 1.4 7.7.6 3.2 1.1 6.4 1.7 9.6-7.7-3-12.5-6.1-13.3-8.3-.9-4.9-1.7-10.1-2.3-15.7 2.5 2.2 6.8 4.5 12.5 6.7zm9.7 61.5c-.8-1-2.3-3.1-4.1-6.4 2.4 1.6 5.4 3.2 9.1 4.7 2.7 6 5.9 11.1 9.8 14.9-7.7-3.8-11.3-8.6-14.8-13.2zM821 63.9c-.1-.2-.2-.4-.4-.5-5.2-3.4-9.3-8.9-12.6-15.8 4.7 1.7 10.3 3.3 16.7 4.6 3.1 8.2 7 12.7 11.9 15.5-6.3-1.1-11.4-2.3-15.6-3.8zm22.9 4.5c-7.3-2.1-12.7-5.9-16.9-15.9 7 1.3 14.8 2.3 23.4 2.9 1.8 7.7 3.9 11.7 6.1 13.8-4.6-.1-8.8-.4-12.6-.8zm17.5 1c-3.1-.3-6.4-2.6-9.1-13.8 4.6.3 9.4.4 14.5.4 5 0 9.7-.1 14.2-.4-2.5 12.8-6.2 13.5-9.6 13.8h-10zm21.5-13.9c9.4-.6 17.9-1.8 25.3-3.3-4.4 10.6-10.8 13.9-20.7 16.5-.1 0-.1.1-.2.1-3.1.2-6.5.4-10.1.5 2.2-2 4.2-5.9 5.7-13.8zm47.7.2c-3.1 2.3-6.4 4.5-10.8 6.5 4.5-3.9 8.4-9.5 11.8-17 3.9-1.7 7.1-3.6 9.3-5.3-3.4 8.1-7 13.4-10.3 15.8zm35-127.2c1.5 1.4 2.2 3.1 2.2 5.4 0 12-12.8 27.2-12.9 27.4l.1.1c-.2.4-.1.9.2 1.2.9.7 1.4 1.4 1.4 1.9-.4 4-.8 7.9-1.2 11.7-1 6.3-38.1 20.4-88.6 20.4-48.3 0-85.7-13.4-88.8-19.8-.4-4-.7-8.2-1-12.6 0-.5.1-1.1.5-1.6.3-.4.2-.8 0-1.2l.2-.2c-.1-.2-12.9-15.4-12.9-27.4 0-3 1.2-5.1 3.8-6.6 5.2-3 14.3-1.9 17-1 1 3.1 2.9 6.4 4.7 7.9-9.8-3.1-11.9-2.3-16.1-.5l-.7.3c-.7.3-1.1.8-1.3 1.5-1.3 4.6 8.8 19.2 12.1 23.8-3.1 1.6-4.6 3.4-4.6 5.3 0 10 44.6 15.3 86.6 15.3 12.2 0 24.7-.5 36.2-1.3.1 0 .1.1.2.1h.1c.2 0 .3-.1.5-.1 27.7-2.3 49.7-7 49.7-14 0-1.7-1.2-3.3-3.7-4.7 4.1-5.8 14.6-21.6 11.1-25.6-1.5-1.7-4.9-3.1-10.2-2.5 1.2-1.8 2.3-4.2 2.8-6.4 3.1 0 9.3.2 12.6 3.2zm-14.8-10.1v.1c-.7-.2-1.5-.3-2.5-.1-3.4.5-5.4 1.3-6.5 2-.5-1.3-1.6-3.2-4-5.9-.7-.8-1.4-1.3-2.1-1.6l.1-.1c-1.3-1.5-.4-10.2 2.2-12.5.4-.3 1.3-1.1 2.9.8 4 4.4 3.9 6.3 3.9 6.3l1.8.6s.9-1.6 6.6-2.4c2.2-.3 2.6.6 2.8 1.6.7 3.7-3.4 10.9-5.2 11.2zm9.9-25.9c.6 3.7-3.4 10.9-5.3 11.2v.1c-.7-.2-1.5-.3-2.5-.1-3.4.5-5.4 1.3-6.5 2-.5-1.3-1.6-3.2-4-5.9-.7-.8-1.4-1.3-2.1-1.6l.1-.1c-1.3-1.5-.4-10.2 2.2-12.5.4-.3 1.3-1.1 2.9.8 4 4.4 3.9 6.3 3.9 6.3l1.8.6s.9-1.5 6.6-2.4c2.2-.4 2.7.6 2.9 1.6z"/></g></svg>