<?xml version="1.0" standalone="no"?>
<!DOCTYPE svg PUBLIC "-//W3C//DTD SVG 20010904//EN"
 "http://www.w3.org/TR/2001/REC-SVG-20010904/DTD/svg10.dtd">
<svg version="1.0" xmlns="http://www.w3.org/2000/svg"
 width="544.000000pt" height="544.000000pt" viewBox="0 0 544.000000 544.000000"
 preserveAspectRatio="xMidYMid meet">
<metadata>
Created by potrace 1.11, written by Peter Selinger 2001-2013
</metadata>
<g transform="translate(0.000000,544.000000) scale(0.100000,-0.100000)"
fill="#000000" stroke="none">
<path d="M369 5421 c-3 -66 3 -2155 6 -2191 2 -25 7 -86 10 -137 3 -50 8 -102
10 -115 2 -13 6 -45 10 -73 3 -27 10 -75 15 -105 5 -30 11 -72 15 -93 15 -105
88 -415 106 -448 4 -9 10 -27 13 -40 6 -35 72 -218 113 -318 111 -269 291
-572 476 -802 112 -139 303 -333 453 -459 16 -14 76 -60 134 -103 58 -43 110
-82 116 -87 39 -31 269 -168 374 -223 157 -83 385 -185 492 -220 38 -13 427
162 648 291 413 241 690 482 1006 875 112 139 307 470 387 657 8 19 22 51 30
70 110 249 234 722 262 1000 3 36 8 76 10 90 8 52 15 149 20 255 4 89 10 2120
6 2176 -1 14 -216 16 -2356 16 -2144 0 -2355 -2 -2356 -16z"/>
</g>
</svg>
