<?xml version="1.0" encoding="utf-8"?>
<!-- Generator: Adobe Illustrator 18.1.1, SVG Export Plug-In . SVG Version: 6.00 Build 0)  -->
<!DOCTYPE svg PUBLIC "-//W3C//DTD SVG 1.1 Tiny//EN" "http://www.w3.org/Graphics/SVG/1.1/DTD/svg11-tiny.dtd">
<svg version="1.1" baseProfile="tiny" id="Layer_1" xmlns="http://www.w3.org/2000/svg" xmlns:xlink="http://www.w3.org/1999/xlink"
	 x="0px" y="0px" width="21.9px" height="19.6px" viewBox="0 0 21.9 19.6" xml:space="preserve">
<g>
	<path fill="#BAC5C6" d="M7.4,12.7c0,1.1,0.8,3.4,1.4,4.6c-0.8,0.7-5.3,2.5-7.1,2.3c-1-1-1.8-3.1-1.8-4.4C0,10.4,3.7,4.3,8.5,0
		l1.9,1.5C8.3,4.9,7.4,8.1,7.4,12.7z M18.9,12.7c0,1.1,0.9,3.4,1.6,4.6c-0.9,0.7-5.4,2.5-7.1,2.3c-1-1-1.8-3.1-1.8-4.4
		c0-4.8,3.8-10.9,8.5-15.2l1.9,1.5C19.8,4.9,18.9,8.1,18.9,12.7z"/>
</g>
</svg>
